<mxfile host="65bd71144e">
    <diagram id="NDVHOCEs2HfulouMkGAj" name="Page-1">
        <mxGraphModel dx="2086" dy="599" grid="1" gridSize="10" guides="1" tooltips="1" connect="1" arrows="1" fold="1" page="1" pageScale="1" pageWidth="850" pageHeight="1100" math="0" shadow="0">
            <root>
                <mxCell id="0"/>
                <mxCell id="1" parent="0"/>
                <mxCell id="5" value="" style="shape=image;verticalLabelPosition=bottom;labelBackgroundColor=#ffffff;verticalAlign=top;aspect=fixed;imageAspect=0;image=data:image/png,iVBORw0KGgoAAAANSUhEUgAAAS0AAAIICAYAAAA7arj2AAAAAXNSR0IArs4c6QAAIABJREFUeF7svQeYXVd5Nbxu733u9CZp1IsrBlxwodgU02wglCQkhJBAIAklhCQEUxLKV0iAEBPgJ4TAl5gakgAGbIPBIHdVy+ozGk0vt/f2P+vd59x7ZjQjzViSLcfn2PNo5t5T99l77fWut2zL2NhYAxfgVq/XYbVa5c4ajYb86H+f7e3y3DwfN57TYrGc7SnN480WMFvgSWoBy4UIWgSVyclJxONxOBwOlEolpFIptLe3n3WzEKwmJiaQz+cFsAKBANra2kzgOuuWNU9gtsCT0wIXJGhVq1Xs27cPGzZsgNfrRSaTwdjYGDZu3IhsNisg5vF45LtCoYByuSzMyW63y+/83O12I5fLoVgsNvcloyIgHjx4EJFIRPYhgPX29sJmswmQESQJZLVaDel0Wj7neX0+n1yL+zidTtnHZGhPTic1r2K2gLEFLljQ2r17N/r7+wVwCD5zc3MYGBjA8ePHBUAIZENDQzh69KiAFMGM4ELQIeh1dXUJILlcLlQqFfT19clxBK1Dhw6hs7NTjuP5yOiSyaR8x/PwOjw/QYpsjOC1ZcsWDA8PC2DxfrhPKBQye5PZAmYLPMktcMGC1sMPPywAQSAi6PBfsiMCTzQaFUAioBDM1qxZg0QiIcwnHA4LKHE/AhD3pWkZi8XQ3d0twPTYY4/JvmRR/HfdunWyD0FqfHwcHR0dwqjWr18vjOvw4cNimvI7no+g5ff7haGZbOtJ7rHm5Z7xLXDBgtbevXsXmIcEDJpkBDJqUKOjo8KUpqensXbt2iZokf0QtLgvTUMyKpqM/FtnWjQPCT4EHjIxfn/ixInmeXl+nU0R5AhaBChei4DG/Xksz2luZguYLfDktsAFC1oEFoKRbh5SmCdTojlHoKGuxe8JXjQjyZTIeoLBII4dOyZgRZChuUi21NPTIyBHEOI5+D1BjBtBiGYmAZGMjeejRkaTkWyM5uHWrVsF2MjuCIbcxwStJ7ezmlczW4AtcEGCFm+MQEPA4GYMeeDnNBcJRvyefxNIjCEM+mf8l/oWTUvdFNTPvTjUgfvp++o6li7c0xTdtGmTXIPX5rl4fXMzW8BsgSe/BS5Y0Hrym2LhFcncyO4IXNTD+GNuZguYLfDUt4AJWqd5BzQluZ2roNan/nWbd2C2wNO/BS5I0CK7oflleuae/h3MfIL/OS1AHflC2C5I0CKzoQfPZDgXQhcx78FsAdUClEsuhO2CBS3GRZmgdSF0EfMezBZQLcCwowthM0HrQngL5+kedE2OZrZpap+nRn4GndYErdO8bDIsk2k98dHATIC9+/ZJkG2pXMb6oSFcfdVVZpjGE29S80iTaZ2+D5ig9cTGCJnVvn378ZV//mfsfOAB1GqMUXOgXq/h1ltuwR+/850mcD2xpjWPMkHLBK1zPQoYSHv33ffgr267DdVKBdu2bsXznvc8RCNh/PBHP8Ijj+7CHf/vG5JFYG5mCzyRFjDNQ9M8fCL9ZsljGMn/r1//Bv7pS18S58Wbf/u38ZpbXt2sQjE7O4sXv+xluO2DH8RLX/rSc3Zd80TPrBYwQcsErXPS42kS3n3PPfirD/615EL+2fveixuuv76ZAqVf5AU33oT3vfvduPHGF52T65oneea1gAlaJmidk15PDesP3vEOSQT/kz9+Fy679FJ0dXY2y/roF3n5K1+FT37849i8edM5ua55kmdeC5igZYLWWfd6Vqd4+zvfiV27duMD738/Nm/ahJ/d+3NMTU6Jafj8G27Atm1bhXW96tbX4Ctf/hLCZuHCs273Z+oJTNAyQeus+j6Z1Zf/v6/gH7/wBVxz9dX41Cc+LiV7WInixIlRPPTIw7jvvvukJM+NL3wRvvPd7+Iv/+IDp5iNZ3UT5sHPqBYwQcsErbPq8EypeO3r3wCvx4N//3/fWLL0MwX6//j+93HnT36CN//mb2HNmkGEwmG4Xa7znm1A8CSw6uWFzuphn+EHawtHnZdWWM1CVCZomaD1hDshwegTn/wUvv3d7+I9f/qneNMb33Dacz340EP44pe+jOuvuxbDIyewfdtW3HTjjVJn7HxsLJL46507MTkxiRtvuhHRSOR8XOYZcc50AZhIn59H9buAnvDKz22ClglaK+8ti/Z86OGH8Y53vkuyBv71X76KUDB4xnPddffdsn9fbx/u/cW9mJ6ZwfOuvkbY17ksaHjy5Bj27d+HTDaL+bk5tLXFccurX3XG+zN3WLoFRuaBPSfPT+u0B4Bnr1n5uU3QMkFr5b3FsCfNrg99+MP47x/8EJ/8+N/iBc9//orOk85k8P4//4Cwrd6eXgRDQdzzs5+ho70d69auxbqhIXjcbvE6rjZPkcwvm81h157dOHnyJC69+GIcHx7Bnj178OpXvwobN2xY0T2aO53aAiZondomZsL002ykzMzM4NbX/Qbcbhe+fccdssDGSjaC3Qc/dBuuuupKFAsF7N69B9FYDPF4G2rVGsYnxkXIZyR9d1eX1NDnykanA7CpqSlMTU1jYnIC4xOTuPrK52L3nj341a93YsvmTXjlK1+JNrPi60pez7L7jKeAg+epIkzMB+zoXfntmUzLZFor7y3angSev//s5/DPX/0q3viG1+N973nPqs7xyKOPShL1b7zudbJEGlN7dt5/vywSMrRuLWx2OyyA1MHX2ZPX60GsrY2F+uVabo8H6WQKuXwewUAA8fZ2VCplqbW0a/cerF2zBs+75mpZSel8bvkykCqc/goOG9C2MkxvnqjeAKY0DUk/vlYHZrKqCWxWIO4HViNgn007VGpAqXo2Z1j+WD6LZxVLHZigZYLWqnsi12Uky+IqQd/55h2ynBkrOqyGbX3kY3+DD33wrxZcm6sN/fgnP8Fjjx2APxDA4OAAOts7hG1RVLfZrLByjUhAdDEuZMsBfGL0BEZGRvDQw4/IYrg3XHcdduzYvurneiIH/PgA8LWdpz9yQzvwwVVmLREI/+jf1HmH4sCHXgbM5YAPfBcoVIDOIPA3rwScas2VZ9RmgpYJWqvu8Fz67PVv+k1s37YNX/zC7XL8XXffg+ffcP2Kz/V/P/13eOtbfw+BJcxKMi4ysMNHjuDxxw8imUpienpGqkXoAJbJZAU0uVTbmsFBbNm6BVs2bZKQiyezaOO3HwVu//npH/uiXuB/37rippEdZ7PA67+kjtncBXzmdcBMBnjL14BCGeiNAF94I+A8P47X1d3sk7y3CVomaK26y/3j7V/AF774RbzrnX+E333zm+X4r/7L1/Dbv/WbKz7Xz++9F/f96lf4s/e+D3Z7iy5wDQ8u42G3LjwVTcX5+XkUikXRwpwul6wfGYlEYbM7TtmfR9OcIiuzLjrXim9yBTsaQetZg8CWrlMP6gwBL1hl1pIJWss3vglaJmitYGi2diELesnNL8fc3By+/MV/khxDbt/81rdx0UU7sGH9+hWdj0ujvf8v/gK3vvrVuO7a6zCbs2HvGDCWBMo1IOgG1sWB7T2AW9M7ciXgJwcA6j3Uc/jdjx9TmtLvXqV0HgLViXlg90lgLgtYLUBvFLisH4iqNXHP6WYErT+4FrjlkuVP/51H1XdeJ3DT1tZ+x2eBR0fV31u7gY0dFx7TypWVeXo+NrcdYNjDSjcTtEzQWmlfkf0eP3gQv/GGNwrLueenPxFPHzd6Ez/3+c/jLz7wAbiczhWdk8BFT+JzXvh6/HDqCszmgGpNHUqGRNPnmiHgvS9SgEQP1u9/DaAovKlTaTsjcwrEfvBOgIL193cDX/kVQIGcn3MjkesJAX9+EzDUvqJbW/FOqwGtG/9enTbmB77xltYlfrQf+PRP1d+/cxXwG5dfeKB1InF+47SuGFxxk5s14k/XVGbl0lNb53v/8R+47SMfxfOuuQaf+btPL9iBJt/hw4fxxje8AR6PZ0W98OixYbz1tq/BdtGfw+tx4IZNQMgN3HsEGJ1XZuJfvBi4Zj0wngR+TwMtj1MBHCOp6UH7/OuBh0aAj/1Aebm6wypgsVgGdh4HEnk1m3/6tcvP6icTCggXbyHP8scYQevlO9R9GjcyPd2d/8K/a4HWv/1ea68f7gf+70/U328haD3rwgMtM07r1H5hxmmtaIg/9Tv9n09/Gl/716/jA+//M7zuta9dcEOsWvr5278gwaGvufWWJfMQFz8BTcEPfPxLmLVtxC0vuQYvv0jtsW8c+NM71O8En4+9YiFokVWRkbz6UsXC6DJ/zzeBPWPq779/nTKzuJHJEBRIvN79AuDF25Zuxz+5A9i/xEIvN+8A3nXD0secSYj3uYDv/aE69ukMWieTS7fNueiRNPUv7V/5mUzz8DRtZTKtUxvnT979HpBR/Z9PfVLipmxWKyKRCPz+AFwup+QRsnrpAw89iHe94x0SJ3Umb97IiRP4yw99FB/6xO0oVGzIFIF7DwN3H1TX39atGJKRafVHgdvfqExCfbv1C0rf4iB4+3Wtz2kmfuJHyqy8fqNibkttf/k94ODUqd/cuAV46zVnBi2aoTbatYaNeXX/9tanP2ixDakXno+NTHmx4+V01zFBywStVfXDW17zWtEUPveZz6BcKePw4SNgPa1UOo3xsTFs3rwZwWAAPp8P9z/woBQCvPjiiyRUwe/zSXoOTUf+q28/3l/H3972PvQ8/yPIN3xiolGsJngtB1pr24DPv0GxKn276TNnHlgX9wH/65alH5n6WHGJAMqwB+hYJq3SyLRecTHwvEXmIQej7lF8OjOtVXWS87yzCVomaK2qiz3n6qvhdrklqDQajS449lvf/jYuv/xy9Pf1CbtimAKTqnfuvB/pTBpdnV0olopwOV0CZtu2b0fZ3Yf3ftuG1GPfQWzwMjxnx4DoUevagNv+a3Wg9bJ/AEoVIOwFXnGREvMXbwSfF2xe1SOfdufVCPE6aNGL+e8a++LJ6Tz47D3qMheqpnXuWuzsz2SClglaK+5F1Kwuu+LZaGtrw3e/9U2pBW/cCFJf/dq/Ys3AAK6++qqmZ5EVTfv7+4R91ep1FPIF7N27Bz/+6V0YqW/FVOTlqGVP4m0XHcGtr3yJmArpInCLiltd0jxcimn91leAiRTgdQBf/z2Aphk3moXMm6M3koC2Gvf6mRpnNaB18z8AxYpyHHz9LcqM5fbJHwE/fdwErTO1tf69CVomaK20r0jFhFfdcotUZPjut78lYQ+LN5qKTMU5dvw43vVHf4QDjz+OH915J/7wbW/D+PgE+vp6myVomIbzt7d/D/ceasA1+CI8t/51/PGfvEfMwy/9Eth5bHWg9em7gB/sVceQab1kmxLf735cifHUv377ucsL8StuCMOOqwGtt38DODytDqaL/zlrVcjGzw8BSS1/8UJlWnwnifMUp+WyqzCQlW4maJmgtdK+ggMHHsfr3/Qmyfv73jKgxZOxUuiHPvwRfPTDt+HvP/NZXHfdtXjk4Ucwl0jgve/+0wXX2zsOvOOP3wvHZX+J+iN/i22v/l+iZVH0ZTAjWdJSQvxSTIss65N3AgcmVIyWj7KZBWBQKkMPukLAp2556pgWAe7Lv1TPpG9kf/Sc6QB9oYKWGfJw6jAxQx5WDB1P3Y4zs7N44Y03IRaLiXnIvL+lttGTJ/H9//xPvOMP/xB/+4lP4OaXvhRve/s78PnPfRYXX6TFNBgO/MAHP4zH3S/H1ENfQc+LPyN61h9dD3ziTmVOrY8D778JmM4Af/19oFpXuXd//VIFRsaNQPcvO4Fdo0rIZ0J1yAts7gT+8FoVaX8uN0bo//tD6oyvuxx44Wn0snIV+NYjwF0HgWwR8LuBF28FBmPA7feqc7z6EsUQGVf2vm+rz9geH3gxMJ9Tz09nAbW521620Ht6Lp9r8blM0DJB63z2r/N67mtveL54C7/17/+Onp7uJa91xze/iR07dqCjvQOf+exncfDQQRHhP/XJTyxZq521r27/yr/h4u1b8IKb3ySaU8ANTGUU6LCSAcVrsi/m5NHkc1iXNym4H0sDM7GYxzNWKh44PxURGHlP/Y0bAZFez9NtZIAEXx7HffmsjFVL5tVRAZe631pDJUhzMz4/QZnnoO5Hk2opZ8P56AAMvN0/cT7OrLQ9M07rHLWtGad1akO+7e1vxwMPPIj//alPLVvV4W8+/nFZSuxz//B5/PcPf4BKuYJ/+eo/o7enZ9k3w9ivK571rBVH0p+jV2yeZoUtwAkgU1rhzqvcjaBMB8lKN1PTOk1LmaB1auP80xe/hM/ffjt2bN+OL9z+jxL9vnj7tzvuQCwaw20f+QhyuRze/gdvw++/1eDjX2nvNPczW2CJFjBBywStVQ2Mxw4cwFve+vtSlO8Pfv/38bu/8+ZTFqR46KGHpX782Pg4Lr/sMvzjP3zunC5asaobNnf+H9cCJmiZoLXqTv2Zz31O6mdxLcHfefNv4xU33wyf3y913JOJBD780Y/i4UceFVPv43/zMVx37bWrvoZ5gNkCy7WACVomaK16dOQLBfzZn/85fvnL+wSoWGZ5aN062B0OPPbYfuRyeQksfe9734NbX/WqVa+qs+obMg94RrWACVomaD2hDp9IJPDFL38ZP/npXZidnQUXu9A3pve89ffegtfeequ5svMTal3zoNO1gAlaJmg94RFSLldkqa6f/+JeWWewVlU13G+4/gY89znPfsLnNQ80W8AErSfYB0zv4cobTmdaq11gdeVXMPc0W0C1gMm0TKZljgWzBZ5WLWCClglaT6sOa96s2QImaJ0OtCwWREN+WJng1syX0H+h8NxKopDfTsmpWG2SxfL7L/VNS/o+25WGV3afK9vL0KArOmBFO52bkUpnQXNJZq31Fr7GRdd5ovdmeDPGl7TkU6gdTtntjMctPNmpu6/yBKfc26LjT//nUk+gzrjscYb2N1x74e6NU463Wu2Ynk+em/5wlme5IBOmUa8C849D/tU2ajZKt1G9/dTf9R2ZzGsoq8njlmwktQS8YJ7NUDtY88ZZrPo1FCquZBn0M5U3Nj7Lmd/bImBefIDckHpO/rq0pmVB4ww3zrNYDD22vgxeGM/faLTq/65IS+OiitLaDVRrVVmxmpe0avcvD2FYJLHRsDafyXg/FrTWcLc02Df0G2+IF5U/6sxqq9eraOhLAxnbz+BxNXpfF+6izrd4k0+aHxu+t3D/mvpqwXGt86iPdbBcCAzGa9UN97zwHniuVj83ApN6/vrCS8utNCD/1bV/ebx2Ejk3P9farvkvT8z/9TZtNGAP98LdMXTmbvsk7HFBglajVkFt8lGg3lqihYDAAcKG1AHM+LuxrZYDD+MAMw4Aq2HRUuM5F+y/AtQ6l6C1EjCwWFpgu9y1G0YAX6ZDWZ8E0OLzsFhhqcjiUA04nS44XSrxTd6roX0VaKlJo2a4fwsMz2sALTVY+bMYtGryuVzDSMK0wajwZWlmpA/YU0HrVBaiQSQa4PUWcRYNTPTzGL9f7vdlQavRQF2fVBf1R5YlWuqeTwEkA2AtBVoK7FWbNUGrXkfePYieTdufBEg68yX+x4OWkRVYra1OvxxoqUn/1KWRVwIiJmgt3eHq1aoMhFw2h1KmiLn5hNSz7xroAt8JZYC60eS32FqgBadO0mAxII/VAFp1Mhxt0BqZlg5magS2VAR9gJugtZBp6aRgMdBZagStARO0Toenp2Nay4HHYlak0+LFxqECFn5qbzE2zbzSZ/cWk2vZSjbDci/6TKQAzmBaLhh4y2sby5lyqy14YjzPcoBpBANjm5+5HReaR0vuz0esK+YrVodF+10Yj9polJTKJcyPzWFk71HYLTa0b16HY4cOor0njqFNG9Agi7bZUa1UUG/UYbc7JGeS6UoWqwIwMfPIvhoEuDoslroCKjRgJZvS2RNZgtFq016hGEfcRwM3dce8Z7IKzdxtWPlBk2Us1UeNgHcKCyPbk5PWATmvYiv1eqv6oAKGhWbc6diekfHomL2AoakddFxutoNuMbRMPrahYmPSas32av1uBC2dcQl7rTeQI2htXGYNuDOTo3O6x9OOaZ15sGnmhvZSFu+/GtDSNSMFTq12PxW0ThWCjKxg8Rtb+hmUSfREt6cEtAj/2nin2WKxKZOOg0MULBlMFkwcn8LwQ4+iMDcHu9WD0Ka1cIaDuOsnP8J1L7ge4VgMFocb1WoNdrtNgMhuc8Dn88LhtGtJ3w1ZJk3OKZNMrWnGWMWcITjUYeH3C0BLAyEZqBqQEET0gc4H0B+CgFVXL3o5IOFxuol2KmhpACAgqAOVui/jZvx72evooG/QmxabuPo5F5uZOiAtBCGL3Id8Z2mZfkZNywiQRtCyNYCcZxDd67c80e55To8zQUv0FAV0p/4YzElDjzkfoGWxELRONUtP97aNnfWpAi1bw4pavSYDmUzLqrEuggfbqVaqYvd/34fSxBTKlqqwJVssju7NWzE8fAi79+3Dlou2o7N/nTAsp9OhzqWLwLYqPB4vPB43QiG/1Mfnea22FoOxEIQ0oVmYn6HRmhOBDFQFHvUaQUsDsCcAWstx6JamRNhVTiT1WQu0FPNa+PeZ3nEThBbpck8UtFh2dimmZTQLF4AWLMK0TNA63ZuqV1Cf2rWk93Ap8XIx2CyeMfRLcb8lmZZB3LfYWiKwLnSfyoAMnr1lvW2tB1ys9S40ZdV+CrRWwLQ080UdtMzwMe7TfHhaPmc+/wp2WRhyIuOvjlqtjkqjJGa3lQ6CagOZcg3F46M48sudKJdKyJdKsDvssAcjCHb2om2gB3d85w54/F4MbdiO7v4+eP1ecLxzfzKrdD6L+fl5SQ73eF3o6GyD1+dEWygCS6MGi40mH1lETUzGunFlU7ap5sDhPTZNwnpLA1PNY2zH05uHpzPlWt+1gInwRdbVAoTTA9ZiUGv2Ik2TW8zajMNosRa14F6tVuVBNJjI+vfGe2sBr9Yy4kWsI+caRK/JtE6DWgJauxd4D1s6U6uD6Y1+tqClQENjWgbQonm41HUtRlf9MsBhBCBj51kMTPrf+nXOyKOfKGhxaC4u7L7ExVYFWuzQNWWmVatVlCpV0PPHmJ58uYhGoYbUnn2YHB5GqVBCMZ+Dy+eDzR+CMxRFrK8fjx3eh6PDR+D2BjCwZi3616yDz+NHoVCQtq+iIfmV/JtbR2eHMKmBnhiikSDcbofoirV6BS63Q/CnzprJfJ82O6zUxfhQBDhdx6KZROBaxnOoT3rLvYvTAZd+TEv74r3ooKXMs+Um1aU+X9B3+GyLTM3F92gELn1feX6Cls5gaws9jUuBlvG69GaSafUOmebh8uPzSQatBaC3CLR0s2uBKWYINViO7SwHVIs7/NMatAiE1ZoUJiwUisgVyHSoPblRs1RgTeeRHzmGiZPjsppranoWnrACrLLdBV8sCofbjrvvvQvlWgG+QAwbN1+MaKxNSuxw0M0mE0gmkwI8ieQMfL6QsLlGqYi2WBjtHW3I5tJwOGxYu7Yf9IuwnpjL5YTVbofNbtccL0amdXagtRIwa4KWTGqnZ1qnshtjrJkhJm4FoGUEvsVMqxnKYAAtYYJiWitGpd/LQhMWSohfdw5X2z3j7Lz8DhekpsX4LCPTMoLKcjPNcvssNMX0gFELrBaHgV0pHyNNiYaFnVwFqPJvYWGLDYgV0BHO6ksZY4vvZ7XvbilvoNz7qbHd6tMV3KvxHizGoC3DFws+blg1MbouNbzyuSKKpSpyhTL8viDsdi+y87NwO6zIjZxAIpORVSRSs3PIzk0i3D0AZzgGdywEm82Jxw/uwpHhI6jWLOgdXIfBwfUCPDQPJ6cmMTc3L6tqp3MZZLM5TZi3wElT025DKp2Ez+PBYI9a25FzSm9PJ9q7IgJmHIg2Lr4IC2wN3XtnWE9siZewQIZQSKDtxT7U0h6bxFeCOLVNTDAK9sqrSaeMiPcGrU7FYLRAgq/JGJ+lGWcL2GBjgelr0KW0AGq5Z4tFu666Z+lvmhXB84sns1FHrcF/FzqtaFqLb7EJYsqc5OdiHppMa+Xm4ZlAa7F5aAS2pcwxCVSFEbRacUF1g0m4krirZc3A04DWirSrZZpnuRAGY3yS8dCVBJfq+y82URfcpxGBGwQCsqoa8tksZmeTYhbC5YbbE0Qjl8Lor3+BrvVbkJ4vIFfMolahCA9U6hVUy4DH64cvGobN5sJcYgw77/858qUq/KEo1q3fJsul0eRMpVKYnp4WLbLK48tlWWGboMaNtfAJbtVqRU00otvUsG5oEIODPahUK7K/2+OC2+WAk0wadBws9OgtZWY1MWgloGX0OGpR5y0GdapZyO8IZs19qMctafppUEjMMwr4WqC1USLRWZaRbbHdVH+3KceIDloShqEm6yagGtmWgK4CWh6Xdfaje+3G1c6x52X/px3TWq4VWiL7Qrt/MUDoQvwCpmVtARjTRnSwWjbK3KCFGPdZAJZPI9BqPQNZxNJR9rUmaFHRs0msVKVURnp2HrOzCQlRcPkCsDq8KI8fxeTOe2Dxd8AT70OhWkPDZkGpWpXJQgCHZpPFCqvFiYalgAOP7cTR4VFYnW4MDu1Af3+/6FjZrBLiRYwPhwSkQqEw2tvjMpjy+bzEbqWyWZQqZfg8XgHT7p52dHd3YW52Xs4VDgbg9znh91hgo3h/huG0aqa1KEyCj9fSlAzCfJNtGVkOGU7l9KDF+zWk90iQh+5hNWSLyG56PFadMW922GxMWXMKy1Lf1VCjB1XTchXDa8XYtTQuORvq1RrSjj50DK49LyC02pNesKDVmKYQ33IbG9lUkxkYhGVLg2xJ5awZ9dWGlQKsBcwlFGFdy1tsaFHXMjtbGGiqzENlDKoRaoy1WpADZ7guzQ19E1e81arihQxvYrHp1gx41ai7bgqc2benfGBGZtS6zJmGoTzRKcdK0CVDFaxsA5rGmhdTTA7j/nY5XNc+2JLFbA4nh4cxM5NEOByF0xeBrVFAas+v0chUYWmLoVSoIZmT0LokAAAgAElEQVQtwupyIpUtwO7xSgS8PxCAPxhAtco2a2Bu6jge2f0g0rkKugeGsHbteljsDlRLJQGq3bt3o6+vDzWaNtWqpAF5PR4JPq3Sc2i1Ip3JqNguhwMup1PYYGdnF3p6esSUdLtt8Loa8PnssDGOVEsXUqxnYesvK7ZLv1DArgR+PadPC23Q2o1t1xLjqWk135r8oiw5fR9CUBm1JVJxlmTlC2LFONE4WhqGgGUFDWYM1AGr3QGr3Qmb1S5MrUoTk6DVZG36jdEw1HrqIrOxUakhaetCe3//avHlvOz/tAEtPfdwaU2InYfpIHoCcasDMuK5Zfa0zECaTepzzvZqQOoxRkuBQotpqPAEfWPgXQu0qjIgVfR26/MF+pbsr7nVBR81gFyGmS1+6+cetBhPSY3PDqswTj1MgAClsy5+r//eQK1WBjtyLp3B5NhJTIxPw+sNItDZjcb4MArHDsDR1gN7OIyZiRmMnZyAw+1BMBJDsVyRAcPZPxKPwO3xSCR8o5LDzgd/jpOTU4i1dWNw7RAcbp8kVdNM3Lt3LyLRKMLhMBLz8wIIPJZR8wQym92BdDolfSASiSgdy2bD9u3b5Ri+l1IpD6elhra2APx+FyxWDmBqQ3oojGEKWC4nUbRPzSMpRETTfQQEtDxHiX7Vg1Rp9un6WWtCNE50KtFaMa3FJuJyUoLSy7S+aGmtVKsYXhn1RhXWWgMWhwuwOWAnaDX47ngthqi07klN5FyottWvBY8l0ZrOlgqSlna09fWdFxBa7UmfFqC1WLM6FVQWpuUs0Jma4MS3oHdOq0odaYKWTcCD7KGOVpI2vVT6VltQOMIAWgZppIFyM0VDKhloHX+h3qTRFUkhaUUILSfcn2/QIoDWrTbYrE4FWmwXrW1qkqKkgarOKBsNVIoFAazhI0eRmp+SCUNAq6sT2d0Pwe9woBKIYm42iWKxArvXLTN8w+ZANNoGJqgzBMLnU2Z5tVJFNZ/DkeE9eHjvowj4ogiGIghH4whF4tKOhw4dkqYYGBjA1OSkAB8Biqtuu31elMpllEoliefi56l0Clu3bMXaNWvg8XpRq1WQz2VRzhUQi/nR2RmCx2uBze5ckNKlt/dpmRZBS3PPiOCuReTr3jfF7HVgI1Do1UqWB616oyxmrWQWGFjfSkDLajOsgVlvoFZnP6zCUq2fGbQanKxUYPPiCbFZGaJaRMLSjthpFv1dLfCczf4XLGhhZk/TPNRBi0wIMvvr5tsCOqMYkFiB7FRqFqL3TErVCG1vaVd0MennVWK1Moeshrgro4i9IF5zQT5Fq/ltqIrQWalU4XR4GXgsM6huTnDm0jNG1FEqd04vn2Lgh4v8la1rEFjFvDAAnnyw8MRL9AkLrA3NeyrHkg2wLW2AzSbeVIIWqH9IHTPNk6qZ25YGU2RUXFYmncL0yXGMHR9GuZKD1x+EPxiGJxDC7PGj6IxGsfu+XyGVK6Jv/Qa4QhFZMahSraJcbcAX9MHpdsNps4AesVI+j3Ixj/mZY7h/14Ow2z0CJG3xTji9foTD7Thy5CDmkgls3rgJ9XIFqWxGBhsX+mB4BNkYr+H2+5HLpZDN5HHZZZejr69X0oPcDjvm5uZQyOXh9rkRiXjQGXMjEg3B7nCJF5Ibz6Mwg5OOakYtc0jEe2HmVupEdEZQHCdjqcp3knIoXVD1U9Vftbcs+lMriFh9pWUN1Kpo1MrCfsga5XUq6i/vRbuLBe+YOhNvT6wLC60MB3uvsGbm7tarJWlbmoYWK9+tmmjFZDUwrbpM5A5h0nUR7HVvoxL+RYyvFZFsxBHt7j4brDlnxz5tQEufDTiry0tt1tfS2oJ/azWwdL1KCVVqECrXL1+gHvagOpWayYzpOoa2XaLagw42S70BgkIhl0U2nUStbkEoHBKzxOF2wGbVOrmCKa1jSq9fouaTEkYXb0qVa3ZhA03jvqf3hqlh0NKrxOEgWogNjSZo2VEnmLONJFxCaxe5zQrKhaLoWLNzs5ifmhbW4nBa4AkEYbWruCpbvYZiKolf33knZpNp9PSvQUf3ILoG++AM+FC3WFDK5pW66IAkUBeyOdQqBWQTo9h1YC/owWWUu98XQqitE9FIJ06MHseufXuxY+s2hHx+jE9NCkilUykBGm5utxs1WFEopcVbdvHFlwko8XOv042To6Mi7hNkvV4XnNYquntiCIYDYqLWajRG7ZrpRN2nKudmPykWSygU8vD6vIjHowj4vRK4ymbnxESdSDRNASMyd5WQzz7YTNZuqAR76bsKsoSZ0/NZZzmmGqthtEovKVO9BVp6apDoaBKeoOlqAlpOMfFrfGX1Kurlkkygdjs/dwgA6hoaq2IQIPl3jQnRAloOBVqGcaWbq9Z6CalGHBETtE4DvKyjtYhp6aAl+tMpTIuAxU6i1dxqpm5Y0GDcDv+ToFFNsxGDvZXSQ29YczOQN5qQ+rYgTmkZVkMmcuzgYzi8/1EU8lm0d3QjEo7D6vVhaOMGmZ0FWprIszh2R7/a0qAlYK3XU+JpFmSfnCHuSExf5f4WMOcsTvNXAy0bB4fFLhlzTW2wpdGiVikhNZ9AYm4OuWRKOj3ZCU0ajz8Ap8cLsrHZ8TEc2rsXRx7bC6fDje7uAbhDEQQjYXiDAQTCYTgdTpRLFdQaFQlOrZXKyGQSSM0MYzY9j0Q6BafDhVKpimC0Cz3dazE3P4VfP/gAOtra0RVvB5V0BrXSq8il1Pw+H4KhEJKZHDw+vk87Nq7fBH/Ah7a2Njhtdhw6eFC8jW3tHQiGQwIU0UgUDjvvpyzJ2S6nQ2LBeH/WugX5fE7MV4r8ND/tdpqUVQyu68W6NX3weT2AtYp6tQyrOATUJFjjBCmYRcaqe/oMoKXlQpKh1VjdQsTzVmUNXbrgO9GnqXpDky60VBwCnJFpCWjZLaSL8r4IiEuBFsFY17TEEhHQcgpLa1ofWqiDmL61AlJoR1tP7zljS2dzoguWaTWm94DVKXWbXn+JzVwymRE46DQvlyaoC3jJbKYBmL0FZvxONwNlJtSIPPdvwoUBtBZUQDW0slFnUNEumieolMWd3/8WHrn3TnidnPEBfziGEmy48trrsXnHpfD7w3B73KhrpVU0K0FjVlqKxzIOebFK9Y7NMjCtaEZDVQEtmkAvF9P0CFhEx1NhBgRxZRry2YVdaeIxGZguzApz4MRdqSKXTiGVTCKdSgOVKhxuFyysusDAw0wOpUIBbqcD46MnsG/XIxgdHcGVVz4fsbYoHF4fKsUSSvkCGjYrAsEgbA47XG4XaqUKsqkU5qbHMTc/gWDIj5NjY4i3tSGXL2ByLomtOy7BXCKB/Y8fhMftRn9XL2KRMCYmJ3HsxEnMzEyhr6cb3Z1xnJiYQk9vD2Zn5zC0dh062uIIhcMSIX/40GHxRHZ398Dl8cLlcCIUDogZ5HZ75F8FWCVpowrzJQt5Aa1isSAeyXKlhlQqCYcT2Lp1CBddtIEWNarlokgLqh05OWkWgfxtIMUyoWoTL9N7JHaKbJspUC0Orr+2ZpEfASpViVXJDGR2mv6lMWWyshrPT1CqFOV8dhu1SqdMUtwkVovmI8FI5m6rBPhS06wZZA8V76aCURvVAubRjnZTiD8907LM7lUJsYuqlSpGpUUla+xKKDgbX5iUQwaTMv2sSqPRKG/LA8YZr+VxMfIaY9yVEZwWhDwYYpl04ZT75tMJfOnTH8WJA4/C73IgkSmi1LChVmsg2t6OHZdegY3bLsbGbRchFI2q5F49yFEhUgs8l4hg0AGuVTXAsH+zJpSq3qm3W3PwCLvSdBYBNGUGinajjxChBoppiSlRrQlgZZIJpObnkU6mRJdy2GzwBP3iTq9X62LeHT9yFFNTE8ilkjh54rjoTDfe9EpE4lExrYq5vHgcq42anL9YKqFCE6XeQLVYxOjIEamMEAz6cfLkqIQ30MM4NjMDXzCMqZk5jE/PoL+nF2v7B5DNJHD46HHMpzNyfsZhdcUjGJ2cQv/gIEZGTmDdwBq0xdrQ1dUlsWFjY2MCWuFwTDQcn8+neRatAmoMlM3lsooR12oo5HMi9PN33rPdZkOVAbXFPNweOy69dAcGB7vEW1etlRXzbepYSxSS5EdWCt8qtESraSy6kZSG1nQvpTVy08vgaOEUDAHSEpjJEqkvMqdQciyFLdnBAB/JKKmUVG0yDbQY1qJAi2DXKuvTsNqa+1Sb5XQAesV1b2OtlEXC0oGOwYGzIUjn7NgLlGlVYZvf32RaehyNsvFdi0BLicb0gPHFMR5FxEc9AVobnErPMZh7BtPPqAYtB1rVBd5Dgzlp0CBmZ2bwmb9+JxLjw3BYrag0LJhNF1CpkxFaEQmHZbbadtkVuPmVr4PX72/qWyKONGe6hTFD+tsWRmdgW7qYK53RwLqsVHYknYNn1W5cAy3VLhDNTUVK68KxdhWtbImkpJXLKGbzmJmaQi6ZFD2IZoWNBfpcFL19sNpULNXs9Awef+wxjJ8YxtzMJHZs34HN2y9HMBKCw2FHPpNDJpESlsKAR5p2zA10WG1IzMziwP5d8Hgc6Opux8T4OGJtbWhri8tklC+WMXxyHDanG5s3bJBjDh7ei5HRk3D5g5iemoXDZsWGdYNI5QqwOx04fPgItm7aAp/Xi8GBQYRDYczMziCVTMHnD4DmMEHLZnPId4ViARUmederqvyNVFtVeZUsE020YCULeoWdLisGBnuxfuN62Ggii2lXE9NdpdIo8f2UTUgYrQCyfPuCOuxK31JivVGWULqSKhttlfRxiWlArcprarX3rVZ5Hjqa6gQehjyIpkXQokeY1V8FUTXAUpVklUzAmDWCqB01g+zBwn8CWnQ0VAqYt7SjY8AEreWRt16FLXkYzPHXZ5wWWyJoaYKhvAxGOFNMpsiugMnK38UTqMwh2RYtcKF7dpo3oQuQ2kwpHYj6gMZCyJbITOQ4Y93yOlmL6jzTUxP43IfeidTkCTjZOe1OzGSKyJeAfL4uOozX74Lf78HLXvN63Hzr6+Gw2tkHlWiqrT4kLEdfrELuxyi0qRm4OSZE41JJryrQEaiLmaI2OgfU8zMyoSW0CkPUvjBWreBg4+cU3QvpNPK5AvLZDDKJpOhBNE+stIe42aywOR2iUVFEnp6awv79+8RDd/mzrkB3T58wGL4T6kFkVZVqCZlMFgR4R6MhQjf1pJFjh1As5jE0NIgDBx4TBhSPxxGPtyOVzWMukUG5WsKOHRejkC9h9OQxJBMpjM3P48TJUbSHo1jT1we/34dCuYh9jx/A2v618FM4b29HMBBFiYyvWBSdh6BBgZ6g4/V6UCoVxLwTjc7jEbOXA5tMi2y4Ui7JJBOIBDC4thfx9jY4mNStVQHlPnoBQiW8a4tcKLlctTTfr2Ye0lGgxHidcLWkAXkDhjxFia0iQ2V0OtOnJHjZkNzc4KtQfV9As0Z2SHG/5e2s631WAyJjND3vj7Fqqh/rQ47n0q5RyUnIQ8fg4DljS2dzoguTaTVqcGRGxSOj3qliDgqsaNZorlnxmBC07E0zUO2nMy0V8rDUZlvsfdQEaHpTdLNQ3McaQPClCgjoKRNyY/Ti1GQW4zEjR4/hy598P1BINhlJvtLAXLqE+XQVuXINfq8DQa8d3lAMb3nnn+DyK64AGkpfk9lUkrYJPLo7W4/SX+IptNlQjDy9M1u5GEQTp8D4SR20+LnOJFtxSBq4a9HQorGUKxKGkE4mNKCqI5fKKE9dparEXatViblWi5iMZCP5YgFHjx6VfMHLL78Cvb29cDqd8qNnClidVgkKZQpQYnwcE+OTyCSTqFYoqk+jWqXgPy+6F9lWJBxCqVrH8OiYmGZXXPEcVCsNpNJzmJ6cxo9/dZ+whw2D6+B1ODG4pg/FchGP7tuLocENwt7YZzriPfK+cvk87HaXmEQcrPTuen0eVCoF6H1CKqTW61KQkMeIB9jpQLyzA1193QiEVSyYqrJqyMBoBqQq0NKLGepZGAStptdWNw91jFhyQQwNyOQ911lzR4Us8Ef0sNZKO3opajmCjiwBLUOqjqGcUitN59TUnVYva1VwrVOIt3agvc8U4pcFW3qhnIWZpt5Th3I7q06mZhRhXloEt9QSbw5IFWjajEsxshTjFbVkUJkBDZVLa1otcmFvknmvCstRK1C6hoqeb7qDa4zDUhn6D9//AH7wtb+Hs1oQ4GCn5jHZYgnjM0UkSjWUq2W0+T0oVyzoHlqPd7//fehs7xGTtunCJlg2PTkGtri4xQygBcb6aFn+zPPT0F7qe2uTuVQSNnqHdDRrMi0NhAsirOeRyWaECTFtJpdMC1tiDBr3VyY7YLOo9JlsLgvQDMznBbg2b94qTIY5gnxfBLVgMAiHS9WC9weDKJeLUvnh+IFDKJRyGJ8YxcjwUfhdbvH48SfeHkGuWMZDj+xBZ3cPtm7eDofDjbGxYUxNTOOeBx+A3W7FpTsuQjlbQHdPh5ikj+zZhYHetSiXcpKu09nOChAU0svwuHxqATNtArIyXqxRgYOxWg0+Bt9xA26XU92zw4ZQLIRoexxOjwcOl1tL4VHPr+LatB+ttVUUPFlRq38RN8iRxGtrrMkmE7PBnFxQDaKJajIedD2qpYEtXAJM9q5VJOzBUm1VdyX71jdd79QnLh3EFkbjt4pScvwlEUd7T+fZEKRzduwFybQIWu5SRiiwIjR6lLqaGcm0dDNNgZdNQhqU0M7yIwJF8j9VAHUO5R7m7ESGQIG5ubyUlQCjggnrNQusNHu4L3WpSkUqBVRr7MQuuN0uscTIRqrFMiq1vHjhGCr00zu/hV13/wABuw0OlxOVSkk0EMbzZAoVzCbSmM8VJdzC5fAhVy3jRS97CV7xqlvh9QXhdHuanj2KqxwIBD7+TkFd7l+LSWKsjWJnyiwEY31oNsjKNvrjKwNE9tOGRQu0FJTxnPxPyvLUG+IFTCdpClK/oiZiFS2LelS+UJB2UdqOijfi8xHYhCiQ5dVqUrSPic49Pb2yn9vOWCOLAEYoHJSBV8jn4Q/64XV7cfzIEUxOjGH4+DHMzk6ip6sboWAA4UgIlkYR8/k8Dh48iquuuBq9vQMoVuv45n98h5EGODE1IfrTTS98EXKZjHgVY/EYdu15FP19Axgfn4A3EEJbWydcLuYqWuB2uWUikomN77xahctBL5qqEhEKe6UqBN8hgcrhdEopaGpl/J1mIdmYHmjaisfSWb1eK36J5cYIcnoAp3FCpUUoE0zL7NP1MYE0ThJaErby6qmYLj2/USLz+eYpwkv56TqsErCqAkQldrGZM6tS20TNbK5kpER6fas3mCWhFw4EUtY42rrbzhnwnM2JLlDQasAjoKUAx2JduJqJYketmBIFUAYvoUbZ5eUKTdfFTPXyJVAwlxJ9g6Yl3d0up0u+Y7oJBxo9RXzRHLzlMmNegFAoJPpHhUsqZbKYm5lFKp2QDs3vH7zvhzj5+G74HS4Rc3lbZCeEDT4JWUi+UhfwasCOUrUmsUs3vuxm9PcNoqu7S8RhmrROJwvZuVRogMcHC71Akq1fE3NMur6WnK1MupJiRdQ/xFGoA7vytwvYa+AlieGiaVkkQFMt46USvelBY9E9CdjUctEYApBKJCUmip+zfWjySe0qAVbGN6m/mU7DuCmyrfb2drm2S7xb6vwsmcyJQPI8ZeFWuwAYo9XTbEuHBaFASNJQGJeUmJnEyMwMkvNp3HT9i9Dd24/x6Vl8+etfR8jrx3wmCbfNjou27xBm1tvdLc/68MM74fP7pSBhMNoGfzAi74nvgwyQz89/aXKSmIb8HngoqlfL8AZ8EkTKhG6mILncbmHvdChwsVm2H5+V74POHzEntelBH4zLpQEZq2gsHrjCeLSIdTXRamEJGvPSwxAUaKnSQLoJqsrI0HQsqT4gqxKpEAnZR4/R0x2ckilCE0FN683od+2mLHz3mkVBVpi2xBHrip4N1pyzY58WoGW1tQTC5syiDUSd2lrqelqOVZi3vCiaddU8iuUyykXlAuaLTqZSSM4mkEyn4Ha6EGLgI0FGX+5Je6ENi1OK3FUqZRl07R0d8Ht9KOaLmJydxuNHDyM9Mw8PTZ5aCdMjh2Cr5GCzkoEoHYfMrFwqymARHahax1wqi2S+gGrDgkoNaOvowob1GxAOBcTVT8Dx+nxiirIaQrStU6LOKeLaHTYZ6Mrjo3QliaSuVVEoFiW/jvoMr+VwuMQ7xmh8nRlxwKkZlEzDBidZg8slHUrqY+VyoklxDEhlAABF0bdSGB8fF0AjYHFQez1exaTIQFluRhtcc/PzmJmZEUDjvnx9kiPocikxmfXkK2XUqxWJxSJQV2pVmQCq1SJikZjUey9XiqgWCrh7507YLHa88Nrr0Te4VuK1vvXf/y061nw6BQvBz2LFs5/zbGzZsBHziTkcOrQfhXwRg2vXS3qRLxAWZkHgDWj5iXznPrcLbocN5UIWxUwCTpcTazZtEtZL5lXnCkMC8gRqh7QHxXsCIN+DSgFSrMvohV4atBYWEFwMcKovt1YWUjN2q647Kb70a60ahA5Okqqt9QOClmZaNE1O5avRAlElOdpYRlw5DPRzqoMZx6ecBJQG+Eva2o54hwlayyIvzUNXLq0GubxEPV4LMkCZ9iAmXp0LKajKitWSYmUEDClXIvsxKDKBdDqDUrFMAUJijziopuaTyOfyIrBS7CUYcVHKurY0lVBvi008W/Ts+dwedHZ0yv5peq1mx7Hv8DHMT87A67ahLeBBYX4aAY8DPq1ueblWh8PlEY9WJpUQxwIjwMvVulTzLJbrmElkUbU6EQgFEWDk/GAfolEv1nR04djkBKKhCNri7Yh1sDZ6A7A74Q5EZOCwkJ5USBAdjqwwj/m5OUzNTAhrpB7jcfklHIBmjdvrg8vlFo1GRbTbJdDV5Q0IUNK7VsgVxf0v6zlysNbryCRTyGbzEjA6Pn5S2EkoGITP50fYF5Br0ZSzOZ3CXjOZDI4dOyZgRM9igNHyWhkWzv4gaDHYtFxAOpMSYLO7HJibnYHH60G5WEYsFhEmNHZiBA/v2QOP34crLr4UPV3t+PXDe3DPQ4/gudsuwcm5KViqNeTyOVx95ZV49mXPwtjYCI4fPygxe+vXb4XT54fbHRCv4sT4KCKhCEKhCLxeG2r5NAqphAx6p8OGjq4u+CNxuBkOwQh5n0e80WTyBH8J0pQocjX4WV2CJZ2NoTK6HLF0B285hvRKDTpYKS3eoFGJua9NwBK/ovgcJ27Gu+kezqpWHYLP0KiVWrF2zPqQGjzqvCIf8N6bJaiNWpqWG9lMDVKSCvM2ecdpSwyxOIH/qd8uSKZFj1xtbAwWO2ONGqjWKcQr8ZtBijQnirLQgUpQ5sAtFvLaenmc/ZTYywDGFJlDIgNxdDnsIiSn02lMzCWko3PgBnw+AQdqYYxUp4YlWlaNLvqK1G6KhYIIhyPKzMumMTY1geMnxzE5MQO3y4ot/T2IuRtw2a1wWbkYTV3MvzItW5sVsXBAsYxKRYCQzCudKWI6mcFMpgQLvWw2B/rawxjoC+PZmzZj54HH0BmOIh4Jwx1gmkoQc5kKLO4AQsEwQhGlMZClsANXyhXMzs9gdOyksC6f1wev06/iqhwuBMIEGp8yjxiZw2cPBBCKREU7KxbLKBTKKoeQAZZWandV5FJpTE3PYXp6EmPjI5iaYikarwRu+hwuMZVoZgajYfk9wwoQI8MSthBgio/VJmk2nEg47lNz80C1BmYOTU1NCYMpVVg3K4twJCqR8zwP721uZhp7HtsvoHXp9h2MJsLxsWk8dPAw+mIdODR8DNs2bsTBo0dw9XOuxLVXXoWTYyM4fHgfurv60NnVj0A4igYcEkFfLhfQ092LSjGPWiEFBk7SFCXo+PxByZW0uzywu92wu5xwelwyyKUuFRm0BIcSqBTjFX21mTbWGtBGprWcqahXh9DLLBu9espca0bZKXNeK4MsfV40LRX+wL6m/85kaW4M91Ge9VYZHfH2WpQnVN9aJWoWFr9UhSuU/kuzM4koYvHQU49YBNWxsbElouCe2nujyD354IOqYkK9jkKl0IzOTaYTIgwX2LFlFZaaMKpMISOMg+aOCNaNBkrFIhLZrLCEcrkOp8uDQlEVlZtOMPo5Jy+RelYkEISbOoVDCc/MOatpJWqpLbVF/LL+nojIpTRmprMiLDOEoVhIozvoQ2/EA7/HBa+LgXpWJDJ5VBjxTRCw1BELhxCPBJFJpYWRECTmUjlM8F4qNPGsiIeYpuLH1Vu34qHDh+Cz2rBxaAAOjxsDg4PYc+A4CjULgqysQO3HaZdQg7AvJFSeLHJ6Zk6EcJfTLsXvSnCgYXXA5faKuUmGRLORgjSF8a6OThGeK5WaJByLucPyxpLCUUNqPinnzGSSODE6LOYjzSzm7fW0d6BcrsgxnoBPyiSzo7P6AgeSAi27ABMBs1DMol6qIDE7i3KtKCyL56KMnEgm0NXdjfnZWXR3dcuAm52ewsnJCZTrVbSHoggHPJicz2Dnnv0IB8PI5nLYMjSEPQf247qrr8Hzr7lWQOvY8OOIhKOIxtrhD8YwOzOJ2ZlZrB/aBJfDgenJUTRKNKXLyhz3etEzuBa96zbA6fHB4/PL5CesROKrWlFtNFVVXJRyeughMksBlbLMTh1iugNF99gtBCwV1Eng4kK0eroZdUyqU2RUFZSUpkU9U/uM4MeQHQEtcbBYmrojP9OTpOm00jejx1AX55X+ySKK2n3Uykghimg8+NQCg3b1CxK0KsUidn3/vwQUSOkz5RwqtYoUkGNZ3XQmK9qL0+aRl1OuVCSdg+BFYGGaCTcCA5kW88kqpYrMoBzYZGDUUqiz8B3zJXkoxjuoWajZhYIyO4B4HW02+NxabBITfBkjU7XA47ShI+ZDe9SHrqBbCsxRHHY5gFIdSOeLSGaKsEhicRXVSgld0Q+EGJYAACAASURBVAhCQZ9EURcLJZRyBYzNJjGRzCNbqiHi96ArZMeGzhjGkxkUS2VceckGxNvj6O0bwN79jyOZK4rJ19HeiYdHRuCAA9vWrhU9JJvPY2yaKTcJ+FxW+IJeJNJljCeKovV5A0G4XGG5B9F0fD50d3Wiva1DQN3pcQsA8ZmFaRaLyKbTmJ2ZQzqTxuzctLQhgYa5iG1aYT56plibqqenWxwbqjKmRSYADnAvwwToda0XBLTIpkqVgmhD1MqYiMwwD8ZMZZMpqUpKIb2YyeFXux/BoWNH8Kwt29Df34eDR4/hsaOj4qQIB0PiBKBJe93VV2HLhg3Yu28PpqbGEAlGMDg4iFwhj5GRw6iWyxjsXwOfy41cNoNkal6cLAGfF7GOXjz3BS9GR/+ApIFxYIs5KFjVMukUJmiR6NLLJFBF/WMoh6ybebK3sba7xP1pkfNNc7BVOlkYVvOHaU4q3IcAJFHqYuaRaVEWUHH3Fc2kVIK75inXFv8lY10MUFKcRtPF5On0gOo6WaMeVkTNVPe815BsRBCJMVTkqd8uSNCi8PtfX/ySmGapXBbz2QSSqSJSmSJyuRJSqbTKB+MoVJENyJVKEvhIU8jNYEaLym+j2UENhjqYPgOpAD3lVdRfGAfqYsqs024CF6sE6PEtNPc8NId8LoSCLvTHg+hvD4ELvsS8PnhcNiRZwiWZQzLPvDReS5XcrdaKiEdCiAd8wgwZzDCfyuDYxBxmM2UJhOwJu9AVdCBXriNXruDyzb3YvH4NIrEOSQTOFMgObPC4XPjP+x/Exeu3YU1Pp5ROGR49iSPjU1Kfak13XATqZLGK/cemMZbJC3jEglEEQj5hOdSmBvp6sXHjVsSi7XB56N5XCb1ki9VCCdlMRgR4/pDBeTwqeJdmNrMAuD/Bp729E/F4mxTiczg9qqyLFjbCyPxygSk2dZSzeQkzoHnOc3LwVcp52FxO0ZCoLRK0SuUKCskkfvbI/SLsv+y6F0hU+rHRYfz6IVXJlAnUyVQSvV2duOo5VyAWDePBBx8UIBzs7UdXRxyp9DyKpbyYz+2xNsk8KJaKAgDsMw4r0NE/hBte+VoEYjFYHHaRJQxr7rTKJUsUwxLGiVre0LAtCl3QjtPTdcTcWxCapcBMwF4Py5FFKOhkIGAR/OgNVOdlfxLAkXQxJeCLA1GE+1bJGuUkUKCrnDYEPMXQdDBtZpuAJWyUo6bpnddSvRL1EMJRtZjIU71dkKBF8+lj7/0r0WXKtSrmkykkUjlk8yxsRtqsgEpfel29Pa1gmbh3IDlXMitVW6kPLEErcUuS2a5SJWgaiDjJagfaAp76LCTmkaYPSNyLnq9osyLMFY9dNnS0BRH12jDQziBECzoCnPmtsppytlRHulBFgUGZ5ZKEKtArw7ywaNAnLnRnowq304bRiTkMT6VRrBIQG+hv86NGgblSxaa+KC7ZtAbxeAdyxRJSBB+/H5Z6HUcTc9ixdiNS6YyYu8eGRzCbKyLk9yPqd2J0chpcu9RmC+EHuw6iUKkjzOXn/R5hRN1dHbh021ZceumzEA7FYJN4JZuQBtZorxXLSCUSYnaSNSWTLLrnQGdnp4DV7MyUgBdNxnpdxZWtWbMGoXBUTBO1qIJFVuNhpYh6oyjnZGgFXyKPjUYjmJ4ah5f6WiyC+bkkopEISqWyVEa98+d3i+D/vGdfKeEc9Nz+4v5HJRRBYotqFWxctxbbtmySNn501y651+72OCLhAIrFnOT8uR0uOCXavYZCIQev1yfMgjFuveu34nkvezXcgYBokLyOsYqGIdh9BaClg0ir1EwzJaaZ9tNYUFpIkS6tCioZqaTu0DysKDBk3S1Wb9ByIhVgqVI3UrBRY12MuOdkSObboHdz0WQsunC5ZAAtxRRlDFiUNcEfo7eZYy3ZoIZqqJD6FCLXBQlaifkkfuuW3xFGxc5T06oDSLIuXdCM0ZK8VC24UrLhVbFYefkaW5cXoRUNZAfgKsSKbdlgozlSV3XENVLdnHnEc0hxm9K5Ru25yIV0EJqPlhqCviAiIS8uWduDQimFzrAXPq8L3eEo/F4vsuW8LOTAoNJymSYpS4VUEQ6EJDxiZm5WvIUOVjbwuUWcH51KYHw+Kx2wjeam3SZ6XF97CJv727B+aEDy8FKprFQKZcmVhsOOgMeP2XmWNi5KoTthOi6XuP6PT8/B63RhTfcA9o9N4OhUDnPJHLLlCrxuN3Zs3YwbrroKQ0N087NTMn5LBcQScMhoM+m0lH9hsjPZCsu19Pb0KP2KaTepLPL5EubnZgXEyGrXbhxCX88A7A63VNSoFHOYGBuRqpoEDrY7g1hV1oBNFlylJy4Wb1OpWoAEd86Mj+DBhx/Cpg0b0d+/DtlcEgcPHcEDu3fL/XvdHjidFly0ZSMq5TpmU0kkExkEfE6sXzsgrJtOlanpSXGk0Avs8bg1L3RVxH/qftufcx02PetKCSA1aj5ad2oCDEFBYqI0kDGWVtMr0MpXsn6gCoJYYIqJaaaOl/6q10cTT5OglQSJyj7UQtkPpZwMK+KWRQqpaI4ph10LiLWpIgKiQWnmqvythbqoW23Vsi9r3nfxwBsWe5HAbJa5oakvhQX1Cb2BZD2MYMT7FEJV69IXKGgl8LqXvxHpVGZBY+szQJPxaGksQpf1GcxgowtAabOIdB4tdEKnyy0Bla9adaSmF4YszKIWA5AfyvJkIPTWWMrwOP0IB1y4autaWC0VuK11uFxWDHX3SaxVlekt2TwyBcWyCkU6A/Jwu70svoT5BPP6ChLM6HFaZbHR2UQSE3MplJnfJ/mHBFYg6LRjsN2P/p42WWSTDh3mz8U72hEIsAqnF3MpLfizWEI8FkO6kMcYqzNULaLl0DsqCxc4vWKyTiXy4hEbGlqPSy++DLH2Lom8JyMypvqIOcG8wmxK2JY4PbJZAazu7m4p31IpM+mZlU0LmJwcx6EjB0Rn2bbtIgz0D8JqdaGYT2FqfFRCHfR8RO7PNqWjQxanEKC0CRhTyGfi8vTkCTENN2zYgPb2XoyOHcP9Ox9EqpATs4nlbsJhHzavH8T+A8cwMTONNX0D6O6IoiPeJmxPDXhVZI8aXjBAp4pbtE6CMc2ujRc/F9uvulY8hioYV5ce1AyoF19UFRw04CKjMYjsTcFdK/CndC0FGHq4gTFAlJ/rfVDCKHTQYlCopn3ZNHOQ74AabKFSlnAHHue2M62MuVQt51OzGr2kFRlKihtSg+htFgFfyjtri9lqOrCyOlgWsxW8bbXQexhBKGJqWsuidmI+gde/8rfE26M8gc0yRdKpBYy04n8CMguWVNKivzU7Xi0RpliZDlo8hrM7Y75UCkZrMU0jaDETXwctYw32qqUCh9UJn9uOLes6sW2gB26K87YaQg4Perq74PB5kStWUKzUJUSjXCmhVMoJm+gNh3FsZATZShl2C8XurETg89qsgECzmOES6UJNEsF9Ngs6Q14EvQwGpbeTK9hURa+h+56BnjOz0yKOEwC6unowNTeLNKPbM3lpPH8oBGvDIXl7dsZquYLwhuPwh9sQaoszHgSpXF46Kz2wTjoltCoMUomhmJPzq7SmqoRNrFs3hHKxgqPHDkmplFioTcq2DI8cw74Dh5ErZCQGbnDtOkSDQUl9smuBjdSyPFoiNYEkkUoIE+L7pROEZg0zEO771T3ieNm8aSOG1m7G8MghPPzwLsxnUiIV2GFFZ1sYG9YP4q5f7pT7ufKKHYqFeejwqAtwcYUegrsSphuSZ0gGky+WkEnNoa2rDwNbLkW4o6sVKqDpO4o5qU2X5JteP0MvbklUKp5KX2VajzaXYw0TrWL9WiVZUTgasEgwJ01DpXFJ5QlOlNWqrOtYrFVQJaharLKCt11LY5NxopWCbIHn0qDFCUIBKdN71MSse9z1x2FtMH3yoq5G0IrEAibTWq4FaB7+xsvfhLk5BmRqeVdaZQcu267s79a6cvqCFvrLEk+Lnhun6VB8KfS4cFOxJ+pFCYBpCcaSGK0tzcRzsZqB0hYYZFdu9lqupcg8R65Y7LLVcNH6PmzqiSPgt4t7P+DzSxmYdL6ATL6IuXml+YhpCyvWdQQRCAfw+PGTiIZDYiJSN1KVMcsCWhyOyWxeQI+LkfqcVgR9TridDfillEoVPdEgurs7YHe6JJQgnSb42dHZ2Y18qSzpSgSsZC4vZoDN4oTN5YPD7YXHE4DNFYDF4UG0qxP1hhUnx6eQZTiJaG4hMQEp3JMplspFiY2TonhajfGO9g4Jn2CAKE1Dh92NWDSCaq2C4eFj2L9/D5LJeZl0wuEANm3Yio3rNwooSankqWnMzM5iy+bNUk45qnkwGSnPQcp9vvW9O1Cs1PC8q67EJdsvxa7dj2DP/v2YTc4jHPAjHgph04Y1CIeD+PHPfoloKIi1/Z2SAcGwDrvTDgcXknV5EIu1SZCtVNvme5aUHLLZkiwy64l0oWfdkNSQl4BXh0M80TJR6mkvBpNO8+VpZR5UCW990zIBBVjZHk1NSyshJMn/zCelOUYNjQDGopDSN5VJqDZtUqZHu1JGieyIoGtzCPCKZ1HMOH3vlimoFrzQQjP0MjPN6qg6FKtimKrGmu7Z1D2QaiVEMtEkYoi2mSEPp2FaSbzu5t/E/FyiyXR0k9BqWGhQZ0G6aCgUXDoDCUorF1GFLVhloQKdquuLWujn0DUBma20ov+sMKmSgRkGwWoO2uIA1qowI17DZQGiMRe293WirzOMgNcjJVI4JbNeOT2DDCIVT2apCKvThoC9jh0b12JmPo1kKo1YNIRapSwpOLwWcxsLXB9QcgmBQqmspSbV4XfalAZWraE34kVHPMIaGHLP1L/ILuJtqjInMwPy5RKmZxOQekqSBO5AmV5Lh1+KE7bFe9DR2YXJ2QSOjY5heHISLq8HnczX87gRj8YQDYXgdNtQqdYkfo35l7p5wYBXpvNIziQz9KQ+WBXF9BweP3hQtV0DKFcK8Hr82LJlu+zLyP256VnxRoYjYYRCXklKZ/pMOZ+TqHr+TM5M4IFd+3HFJTtw0eYduOtn92D45AmU6yW0hYLoibfh4u1bUapUcN/OB9DdGZUaWozuJ/DwnQl7K9KDrICALI5OGb/bKSDrC3rg8YVh94Thi0bhDUSkCgUnEUb002FCj5qI1IxxatZeU9xG9SGC1sL4J2UF8LoqH1DXtqQ/ElBgl0nGamcgKF3LdVhkklThDAIrUpZbpe8wMLpC8GGpHIcSzVWfNAwlQ603vZKFgr5WpH3TJBXmuDAkoql9UcOlE4CLe9QbSKEN0XYzIn71oKWmo9ZspmkCesdUnUGrga6XWNZXfOb6ehrT4n56BjuP1UFK74z63+J91lzDUpnSAFr8nSYUg0thqSDgADYN9qI7GkJvLAyX04ZsoYh8sYJMTjELsijWeuI9xv1OrOnrwvjkDJLpHKLRgCyGQZAUDw9zJes1CWsoMlq8WkMynYfXZkfYzwFeRU/EjUjYh1y5KiZDIV8WYGiPhuD1MNnaiky+jPlkTgoS5is1qU2VLzHmrQaHm4GmEQG6x0ZGkMwXZWHPUr2KvninROL3dHSqaucEamYUlMvweHwCPJI2ND8vFVk3bd4Cvz8g987Cf5VsBqMnR8Wc5IBpj3chkZyVODqmF9E8lGXvczkMrVuHaKwNM5PjOHbkoBQD5IRA85Cm4X/++B5c/ezLsaZ3EHfdczfGpyfhDzjREQ1jsLsLA90DmEnM49jIUQSDPmEffIc0c5nsTfBi4G4ioVbu8fl98HjdiPi98LhdCEcDsDp8qDacsLk9cPvDEiPGtmcOKPNHmZPIzAgK9ZKMrrMbLe1LrV5hAC0tmlzSzmoqmV2fAPV+SuZLRwT7oo2VTDjpsnAfK3ZoIQ01mwItTgjUJGXxCbIzRuhr4jssxnUV1WStljhrLUJrBK0FKUeNVqiPcXENKSQpJZ3LXM0XSUsc0Y6IaR4ubx4m8JqXvkkqUza9K9qMQkFc33RxU589dc8HKXmT0htDGfR67JomprQtVVpFAZJVWyxTXwCgJc5zxlPmJLUKMh9Ob3UEwz74PHbEvR4MdscQ87qxrrtdzLh8oYh0rojpVB7JZEr0EKeDZWBsUl2yze+UMIbxiWmUyiW0xUIykMnI6IErFIoIBXwSr5YtVTCXyku6TizglSW9YkEuDe9AsVyF1eFCTYID7cKQGDzKQTeXzGB8JolCuYZsqYqaxY5KlQnLNYSjTEy2A04XxuaTmM3kkM8XVdJw/wAYrBD2+7Cmvw/0nOcyKTERqWdxMdVoJCZMiWEQ7e0duOjiS6ReFJOnqVcl5makLpckKfvCMuGMj9OLx8U9PBIAyzpcl192uQR5PvLw/Tiwfx9CsQA2bd4Gv8uFE+Nz+M+f/Ai/+ZrXIF8oC9NitHjM60S8LYjB3jVSnWr/0aN8DAl2JcuSfEBtkmHuKb2b4VBEzFuGQLTFIiLIh8kU/V5YbC7ULG5YbG5xoqh3RS8nq4AQvLziIGCoidNN4VsLk9EqKUjVT4keaFVgZJ4rQbvAlXEYlMxFW5uBo5w4qTHaxAS1E6TI5hlPWCmKqWaVDA21+ISI/1ybUgBLFcLk5CcuIgnlESNPKpNImImsGG7QtJpMSyuBohufhiX5GGevmJaqwsoqHPT2MuQiaW1HtDNmgtbpQOvWl7xRQEvZ20q/UiWAWrn0ajbRNC+LqiQpno9mhWXVgYwuZ/2aTTBs1gzSo3+1sh+Sf6c8T2LiGMCS5TzUwjZ1BAJe9HfGEXUzj8+FeMCL7rAffqdaZYW61OR8XnQl0myaqPQMMmWoXiqgIx6VgZNJpYShcCuXFSvjyjc+rs5MfYclbVIZFCtVtAe8sFuqCAVYZUFpHky7oHhfqtSEBXGdPxaxK1WqSOarsnCquOtt1M3qyJVU9j4BoFy3IF2sIJkroc4UFSk940A8FkU8GhLtqIN6kK2BXCqFRGJOEo7bO7rEhOL9kXVt2bodG7dsg0Xis2xS/mduahITJ07K96xkygF4+PBhrFkzCLvVKiwoFotidmYC99xzj5S1Wb95Ey694mqkpyfxi/sfwLHho7j5phfiF/c/hNHRUSlBUyvm8OyLtyAe7cDOvbtwfGQU11x+CQJet2hRYmbT61nIi4nndLqlYodabsyF3p5uVa3C4xYGZXW6YXfSZLZJvS7RnBqsNKF0UPYtKf/c2YFwNKrkBy17Qvog4VqSqJVnUcRzJtuL168kC8zSWcFwBvYL6qfSzmRwDM6lnFShN7mEBkHO6hQz3elyoGFXoMVihmpi5mIWWrUOZaC2hpIwN7VauJQy0oBbHye6PNKa+FuHEvz0/fRKuDKx1+tICWiZ9bROYx4qpkVBvtmITTreAq1m1K6hthapNgv6Ke+OcjkvtfF7HfSkExnSGlpAyCBLFTXPztb0yrAqpJRYrkt+XyTkkYBQaiXrOqPY0BFGZ5jlXixIpPMYm0thNp1HKq8CTR0Wq8yuXGHZ57WjryOGaDgoqUkEK1bOpGlIBsNlrJjgStNgJpmRNKbOMPP56gj63WDZHkX3HShVmefYEA8ik5TtnGntdmTLDYkXK7EUTKkqrCtdUB46CQWw2FCq2zCdSMPl9sjzKg9mBZFQAOsGBiS6nEGwfrdLUnuYzuPxuKS4XpzeR5lRrNhx6WX/P3tvFiRZel6Hndxv7vtSe1VX9/QMumcwWAkSG0GQACRAsh00CVMgFaRkihRoiqSgoBkh2uHQgyUyJIctKfzkcDiCYdm0ZCtIkBQpkSIIAhgAnAEwMz09vVZ37VW5bzczb95cHOf891YX6ZjRm4WHrojGNKq6srIy7/3+7zvfWVBZXZOgmF5YTOc5ePgIR0fHqNYq2L6yg9dee1X2QB/90Ec1YvN5vPLyS/jKV76ClZVV/MCnPoNSbQP79+7gf/mN/xXbtRq2djbwh3/ypyKEshNdXyviQy++iFt39/CNV1/F9e1VrK+sqAgxzILbVW5sKcXhe0ssTkVsNEK1UhZlg1Y5HA/pfLEkFocIBvYELn3/qQZgdJhDux8aPS5VLFfXVkWsJbGVH4bUabSJMqL0tt2zqQt3PIbrTDB3R9qcsmipK/LcM9g18Tmw8JOlv3Qnxtt9GUAklkAyk0XYMm4bch6dm+WRrvug8UIzlr2XQC2B8yYt/HLR0oTgTRqXRdK+xlH3y6WixYWXD40EFyFZ0zwtWm/TaLJY/ehnfhytZltvEDd6Eo3SYZSbPrP+ueBN+a0xL6w/X7T4T42eSheYh4EZYN0o3n3phP9GsoAZAz2eahylDItecJrvi76gZnGJaDSMFIMqkhFk4xFkk3Gs5NLYKMRQy1oiMpKrddDq4vCsg7bN1OIlljMXIQKqASAaXmA1F0ehkEU6k9f4ZdsDhEIm9GE8HCEsYD+IRqunMZEwWiFFk8CAWPnC2KnD5O/KjeeMIRkh3XSIWBhzKgmGZdFD1wlH4D7Z+UFJaejyYDs8/SHHUOJj7Nrq6nSXGA4HEldfu7qLdDKObJxs+hDq9VNYsThWKisqXMRaVmqr2L52Hcl8Du2zE7TPT+GMp/j2t7+FUDiIaq2G1UoF//tv/l/49Kc/jfVaVdrG3/uD30Gj0cSHv/8H8KEf/BT63T5e/+Y38K/+zW/jEx/8KLrDLm69cUcLimg0hE988Hm0uy7+/UvfxAu7W1iv5WC7U8QiFtIJbkVpLjiUZbQ9HKqYaUkTDKKQz8l1gmMuw1mNDTQ72iUOT84wcuayJeIyjZgYZUIk1RILq1arKJeqHpue2QQs1SHJx6KePpWHlTuZYjKy4Tgjk47DLot4JaPGvNGO2z9uoNnVqmjNXG2y6dEVS+WRzOYVIGvcaMkJe4KrEoyXRpRFzHeZ4GUuY0KOiCxovmUyJxV/4mBn7jsBG6a9L+9h2CydTnW1C6vzR8Ug+sEqCrXK0/HwrcfDJ0VLxcZjuNOULSRm+p/PlLu8AdR4qH/vUSO8rY9fsC4oDN7Y53dYpmiRRWyeldwofWHrRcEzhY8aQxZT6uMy6ThSsRAyVgjlTAzFTBqJsINaMY3VQgX90RD7zQ6Ozto4aY4EzNPxIRGLIJe0EAnywjA3Iq85nZ5MXgnMtT0km34xW4pfxJuqObQRCy1Ry2eBoKMCwgs9EqWZXUQM8XAwIqBe3WQkigXCCEVj6LNjCIYxHFMPGcaUlizhCGLxFMYTVwWhN+ICICAAnO6VpDlyqGl2e3pulVIJm2srsidOWFH0Oi1EAgEUcjk5SGQTWaxsbSNbKSMRDuPh3btaSNAhot/vIpNI49nda7h19038i9/9A/z0T3wOtUQU/+f//S+xsbWDT/ylv4JibQXDbhv/6v/4F9g7PsQH3/t+vP7mbW3/zjs9pK0QPvqBd+KLf/QSrl/ZwrPba6JOFEpF5NI5kWAnitiai/FOF4piPqNOh9cH3zeaP5K3RYcPpkRzpKbP2dHZuba+Y5cFwoxitBEidsdOjcJ6jsbJJANnab0cRiKRQdxKKHzW0HFo003RPWPJxrLI5tjHwmWYqoZnSI4VDycyKnwyJ58b8bNktohktqCCxq5VCKqHXYnOw3vBo2Ncnjgo3RGjPWzS1C+PgaZz4sH5pGipgfM0iSxaFxvOC3zLwC8MtijWnnrEv814aCgPrUZLYmO6JPjcLLJz+cE37nLaiD7nJaQQa9Ab50Vd+Z0VH8PfzvkjoY95+RtDnmD8MOx3U8jUkCnOzOgWaYnDr0tbFw6KQ1VMWSjmk0hFoqjko9gsJ3BtfVPuqPdOaK/ComWjb5PvZaxqEsEAqqU80ilLOJFY4RwN5zPEhUc5Ggn4HHjiU5RMEXNw6SLHEdAKIE+3hngUViyMZCyOEl1YLcujS5Dzw6VWCOEodXoUIbKIheBOiWXNpWU86wzlLzZw6KfFmz2EwXAkUJ84GO19GsMJkum0iZ/PpLFaLckdIZdIwO63tZxIZ7NYL6+iUK2h3miiVCjrZr5z745oENyiRQNBYXib5RX89pe/hDfuH+Bn/9oP4/hwD1WqCbZ2EI0m0G438Hu/90VtCm9cvY7TZh19e6wMv1LKAmJhNE7r+OSHP4wHjx+KjnF1Z0evXb3ZRKPbFlOfSwyOyxsrVTlI8IMdEEeydDolugaxPxaw3sDGebOFyWwpbhitt43g2NhmU8FAZQPpCrTD5naSIH6xWEUqldFWVZu7YFgdNakO7KzmdAyZTlQ0dTD6xM4FMwam0kKKAhFinBm3q2kRbXP5vBYWhtLDw3uucVcHm9dpXWgENTKq5TbuquKWXZJ803bcXwJcLKQoh/NIpl7OgA+B8Ki6oD8I06qiUK0+7bTeutPq4Ec+8zm0m22DTSnG3fiai8l8Wf7gPYi6FIYP6M0yoZpskbmFMwkmhqUsjy56V3khq5rpZQppsCt/DOTD8kTiz1LXxe0hDdR4klF6QqPBGQ3zAkjFowoRoCdVMhLE7loe77lawTNbW+pu7uwf4LjRx3GDuNZUz4lE00zMQnjuoFpIIJ1O4rjeUIiqqAXuVNskdlv0dqI2kVKOeDKOaBBIW8RjSH+IIZNKIp2x5JVO6QrHVDokcFUuP/kQR5AYPRMRTaSFkQx7bdEgBhRg2xO0+n15fy3dAG4/eIRYMoM+dXnxBI7PWzho9VW8WENp7XLzxjuwu70tl4pkKsoyiNl4imw6h+fecQPZTBF//KU/kXEheWMvv/KyHCQCS0dOC1dX15HJJPC//T+/q7Hqo++9gVyxpIWDOw3i5PQI9UZd+FU8SvpGBK/du4uFu8BOtYqH52f41Ec/qOSeL/6bf4cXnr+Ja7ubOqhee/0NdefT+VIi8pVqBZvr69rctftdDPo9XUe0t05YMcWV0YL59OwcjXYbwYglh9jJyBBpTcAqlRkBYWI0nGTXx0ISjXMDvIZMmjSTpAjJ7HoDdMllVzPj+2b+sDjJMpmuDhwVJwAAIABJREFUFtQRTs2m2PfM5yFIETstgnLZlLzOkvHEhVUQQftEkp71UZM56RU6XqsXgLsKlTlciUtdLJy8BYDY+SZaw3RiNBAU+54NvhkNjUnAE5cKHujdQOVp0Xq7kk0Zz3/+6R9Dq9m6+Ge+fOdyK+x/UaebMCivI6PLg6duZ2HxNybsZHTaSIvmAeyyVb705l5i6i2WBn8QYB8Kym8rrosyCisSFodF62i6m4ZpzBdHJZvASj6OZ1apfSuo4zuu13Hv4AyHjRFafXOh8jnFgyEVuYQVRMqKIJFK4rzREW7Fy4cbnEiYJ7f5vYircMOYSlhIRkNIxgwmUsgmUc4nEE+wa4ihmE6K/0SQm6d7JBzRzUbsJZXNaawZDmzEU1nYEz4XEiDn6PR6mLhLnDe6sJJZtPpdbdK6gzGanTE69lhWOb3hQF0m/bxuPHcdywhQy+eQloJggWqlgt2rz6l7vHvvTZzV63psisTf/fw1dapkzX7qYz+A2w/28Bu/9dv463/1B1Fb3cCb9x/ivE6fq6nZ7ikBydLrxc2fO5+j2aGcyMF/9pd+CG8+eIw7t+7hk5/4ONY3ymg0Orh9+46KtDzWXFfdbLVS0kF2dH6G4+NTjYgr5QJq1SoKBeNIUW+SMzfUBpXLiZkndGfXROfXZCJjvNYcRwD9ZGzDnU2RThnxeiqZQjQSVxAJ7aNNh0+CsBnVRRj1MiL5fXOPv8WDiTbhsvhh0DBpC2ESSM12le8jgX8K4XN5ak0tRES7MARnn/jqF6+L+yLoE1/NteQTXP0DWjwvg/YajSRla5c2kSp4nhGgKVpPx8O3GQ87+NG/8jlpDy9v+fzNiW+lIT6JR6RTB+TRF3jC+P+WRcsnkLJoXbxxc3MS6i0j0Hlpe3jxxAIMJjUUAGI7WtEHQiapxbKQz6aQSsQQj4bFUs+mLRSyaVSKWaQZShqiyS+tdVp4eNLCnccN1HtjOY1y5c2uJoQFElYAhVQEaZFGAzhqtNEejqULY0cQDUEXL09pklbJ5E7GIxIMc1iOxyJ4bqsony5un4iDsQjxe2n/bHyjXI0CuXRSOA7HLHK7BvZIn89mshjzRpxBBWZIA8X+EEMKvpdBPDpto88VfigiwJ4s8UHf1ih15foVPLO9he1qTeMNR52NtQ0tFMYTG6+/cRvfevXbsoV+x86meE6NVgN/+3Ofxev3HuE3f+f38Qs/9VlkckX83r/9Q/RpvUO8KRZFNp7E9uaWvpeqgfNuC1//zit41/XrePbqLv71H3wJK8Uivv8jH9TNyy0l7W5YPI/PG6IUcIQmFYLP+aF87usoUfBdLWJrY0PCb5JmR5MpZougfufeYKiCT8oEu9ZQOIZslrbUJr2cvDr+fu1OXR0UyaiZdB7xeAqJZFr6TsPrIzbmSWt4QE6NtxsLx9yHHEhYUXy9WQCRJjEac5M80kjI652LkEwqjXI5j3QmjVQmK6KuQPwIgzae0BvM9Ut7Gr9bMvIgPzNRlsyXxJRiyAtGMPFm2pZL2fDk+58Wrf/AZNztdPG5//QncHZWv4hIMniVwXtIzjQbQb7AphX29YZ89Ul5MJgU3xlT2OT77nkR8YZmq09cy/BqnnC5/EJo8hW9XEAvYIMXVCQYRCweVx6gFQ2jlKSOLyjOVC5BjRujvoKIBBbYXilgs5TXKvngrIV7Bw3cPWqh2e1LasRVsnIS4CKbCKn4kbZguwvUezbsCTd81M4Z21xSIQjCc2vJDiQQimA84QizRDln4dm1HNbLBdw/qsvltZi2pPQfjx2Z5REULvIGjkcRj8RkvUPqQT5loVahTfIC53JLdeDMqIGcolxdwcSZ4/y8i4Hj4rTVRZ3Fyp3BmS+QTOfRswcqDB9457vxzO4VA4hn8phNx2g16zg8PMa3X/u2vNFEjA2FYTsj/OgPfgi/+yd/hnZviF/6Wz+O82YbX/7a1wVyk/dEou16sSqqATd3PbuDx48fSyHw/ne/C/fv3sebe0f4+Pd/BGu1CtqtNh7uPZRpIW2Njht1uO5SMimKqtlVMb2HHTwTf67srKtg+aTT6XSOcCyFkTtDs9GQ59ZkMsbEcZnF4SkB2OmkhY12ex00micYjwficbHjoi9/zEoiGLYEoMvuRURXWoMbgz9jl0s0nttwU3CoJdRoxlyBCX3L2rDtPkZTW0sVThLsoqmx5NhIK2mOt+lUEklahTNujoWL5GUPhzXqbjP6EQfVZpAHvWgVhmkvGxHfukYmBB4vMmy6W78AdgNV5J92Wm9duZix91/+6E/i6KSOqUvPnyebQBYp/8PvrCSDuLRJIctY+JSHfUlKslhg6mnAjCWHkXqYN8z8W/PHsOn1h55bF9FL5qfKSkXxUQaIZ/xUPh3HWiWPUi6lBOk+aQRWBNc2Clgv5JClwNmdY+/4HPeOzvHGwyM0elMVLhYMBmFwT8elA7sabq9mASMDog6RnlDEOoh1sZMyoZsB2Q37m59IKIpkjJyvkm4K+mtVs3F03bnIpFkrjdliisByJtoCx1lB/HMXN7ar6uZo0sfwj0Q0KhwpEk/KgZR+WdMFJMK2x1P0hnRkHaPZt3HcGWIyn8Nip5FM4ntuvAPveucLKOTLJjxiOka308L+wQGOaPQXMZ0MH+eF53bx5Vduo5xN4nM//Bns7R/gTJFsBjCnE2sulUYum9PBdHT8UDY1dGzY2FjD0dEJioUyVlfX4bj0EnskeRADMVhU9g8PYY/5ei1RLeZQLpV0cEVDURFnV9dqKBRK4qZR58jnlEgXEIpaokpwM8rPU4JFdQKLSyZbQCKV0+tOf7Fmsy5XVGJAMZoMSu/I7R7j2/jfEIIR8rD8z5triKMdI95MfiSnBHNwMtfAsfuy5iHVZCIfexYcEy7Ma56JRZl0AqV8VuG0aaUL5TQBRGLGkZYdpneZGHffBbM7jeMcdY5mHDSicROtx7vskkQuaIjO/kcvWEO+tvofaDf+//nyd6WfFovWz/zYT+H49BwjSk/mpmj5yeNPhKLG7YE3nxEwh4TfyJXUOz3ETCaOoE6LIDgTfIQYXbS/vMie0Bue+Dr5ljW++d/FKOptD1W4whEkokFUC2ms10rIZhLIZiysVVdQykaRI38ntJCHebvbxXn9HG/uneL+aR+n7SFm7gT5ZAKZVELs9cHI0bp9xARrUg5mbOtnurHMcsHEHBDboXuAtqo6WZlIHRS7moWQTgr06GIgBLlbccpUqNuc01ZHq1a9RsHl0nC+wky9DiIRnmG9mEc5kwJzH1k8Hx0dIxKJK2KLXKFCuYChPUF/MMZhq4fDJs0L+5iHQri6tYaPf+B7sbN1VVIlu9/FfDFBr92RRQ+xqHNmTg5G6A77wqvWa2W8/8UbRhPpcmyeCXN69OgRCjmGrIYV5upMB8J3hiMbu9tr0vpZcQq1I3KamDg2uh2G53qOneLcLRBlElEqq0LDAkTQvFaroljKCvRmA0SpEfWYLFpMpGbXQu8vfp60CT4+PxgJl0zldb2wo+t023Cmtt4jSqANHYeRuub11egVJi7F8dR0QyL/RvmHn6OUh6Pd0kiMxiOM+l0VLY6fznR0kW3JwuXnZ0biMWQpLUonJBCnJIki71Qqh0w6rc0oH58HHV18A6RW6LoNwkSwe3xHJVIb3/nLCdN63t4Hv94N1lB4WrTevtP66R/5nE5dcopMJ+RvEE1enwh6Hobli1dZRPQ1vR/+anmhN1rFaskCSFyLgLzP5TIEPAM6cpryC6Tx2/WBf/NsTd4dPaF4sfldPsdRJpIGwjEl9uZSUWxVS9guZ7BeSGG7mkMouBQmwxug2RngtGXjsDnG/skZus5YxY9ETd609LUiZwpBI9JlMebNZrZCxtJYF5Uf7a70FFruzuQaFib+tWT6kCU+GFUp9Lifzg3bPm5FMBkxM9JgZXy9OO6yYyVv7EoljWc2VtDoMpEoAHs0QimbI8tA2slIIoGpPdEIGguH4CCERn+Ex6fnaI9svOc978XHPvQDsMJh7N19E3f2Xkc8ainMIkBALBhGhxKlVBzP7O5qzM4Xi/K2isTjmE1msEJB3L17G/ZoCns4VmdYrOURmlOmFMfayoqSlWic6DgLdUbuYiJOFAFvGgiSR8YgDR56oaClYsHrg3SCcqWCTDalG7rXG+DNu3cwGE/URZHlXyyVlHTNxCS+Z602N5m06JkiFkvKDogaR/K3WCydyVjYlh+GwVAUknzlNDpfqmNNJFKwkoZmwYJiCpfvyW+uUxJhGVFHNYQ97IucquuTh++cG0dy7AwxmR0TydbxeESmhuwwU9wos/PK5JDJ5DWu0kk3miAZ2VIHRiE9lRKsq/Sel42OnCSe3JNqBbzxkPADMa0cE8O/Cz6+KzsthoN+4Sf/Bg5Pm5K+TMkxUcfh8Vn8jZ5vVctuQ2oHzz7E48L4xcgH32kze+HaQAKS93FxqrBOhZ9sEi93dL64mjd2LGLilaQd8zzVvZom8isTpxmCWsvEsJaL4tmVtFwm+cFV98CeyTm0N3TQG09RtyeyUSZ+RfC9zbQhh3Ym3IJGRVr08QXfLYCWJjxFRaLVxWZGB7kbeOZ6JlDUFHB+jYXP34bye1R453NhXOxsuGHkZrKcSwlfG46mirSvFIvAcgpCNBaDLximy41mLIrBgI6sTM8ml2yK9niKTHUNf/nTn5UEyR1P8KUvfVH4EB+fFsg8NPg8drY2cHx8jnKpht3r1+VgQECb29hh/Qy33vgWTs7aGA4oNXKRz8Wxs7GNrm2jP6RExsRo0R2WMp0AZnh2d0s8MPKw6NlPgme9TmxrIT8tjpZ0e83nC9q2yrbGnuDWvTdx99Ej3bjV8hpWV/lnHbFoQmNqo3km+sTYtg1EkEiJnuJw1OXnxzbmczNC8r1isTJuHRONnaTfUPGQzGURt9IqWHz9WUj9xBz9W/2MAQbDrjqt6Yj5njwvuYnkxtGEU/Bn+FMDszr5RrMLTVthdfv5LGkwGRQyOeSZWJSio4dx5+AihLSMIL3GlFTuaXtDJmncv5Z98Tfnku6yqFzL74aP78qiNez18D/80s/i+LQp3VxnNFXHNXZcbdfU/VBlL+6M1w3JHNB4ZhO09B0gtAnxtiB/vmhdZtVfAtwDZuTix2VWvD8a8nPsWvzFAH265T8vWZAZDFigOGoxpeeZtRyuVTMqZj4/p9Mf47Rpo6Xt2wy2AyXvDKYkGwLj2RzDyRgzVzRBiWZ9oSyfl6LPNPoYxrYBWw0RUvQMLCUSNlQPk4jDC9wUTcM9IyNcHDQSGmMxXcz0DGOoLLtQdle0gWYYRCqekOaRrqRcw5eSSaRicYxmLBYOcokoYjyyaXvjupgFAti4elNjFDsXbje/8tUvIRh08d6bz4uUyedJbtg3v/EyPvrRj2Pn6nWkc1mErCgW4wFaB49x78EtPHi4h3rLwWmzgZu7u7h3fIzWcCBJDGVS5XwB8yUtq8NYrRRwbWdL7gzqPJdT9Pq0tR5pq1cqleUwEWdikhU3xn4Udg9sPDzYx91He3K5yOfKWF/fwPr6JtKpvLhanU5DIyo9z+T8kEiJIsD8Aj7+aDTEZDIwB8eCtAhTYKglZYQZ9YDJdE7SHCvG0c10fX7R4nuhTov6U2cil1tnMsSU21sP0yI59/KWm38XifWCWkF3Bm6ToaSoTMZCKZdDkd74qYzkSuzGolYCESuKWJws/vjFdcPO3mwwA5hz2eUddiIYLwpIZ556xL9l0eZM/xv/zefR7TKdZonheI798zEOO7T5mJiLbRGEcdUw8zlz8/yOgtQEMzpy3AuoTdcJ5Wur5Irw5w3bTAEgVkRuluFGqZNRF8P1sQH7uWLmeprgpagDIGbGROqZWnZSDMifysQjuLpewPM7Zbxjs6YRjFl7vUEfrY6NztBBezgStjNb0up4inNSDJTg42jFT3CdP9eAtRx1uCTgGLgUaM+L3IyvFEmT4GlY0fyaKbhmW8Tf3azfzenMz3EcJe+LoC4tbHjaC0Tm6+K7WDCpiN5005mKEQXiWSZtx1NaDrS7HZ3s1FkmwpCEyF1MMRz2kM9mMJouEUlksLHzPDqdOmKJKLYrFRklkom/d3SCRruDD33gwyhWi4inMwhGQuifnsAd9nF09BB7ew/w9dcPZNNiheJojvp6HYjF9fs92cZsrWTx7M4mNle4aSyLUsJMxna7JVI4fb4YN8ZEbNIEiGHy91doynyGTquD2/cfyASRxWN9dVN5ibTbiSeyEqyPR8x+bGA46EsYToUBFQP8uwn3pf1N3yx8aEczJhbFtPKpOF3ERaOxpEi7HC8FwtN9glhlmEZ8CxVAjpmk6XAUVIITQ30dOsY6EoAbvpck2l6Qi6G96Ge5PPQoul4gQmfd6FKAfTGbQ7GQkvU18S6Lv1MsingyAStu/PJZPJcKIQka2RCvPd0THCOD6CzYoV7qxP4jtlzflZ3WeNDDb/6Dn8d0NBRezJvuwckYr524aLN9JhvZXRBFvoglJy3A70bITLrAtDxynE4lGqypiWL3ddn+wYxRptCZG9zHzfz3hlwuUzwiKg7SIHo6QV5QfI6RqCVKQjmbwHo5i2sbeTy7nsPWSkWcqtGgK6dSMtAddyEu1mmrj+7I1UVC0fLjeg/toYOlsCuPOOh1jrxoRdHwRgT+TnxOsrtRFmNU9IapjPhiOuVZoDQSq6uKmELnBTMQBOefaIg3YQQzdy7siWRHpmJTNO0TJGmgyBtd2Amju5ZQoSSGVCmkECR7352jnI2gmosjl8oqaHdKC5ZUCal0Dg8e7ePmM+R0rePorIV2n6lAEzy7exW1alkgOOUjTruObruB44MDFYqvvXkgfIUKAHqGdYdDtAdE0paoFbK4slFEIZNAOsEI+wBGk5HOMkpruB0kvkUcjOTMMFf5xHG0MZtjNB5i/+gIr93dw8l5U53nzvomru3uorKygmSGomULc9fR+0dbbHtsDs5Y1JIsisWCDh20vCbfixyuyZieaDPzd2ei65EHD2kqBOatWAJWlFgTOV0Gt2QhnjmXihPHTIeUixHGY3ZyVGAY2oTv4e5DGBcs+9kEI2cCThUBlz8qIFrEajEj6RUPEwb20n2WBZw4Kq8hhYt4Hb3xEIsjRGVAKKrOshcoIp19mnv4lrWaReu3/uEvITgdIBENCXg870/xxqmNB40JzrpTTJ2RNHLCsXiDe1wmFSXxr0xhYXah/+HrC5XDd6lomRHLFC1u53gq+t5cF66mvLG9BQDHQ8MDWyhCixcnv0abk7QVEV9rp5LG9e0KtldyqJRLSlqZuWNjitcbiNZgT5diyLeGjjIdaXF12LZ1QzKJRyMqeVrhsKFDuBw5zHjHC5zgPm9IbkZ5J1Jew7Fk4KXcKMiTUh6ObHqOURUtlW2muYhlnb5ILCIfiDcdu051p15oqHlxFnou2sxxdCDhlm4S3NZyORGiDXQSW8UINgtGMcAxXcWjuKLfma6oxHS+7z0v4KU/exWxWAqtYQ/P7V5DqZBBwkpiODjDmPynVgt7jw+RiMRwUO+gP2LkGbQRZSeoG3juIkX6RiIlLSetfqykES1zDEqnTZiF3BwU1sGO0viT8XVk0WKhuX3vPl69fR+NTl9ay63VdTx79RrW1jdQKFUQsxKYsQCPaQPdU4dJQJ6PxyLEa4Tvje+hL+O/MRcApsOnW61eQk/VQJVBOMqikZIqIRont8uS4J3LlalrFBP847oTOJMRBsO+8DEdtnz/BWN5BzUJqUydFrF4LGiBPv+T0QTLhXmfi9k4NtdqWKmU5aPP14dFixmWF9tWHxfmVtyK60+YW+OohX6ogmwp+x+xv3ryo79rO60v/vovIYOJ8CFyhBxnjLPuELdbLm4dOGh2B3Dn3lqZjOKIh+9o9POSDHkqCYw2rqSm6/CCNC/CEU1Sj7+BZLEycgrjDuljYzxZ2ZtxHCH7nkVLF5Fy6eYCsiPBhThbK8UUXtxdw9XtGqpFI6TlpscdDzDod9Ef2ALe6+0BBs4cJ60hjpum4+qM5qI8yILHo3Lw4iIPiJ3icNDT5ofdUCYeUzGLW1GEgoyu4AbQpOrQKYIhqO0BL3h6SfFG5TLDvPkcMylmNqRVg6+woC1A9rcBZ9ktCA9T0aNDghGRh8JRvY6mwzOvVzqVQZasc0yQTwRQy4SRpgQnFMLQdZEv5BGIxFDbfg5Xd67gT7/2EvrdMWKpFK5urSIRD2HhTBFaGGeE1+7cRafTxztfeBEnp+cKsy0XEijlMuLGMcH7/PwUiTT96bNIJ9PIZVKIJYwlMrtChlmEQqY75v/nqEOZDG9ujmAs0GNnpIDbb71xB2ct499WzBfw7NWr2Nm6glKlpvAOagddhXvY6PY7svQh3hjka7UMaCTj9WD+jPVf6f8Chm/Ga4nXnzaOo7Hsf2hBw6LFPynZXsfV9XKbZ6gucxVm0h7okDEZO55O0Isu86LORLrWdpGd3UhLHHZ47swBCbOBZUhKikohj7XVmnz1aZFN8XsiYSyfZWAohYnRJC7o9aXCxaKfwDC6itL6UxnP23ZaX/yHfwfFyEwrWtq+8k0hSPmobeOV0wXeOOjLTkWIE0efSyb/vn8WixHbbrXUf8FPy5fuqKCp6+KpZagMl0Fv/+++fpGdjQ9s88TW15dzJONRkVHXyllcWSngHdsV7KytiilO6gFtRZxRD71OG/VWRwRLylWIbR22bOyd9VDvj8SIJ6ZPTSGfGwFyjpbzxVRMaeJPLHi8wMmtIghMcW0uE0ez0Zb5G7uAhBURatdzZuj0h2J063eYG7M+jpN0CyBuRzY1bxI2RuwY/M7T7z5FEZkboFiPodeSOyUgEAmpG0olkur8qK1jalDRWojqUUoSA4xiPBupGMeSebzwzg/guH6GL/7Bl2FPlvje91zFldWsutHQMiAJ0d29h3JtcBYLPNrbBwHMzVpOnaXZABs/NI58yWRCYmWOrmEWcPq4qwNnZxiTk6fsjdSdhoQPseizI2p1Wzg6PcPDxyS2tmScR/XA2soarmzvaONI6gP1pnxMvgaDYVMk1ul0qeuT3RuxT74XJIRyk0n3WVnIeIsTvpdcoDDTktcxgzjItVuGIkgk88hkKpJS8X0lhcaM5RzP6UY7woicrbGBIcwfV78/u1/ZK3Na4GTBMd3DO0mk5c/U4yyMlpMOEqSvUFhfLpSQoy13gr8DcWDDV5TeUJ05u7AQwrE4ppkrWL2687TTeqtXYDLs4fd//ReRC048hrEB1nmSNNo9vHbq4Gt7I5x37QurGd7Y/nxvouSe/H9/w2h0jMZqRPxfb6vIe810H4bl7t+0/v/n13z2POkHPFVZsAzGRRdSyJc9HY+gmk9hu5LBRi2La9sbCAXmiq9n/FO335VXvPGu4tgwR2vg4KA5wIOjptxEZ8pjp+uo2YQSB6F1SiAwFwicY+rNgq5+M7X5XAjw9M4XMvo6QflMIqVgDDLqu/YYY5dR6DOJfunJNZ8R8zMcLZENA4YmwdGS1yxHKv6+/u/Px5rPFuYGoEuGl1CkhUg0LK4iRdAE0ZnjmI5bSEUiWMnGkLeW6rZi8aUItjwc4qkS4pkUvvTyHRwcdbFRSeLZraqAYY3zsxFyxF1SSTHpCVwX8iWkE8TdXDOKyybZWMr4XCeu/ANWxIsJM5FeITLTg1G9Tv7zps0Pf1EWrZPzU2VQ1ttdjOyJbGX4e/NxV1arKBLAL1VRyJE5b+m6YtFqtlqwh47oKJaVVLdO7MqkCPVFgfA//ENTY6NDrhW7oBmGI+JPrkZF6hWLhSryudLFgWW+nxtCbhAdzByqJgxOJtDdpVsIlwpUTBibacIb8o2nkoSYGjmKUoAYjhf/0Aglk0iqaK1USLIlp4sb1YSXWrUA6APmWZWLyVW4jq2bN54Wrbd6BZxhH1/+p7+M+ILrZa4IPWpDkDbAU5y0J/jywyFeO+wpV9B4yxjuj/ljSKAXHZdXwEgTMKMPMONWTVpEs4nh/7CgkVEuKxyP90KpDLds/vrXrLQXImJm0kmkkhYyiQhWSjmslrMopCyUUxEUcym5PtCNkkGnJD+ygEx44c0WcjQleXPvvIf9pi08RQsCOa2GEKfglthMMqWuIhanjxZ9xx3UKnkE3AmKuaxndDcSm75WLWLYaSKfzqJjT1HvdNHqD8TwJieMjhTU4kmLmEh4mMkUlhURLqbtaNjEn/F/SEZkV6Cxcmm8yJR07AWBqOhzAaKdY0BZjgvXVVgDO4AU1QIhoJgOYquSUCEjXaHfGyMYT+DhSReN5hilTFx5ftMlO8QoPvbeXYTcOXqTkTCZPM3wYnEMhx2No+ViCblcVjcqOxOX20TlB8pGVP+VeV7I0rjMEZFFy4RaECMaq/Dx93p08AgPHh2g3esbhwYKogkFBBZ6jfhz1tc2US7XdFOruLu2ItC4VOH1wC6PbSpfGz5+f9jHoN8x3avGLRMMzEOBHZYw1Tm9zCbaHlPiZSXJraqocIkLJ1a/SepRLoInteE7I3G3eG+2oa9YcaSSabmpkoOlg4hkUW+sF0hPHHBso9fvabtLuVAmmUI+X8T6+hpWVqri47FYi7ozm+g58neYzSZwUjvYffHFp0Xr7YrWS//z30d4NkAsFJNmTvpBCT6XGDkBvHw4xlcfNnDaNacWb2h/HleKscTOTzou3Yae9bLPdfFbbT8Jw2zr6Mfl68O8oEsWKSrtPYsUBgmU83lsrtckwaEJ32LOuLARIospdmtZPH9tXV5NvHkYakAHBXs8M5udKW+gOTr2CN95dIbX907R6vTlNW70akFxo0hi5X+JM5XzSVSSCcwDCyTjIWA61Eoes6mcN3v9LlaKBcwnxrOrN1mg2WpiMJmqcxtMg3BcvnbmZuE20cflSITlTUHukjseyRyQonQ/J1BLAG+TyNfRmZoABHWgFyz9MKyICbmQLCW4QCJiiQIlq0aPAAAgAElEQVRChv12MSHeF1fu9rCLQxbrjovjegcZEiJTcZQqWZTjUSkKbILJrot2j95VcxEnc7kkiuId5US5YJFQBxyOIJVKCgqgUwG7MP5O5EMp/5GHViQsB1PidOpUpob8+eDxY9x/9FgyKHUa3gKEtAX+lXgiAznW1jZQLFaQSmZF/ej22mi1GuJtmY6VulD6l7nCn3qDtgoYXyY+Bl8vYlJccEgi5LoYjkbCZukuwREslchIR0g6ghKAiJN6yw+pPfh3HeJLFR0Kqkme5e+YSpHOUIDlpWjrwF6Y14c/kwWMjhudbgvdbkPhwfz9w1Yc1WoFKysr2KxUUCpXBEnEokymMvcbfe7t2Bq2bzz7tGi9XdH66j/7FViBCWJhSxsRgpmUTExngLu0cNqf46t7DTxsTJTnR264L7kxRYudlxkRL2M0Pjblk07VunvxPUYCZNwfWLl485liZ7oJteDsxEJB5GmrHDNhrtzwkFdDDd8LVzfwPTevYCVH6oChHJDnRArBZLoU1WE6W+Ks08X+WRuvPjrDwVlbfu5yLWWMOxNauGkjbhUJIxoP4ubmGnaKOSwC9O5aIGMFUW80sFotK3Ga/45gPT2sDusdxdxPKBmyaaoDnPddtIYLDMck6M4xJpGVSTPLBTIJ60K/ScIuBd/cXvK35r/V6a6uIWA2kV7AguxVLtKQqF2MmIw+YiuYi41N8XUhRcPCKOKBGa7UMkhH2VFG8PC4jaN6B9lkDOEIi+oQW8Wc0qjZebKQc2Rm4yc7lmgU+WwC+UxCBnh0EhVfycN02JEyiJYdEjMTwxGOc8b1wOZYxrALymC8zShVFsSzWMQ45vH1ZpER7sUQEI/9zrSg9fUtbG/volJeVQG1R33lOPa6xqhSLrlLuonM0Ot10O7WLzaxLKJ87ZwJC6U5mPi6Doc26t2exkTCFRblQRFL5E/x4bJZcd/IEzOKU+P2IeLwAphMSIMwgupYLCEiLPWH/Dfi6RHQZ5fM95CFZzRAu91Et9cQJqeuc75Qd8WkoVq5hNXaCmqrK/LRN0LuoFQTw0gNq7ubT4vWW2Jagx7+8B//XaRCDrKJtNTnVNT3+n00hxMMnTDG8xDePJvg9dMBbHcpaYlftAy+ZdxmBTt7lAZ+3TiVGuDdF1v7LhJik3vxT3xupBoo6JMAsXeCc3SbL+eyqOEWi5u8lBXA889s4/pGFaxzAcdGxVoiRrCLXlbLoPTz0zkDY4Oo96fYb3Zx59GxfKoo3aFwmqe7iqK0gGHEIxYqhRxqlSxKyTCulHNaXbPTWinncHJ6JldOHapypJyj1W6g3ekbGgSA79yvo1AsY++si8N6D5Q0TsiKD4akqePGjck+/D15M9MRQo6lFsdTQ54kjkK7GgKz8uUKmcBSXvSurzZgiGuMCTUEkJeyyGbnlZT18xTLUBSZWAiVZAjVDImw0OPOA1Ftto4IggccXFuvYOFOUG/bGIwXIqGS4c4bsRCnR30eoRCpGdBNz3aIPiA8FFiU2B2SsEmazGhCcbzB6FiA7eEIoQg3aSRzkuNHUJ6jL0F9JQtqoaCtWZQF2DOK1AiWwNrqOjY2rki7yEuKrPXBoGOKv0Zkjt+uLGta3XONgxyV2fXxsegbD3DxYWmbO7CHaHR6GBA24KEVDOu5ZzMFhdfSnDBhGakRCyztm3npii9nUUbkSpvIa4c/PZ5II55MX2gsuWzyO62AM1KhZdHqdFm0eloc2JKLzdQNlkt5pSEZj7ENFS4mLgnHi1RR21x5WrTe6hUgI/63/sHnkQ4MUcmQx2JJSEoM4awzwHl/hr4bRsMJ47WjPnoEMz0LWVOgnsSDUT7jFzOOMj4oz5/NwqBuwQOd/e6LX+PjcDTzP8eb0C9+0VgIUYaiWnFcv7IhrRez6urNU1mYbBbjeNcWx5i02ThN56YwLYNo9ka4ez7G7cctHJ2dyReeNySBW4ZwSrQst8qwfsbuxhqeWSnguZ0yMqmwaAXsImmtQs0Pnz87ymG/i1TGQovum52+PKfo3Hna5LgXwf2TLs66I0WR0f98sQjK9oSBD9EAl36MRTNhtcZjPCycjEaBxBHJu6ZLA5/bIhhVxyIBsUi7phtjByD8S3Y63JiaYq80b6M/11azmIigkk4iSe5iOCxshrgJx2xnZMvCeexCuBwLD1P/ysW8WPcc2ahxJGmVmz7FrWFuAG6NZyxgUEgFWSPMjWTnxBtT/Dva+Uwd/Y50YuDIyELM94l4EJceqZjhL0ViRhtIageLIXluuWwRK7UVZLJZxGJc6phtnuFOBUTo5ejY6JypO2VXxvdV1tfeoZRIZhQaIpyzb4uiwm0yu9xcvoDV1U3k82WRY/ma8tAk8O5MbO/wYOE1W2xSbggR8PchBsn8Rn8x4R/AknBNCV8M0e000WyfodPuYTxyYE+pHWVuAZBMWqiWK7iyuY211U1UKkVkqUNNpOAkN1BefyqYfsuqzaL1L3/1p5EO9FFKpc0JHgwoAotcraP2BM3hAh03hLvNCRoDum96HljkuaiTMpiLDBikxzMbQ5935ZNDfXzL77L8giVRrLg93ubS8zLi5zPZJCpcFzMGfj5B/fwUQUZ+TScoZJJ4fiOPd+/WkEkmdFMsgxFxcRjf9XD/DF+7fYjb++cYUcDsOTZwvFQrTqOVcNRs4KwwNioFfM/1bbx4fQ2lcgYzh1FW3AJOZe9LOgLpC8eP95DOxEVwrJ+34DDgodVC23awf27j1n4biwC9xSPScPLf0WYmZoUhO0AKwWPEkwwZU0GztmP+7YzbTzMeTkReNQVL3DcRK8wmlgWYj8NOICyJi6EZ+FtdjioMHqXNtBUMIJ+kZXQE0eAcpWwEncEIfdtBkh3CEhjaI7j0dZq7su6hGd+TDbHhRskLCixIYdlU862PaqPGpG2OUhF11/wCNY+SXHFzS+rBxFURYAalXnuG6EYjSMTiGo3iCVMAyGHic586M3Wf+UJWxoTkOpFpb5wyKC0zxZ9b4nr7VL87fyZfN1/oztc2lyuJL0ZBNIH4Vq8nU8RUIo+V1U3UahtIxFOS+ogX5+lJ2T0zj5LjntwspLs12YsszHquHm/OP6j5c6VVdcbicFGL2e6co9Pqw7bHGEwGFzSKMDHHRErk2vX1VZRKFSkKUpkUULiKzWtPx8O3LFpixP93P4P4soc8jejkVBrUG3beH+G0N0Vj4OJ84OJ4HMJRayB5h8+p4trfZ7JHvQ5JHcQlL3ie/gQoeaHy74b89+e94lW0vAvavyE5atBFwMRCueg5QxTSKYTnMxWs9WIMH7mxga21NbQJso5tFMtVqeofH53j67f28Y03H6M9NmMP8TeVWAUMmK0kXSzJrC/n47iyUcN7rm7jxpUKstkUnPFQNw0Bfomf2SUGA2g3ztSRMKl6NJpKgnP/8T5GizBevnOKg46LSCwmDhcz9mj9wlCLcGiJjMWUY27p0ioi5PL0+gO4iKgToOVOu8/4M26/mI4U8fhGI90sE63wTdHi6ygsJGC2c4ZTRdsTajW5xTMLFbLqqXag9xczI2PhBTr9gYTl4QXkLsGko4Hr5f2RsjD3ZEvq7LzsSk+BZyjFC3ntk4BKSx4SbMlnYnjrkFvUBBneUfTGM5y2epgK2zL4JYmiLApKciI0IAtjo4LgVo7hIDyAONaRj8fPMfSVOZEUItO4kOMwP4bEjroN0Te0peTzUKfGFPKsaA3sZDmetbt9ee5Ty5jPryKfryKZTur5iAjNLaYVFx2ERFYWXbs/wKDb1vezSHPL6NvcmEM2pCLN64pUCY3xjFJzjUaSS4Jh30a3N8BgPDQYnxyBoeUPschalQV0Q1SPNOkQay/guXc993Q8fGtMq4s/+Ef/FTIRB1YgdJFgwoumMxijM1ngpDPC8WCG5iSCxw1KYszK3lAkzAmvTsujOOjE9/IKjQzG/HSd3F7CjyHzmcJlOgaTvGO+1/h386YMw1zQ7FIoHYmGg8gmLWyXc7i6ksDueg2PzgcY9Np49zuuIZ/PoFFv4tv3D/HlW0c47wzNRksBjWZ8VXILbXWVOmyhlElgs5xCKZvAh168jmc3q0qtYeKPRNvRmAzjyNeirbF8mAaGvEoeVtceYf/4HA17jtcPuzhsjcyN50xw48qaRqc3909RzKawXkpgZ7Usl9FgJC7eV6VaRb83kAULufaNVhe9kYtGzxYGww6BvlgcbemnTrNG2eR4JEcWTfKhOP5xKybHUHYCzFrkATQayWY6roCOiHzqyeTOxBbSbobpe4YAxq4RJPM1YrfN14ddHoubeGzsjNQdRYTPkWbCkUkdxsykaPN7eWNPJq7xf7dJ/zCKBzkoLHhzE3MiXcNfxrjaz/A9IUGVALkRlRMPMyRcUl7KlTxymZKKUdqDEybc4A7aGLuOKeSeTpH5iPSRJyGWxZyLBBYes3yJw0pR50jzRY6zpuBZybiRJGWziBIaoANHv4fTw31Z7vCe0LbUSspoUEsj/x6gktOlR1cfznBg9IvOGKPxQEstccq8rpmvF98XXX8WDQaZHl4SQF+itfOV9+C9H/mep0XrrV4BZ9jDn/yPX0AqNEaCglTP5oNvMLuDlj1Dw3Zx2p+hbodw2nNx3rf/P5vCy2+gNtkevqW2mqJTTxhNwFIbL49/5Bctv+DpovJIpwTLCZAzsZgLI3YohIIr+RyuVJPIWhY6owlaozE+/q7rePHqjsBSWgn/6a3H+LN757AnUzG7/Y7Qb/OVh0Jio2Whlktip5rBejmHD75wDRurOWnB+H26oCNhM+LxBnXHCkPod1uYjukoasJGD47OcNS0ced8hPtHTcWPcRRaLTCfb4mTZgdb1Rx2SmSAV7XtyuVLwkZ443NDF0skRYQl+fKceGLHxnHDBF6Qa0bS6pjbUUpZPO4beVyMqTJaTa7qDffJOBM88YIidYDLCtIiSDxlB1ZLR1DKELSPY+iM0eoa3Z7pWIyjBgm30UgASSuClWIemQRNDwPC4GhMaEYjE75BbGvkLrQtbXX7KoQcJYkxSSZDSx/6ryttKYwZDwFuSBdzo8bQdcFOMaiNJMHpcNDgU7ye2BUVCxVxycipY6fsFy1uYdm9UbvHUIx0OqcDic/PdG1002VxJCcrDhC/Iq7I1KQUI8RyyOZzyKRSsFJJba35XOlRdrS/j/v3H8jhlIoAPraPc4ln5h2+VGKQTW93O3JfZcHiNp7dFxObOCLzEDDLhCeedOQesljSyqeYy6Dy7IfwQ3/1U0+L1lsXrT6+8k+/gDhGSBHQ5ZZpNkd/wBX4GJ3xAs2hi8ZwifoQaIyWOGgNvTHL+GrxQ53XhfbQEAb9D4LCF0VLFc10WD57WRiHOizTaosD5GXWUd1POQ1lK9T88WKnP3wqGcFwMJWVx4vPruAvv/8GYgihM+jjzsN9/PvX9nDrcUOjFX+iRLLEPNSh0IEyhmiQ6dEZlNMWrqwWFVRxfbOKldUs4umsNl4cTfk9vIGXjKLiiU7282gg/hFX9cxbPDxp4rX7RzjoAw+PW+r46AW/UUpr89lqdXFzp4bAwkapXEalVsXm2jrOz84VAjG0xyKlxjM5ZR6+dmcP9/ZP0ek5WpWPHWMPTcdPMrt9QF42KQtu3EyKczgYuyCvclfPrtUY5xFXI3GSAR7MU4yhlo4hTRGvRqMlHN58yg+cC/hm90MCapz5kltrmDs2WgP6kgW16KDGU1gf5UDjCehdNqKAgAZ6y4VwMW7i+DhG5G5wvDilMzPq/IynFbeRBOZ5HXDDSLvpQjGHPIFpujUEIQY8yce5XAGVYhXZdEbjGjGkwaRv3GeZRJ5IyUWUPDCWbRZodprUKLIDFTU3EBMOST5ZubKKKwwIIdkzRRsbA+Yz6o6O2bOpi8bpGe7cuYuDg0Ndu/TKTybSem2Vu0qAXtpFdp1T9Dt0GGlK8E2nVQm5JxPZevs0EF/4z8UOg1mIv6lQZxNYe/5j+E/+ix95WrTertP62j//AkLTIZIUKMtZmGTJFgYTF/0xDfMWOGo56E9D6E0DuHXc84JOOPc9yUCkZY3fcdHhkW+WTyDkia3ElKUP3vPNNpsUeXF5JFMf1LwYJyk2polbIKhTl+6laTqvEX+Ix7G7WsInv+8FrFcK6HfaODo6xDffeIhXHtZx2CIdwYCrFPRyBLXkz05DOOD5zTKe26hh98oGlrOJeFiMGeMYQuIgRzLGl/NGphZx7oxFIiTPi7gYu9HO+Zm6ueP2AF+79QiP2wsMJy6ioTme2aioGNJQLhFL4+ZGxfNViiKTTyOSzOmmHg9ptTKGswwrVqzRaOPe40OcNPuodyjKNWk8zXbP+PgTUVuSz2V0ovw7L3qRZcWiM/bDdB+QZpPYiwfi83mHA/wcEAsuUUhacm3gd4EW1vMpMsk48pkIsgmOLvQzC4skSw/8sbMQV0td6DKAk3oX/Qm5cXQQ5VgaU1dGDFFwgJ4NPcXC6lCpbdVmL2BSoVVHmeo9mxmfKYXnhFEoZrGyktdmlIcOOxRuMjmiFgtFbd4S8QysZBoBKyHiJikIBPRl9UL3jAW3sGM5N5CZzs0px/AJicfjsWygrz73HGq1FVElmK5D3NAsaRZYsKtl2vVwhP3Hh7h79744V36BIV+LrycLItwnJFo+V241SS4VTcID6EkkNmJ6Ezvncxv52hs8L4ECHSJe/EH88I//tadF661egandw1f/2d/Fwu4iGYvKh5w3QrvTQZ9Fa7KQrUu952IwC6PvhvCtfdqFmO0RRxJ/60e8STeO+DxmNOHffWG0qVBPQHgWLRU2AcpPdIhiD3v4GE892tOQkmBF+bMWSETDCMYsXKll8cnvfQE3nrmCiT1A8/xMSckvvXoX337UQn1AryOyxiMCPU3XEEI5l8HuahIff99N6QuHg47SdZJ0mIxSC2cp1j0STwmb0o02GSpuXd0Wuy4A9mCAfqMht9fXHzfwldsHsB2TlVjIBKXxq+VTSuShhIM/e2VtTQA1fc8XUUud3Jh5iBzbHI4xPDD6ODw5w1mrhwfHPTTI83FmaCrqjJrJoIqxwQVJ+AxdaOOW3pJETgQexqOOdm4cN3jD8D2eOSMUcmnkrAjCAYi8a4/HGh+ZK8lQW4VrsPMiP4xdNCkMS8ZvGUHywJmJ+iCcSrbOBucUJcYTIZMyQsID3wPRPDwtKbtPgvf+Dc3Dzd/+sXHJF9KoVjISUBvu1VKHBH8u+V0rtVXUqmuorKwjVqgiIdsZ6vk8bzRtAU36DQ8dagM5itIlltIqjvspjmSFggowuy5jxGeUGYoF4PsxmWDmOuh1h9jfP0T9vKmsR4L7LJA8EPi83BFHQc+ieTYXT4uFi/wxf5tJJNJPq/JxYOGt3taSr1EmFcH2uz+BH/upn3xatN66aPXxtX/+9+B0zjXGsAvhWpczeI+e3FNg5AbQHLgYToMYzsP4zhHdQG0TYMoQDCngWXjMRas538tA1Nc8NwdlIHrbLf6XnBy+eSxQvne32YAZYz11bfSKIkM+zGgoE4rJ4rpRy+PD734OH3j3TcydKUbDrmxW6FrwpW+8htf3GjjlTT4a67EYMBHy0nCKiTA+++kP4PtevKHQidOTfZwfH8h5slIqyp+d35PKFhCymECzxHI8wIJFazkT6M3n1u/11H2RUvGNew3URwE0G11cXc2jlo9gu5bF7tY6Ih6wXa6tIZHLAAsy75OYcNPlGH3cYjpV/l6n2RIRksuP/eYQ9/abaPWHwrGGzlJeWSwUZu9mumLOTyxgpD/w/TAMFBNSpY6DujYJtA1dgjjeYuooVDW8cJBOWnLPmMynBnTXOsAUEWJtFKqHYjERZYm5CVR3puq4ONJwaaLRTuMXsUe+nzS7i4rv5POr3BndK0jhGGs5oaJF3pZ4T8ywJCywQDqRRiabQCFPV4mkoSFQ8uqFoLIjWa2tYm11A5X1LSQrK4gl0hRCyqxSwuaIF+vlqSxYRPn4KuZeh8rXgwsGFSnRMPhb6xv0nNgFszucz4yO1R6M0Wp0cXR8hE6nLS0quXT0z3e4MZwaM0LpLmkmOBnBdUw3TDyNh4i4atKeGpqKgUqMdTPf1UQkhCvv+yT+5s/97NOi9XZF6yv/0xcw6Z3BinA7ZzoebrV69Ieifm4WQHcME3yBEG6fTfCoOUZ4OdOFYkZCWseatbU2KnQuJX2cFxtBb082I+qDx1XyQUz/e2T050WaX4QQMJFaLp9RhOgpFQ9jpZDHZz7ybty4vqNC2+/UxbfiNm44c/Hqmw/xrdcf4v7hCfqDgTZp5BEl4wmsZOL48M1VfOZTH0U6V9SF1z07wPn+A9x+4xauXrsuEigB2UQ6jyDZ2vwNGHwwsRGLx5RczAueWMncGeGVu8d46WETHZvUihieXc3g2noR5ayFfKkkPST9rSqrawgl48KdmExNfIw2MFPHhT1sYzCgVGQiJvWDwxM8atGVYiZL6DEZ6POQOq2R9IiGga3xz8tkNJ2teT94E5Jx738YM74nOZM006G5YTAwlvwnTNjcS8lmShBTZHgL075GaTcE/7ksoOwpGjW2MCxctN4JM/E7iWyGzHFibC4Gw6HsX5YLVwehxOCm8shjno/d7Rl5C7laPNgYMMulxVatpi6Q11M8ZYTTinITo3wuvehKuYrNzR1UtnaQX91QV6yi43VaHEeNWY3CBC4E/QaOMNxC31H3Mv3mAof1JFLsTEkd0ebTnWMymqFRP8fde/fl9Gpe86XGaoH9/CO7ZsOvWwhKMOEblCv578NFoSS26zkG896gS8mV9/wQfvGXf+lp0Xo7TOuP/8kvYG43EcZMGxdflT+0HXlQEVztT5boTxhwGsKDtotbJ33jWipLEmNOR07NBSHR247wjeD6/In1hnkmPuGUf/dHQf+C8kdKseJlmAbPR4rJO0G878Z1fOJD78Ny5qDfaSEUniGTqyGeLIOJeK/cegNf/9arOGt10Gw2dSHlknFkEnGs5iL47MdfxPZqGdnKOnjkz50+mo8e4OjoQLhItVxAMZ9HPJXTSLSgGLbfUdgqvfKXc7O+50jTbnfw5kEd+00aDXZx4+om1gpJrJVTsALAxMuRzK2swsrmEI2TpGoK8bjXwszltjQmVwXy24i1dLpd3Nk7wK3DLvbOJ3CXAZFOxxOOY4BDnpbn2aXn4dFITBdhOlV1vCHDmufraHSbRrgsagIlOHzfgnMUsmlhWpHwQi6opHawU2F3wCJEWx+C6JTksDvWGJMmEB32XGHZjZg4MX6Nbg08mGTNElhKzG62eI46OnqTEcwiDYH/JhqNC7QnbSEWt1DJ8dCIa3FAbSi7LQLvLEHyr3IdFLJ57GztYu3qNeRqKwjHyK0yoD0BcqNtNbQZ/ldf8D5E6fA+fMKzsba6tDz6C0VLhY3TwZRec0Ps7T3E6emZRkVqddkp+8RamhjydfOLlu9mO5EbrlE0+NxGPq4rI0J2aIRcFth+58fxK7/6y0+L1tsVrX/3a5/HzG4pfZmsZuEPYMrxTExtptfQwGAwWWDoLvCo5+I7hySZGitaIxolF8fY3OoUEbhu9IfMBtRocpEybbAuP7XG5/fwOfr4mFnhGzIoLzfm+mUyUVzbWcVHXrypBBSmEvNryTQz7nJAMI55MGaM7R49woOHD3BweITR0EaZZM5IAM9tZvHO3VWsVqtKlNEJOZ9iNh1JAN1stPDcM7vIZTKIJrPCOubOEMvRAGBqttbyLNSG/X18WsfeSVNhGewob+6uiXej7WEAGAwnSCQtpCpVhDNpzGe8iZiFaGMyHsjJlPdKt25is4i58PkfNrq4X7fx2v06ZoGIdIED2+BZZjx8IlCnx70fOuJbsxDwhUJl/bHKRF8p048b1cVSRGIRXhNxpOIxJGJmLGL3SnvtNsNf1QkwdGOBQiaFKq16ltwaJjWyk9bQ6HHTPIRtG3ubdIod1xzOjNwwA8pT4sNFDVUTUbq5zA0YTt3i2CPoRizjtc93ncsA4osEqwmsMyiCImsl3IeCKOSKWFvfRG1zGxYJx1E6f1oq4MJZPfsc/te4iRhvN3nnBph+Y+4IaiElPNeY5t8lpOmYImZ84NgBss4uMZ/QgdUR+ZoRZ4QITk9PFZDLAsZNIl9jPh5fZ46YjjPRgUFisETxf+FecBbmQNHoOJ9j84WP4e//t7/ytGi91SsgE8D//mewnPRN8jFJjJ7Sne16ZziGzeN9GcVgOle39bg3w9fut/QCk1Eub/UI8RQTnSXinEEHjLWsj3N5NAefWMo3yt82GrG01wV4pD018YuFCha5QuvVLN73rheAyRhTdyS9Gk/h9dqmdHv5UgXRREYXLLVm+weP8O1XX8fp/h428klsl+P43nc+iz/55i28edTF+57fxQvraayUsnAWjgrR+fEJKqUM8rQazhYRoaxk0DbbQ3YKvByDMcWv00Vg//AIZz0bk5GLNDk2uQQq+TTSTI12J0pOThVLCHPLRb0a5SLLEBY2k26YnDxUerI7pAMnT+IZjs7Pce+kidP+FPVhAK0B1/q0DnYxJ+IUCEni4481xLc0ikvjGbuILjPbO96YhicnVj/LnQierqxXgsupIs4SMRI6jT8an8dobLoFFkNhlZ7EKh4LoVbIIRePI56IiBqQTKURjoYwGNgYDhjCmpZn1cuvfkc4FxOBUokQQktXGlO6lbJ4GbNGavzmok4QEuAygNcHibDklZGKwY0kuXrMiaS/PbWghXIN2XwR+XJFW2kFRlhxBKNxo7ogDsbfj1F3OlCpuKBwPywZmum2tGc1hGPPRfTiPpFsScCACVYVvjWVYJpjKIMoQsu5uHrNs3O0zxtodNpo92g8Sd8580j+yGisoZn6bbpXXtc+fsv7jK85t8EkCrNo/cqv/r2nRevtOq1/+2ufx2LcU9Ei1uEXLUZrdeyJEnlCwZhkHjZ91nsuvrLXk9yEp/J0yyYAACAASURBVC1HCbLWSSD08SpFbHmGgPysRj2+99zi+Kt6T9nvB55eFDxvi+O37olYFKV8BjsrlGQQY5mKw8PxhR1ZtVjDs8/dxPrmjomrZwzVeIzTeh137t7BvW/9Kd61kcH33NyVpe93Hpzh9195jEZ7iM18FB+6uY5iNijHzgDtVNwhXMdGsbqijeWSBcZdiMVOhC6azMl9gbypw5NzjJcEkPn7zbBSSGNjpYQIcRsuGrjKz2QRIubCLaaVgsMxr9cSy5q3DkdYjtm8OcldOm920aRx4XCCh6d9tMZB2AugP5hcaBNpWaObTd78Rplg+ggTYOp3tUZuZcJD/PRv3oW8SQymOJckhnyoBQXJEmXTk8hTMJj0EpE/+UF+EzvyUiaNdNIEbVA2RbsZFgeFrbY7uHb9OvrdHg5PT8SxK6foNku80zSFdKwg09+QfxPKVeQWj0nWYqdHQ9JrkmnPa4fi6kIug/WVMtZo51KqKtcwySg0hn0Q/FfSjnGIFcdOoniOySaeS0oLdV20czb2Myrieh2Mn5U+FG1puITmDxcZjBij+Hsu5UKQo7cz0YJjyo6RIbZTB2eNOs7OjIcWf4ZwR3qkyRRxZITv3iLHxyTZkfLv6rbmS6zd/DC+8F//4tOi9XZF60v/5BcwHbRkZcxUF1npEoOYEwSemhixQBCTZUjmdr3xEl99bOPBcUsjBjMJ+Qb5G0MRSSUxMQcOiYb8ENCuDZARn/pFysTemwtGXRoxF+/fs2uywiHkMylp5xhLnozHkE2nkE6nsLm5iZXKCpLprLyRaF/Dx+73umh1eth7cBf28S184l07uLK1AkQTmCGCb7x5it/4rS+JqU6c6yM3dlFIW9gq0xG0D8xH0s+xS2BnF6JtjDuGxdRgjo2hqJjqDw5O0LTJPwK21goocQNZyGgUWs5dkT6DTNFJZhTKacXTmNgjdM+PUe90ZD5XPzs3+XksHrGkWOXOYi7C5p2jBh41Jjho9dFs25gu2aFIbeVVKd6wUS9exBQt/7Xmf43/OB02lgK9zecMXYLvs5QJUt8FzOZQ4RHkefmCbPN6smjx+4KRgMZHrulJ1pVkx5mo2HGDTH5Vd9jHdOJge33DJNVMhignmYADjMZ98a2cBdAZOMpYLOSLwtSMz7uJj2NXxQ1jzx6IsJlOJrC1voqVaklGgeyyktkcLC9HQDCCJ41R0VJYypMxkZIKw8GixRE3i+y2DPxwmdVujJTMGO1nWdLZQbQUQh6UF8UsWQIxMcid0FI5qN+D5DdaOp0fneHw4EAcMW4K+Ygioc4cFXUeqD7OpUPco5VwO0pHjeqzH8Tf+cLPPS1ab1e0/vjXfx4LuyPipoSysZhOJXZaNgFSat1ocUuOFSKYhyy8fDDAV28fawvE8YEXjG4EL5RAF77XcrNY+ax3H4D0wVD/83x+PqCvw84/5SQ4DqGQTCCXthQMkE7FJeXY2trG7u5VPTZlEOTdhKJR8afqp2fo1BvYP36A9PQcH39xF9X1VYmQl8Eomk4Af/TS63j51gPc3SPzvIdcKoQP3thGNblA0VpivZhDknidpEgTFMolRDN5WJEEZoGlknfefHSCuwctxKwo3nO9hA12AGkmN0+EZ6TzGQQWLhaRBKx0XjcT9WwnRwcIRONiW0+IY9kDiYHLpQ1uJjBlBxSKoD1xcHDawv2DM9w96ePMph2LI9DZfy1ZFP1NLTcF/mtq9H0RFSv//fE7LL7GHOu5QaSwW1mH7A69jth0bV7WEj3O5ObATefYRL95I7+cQdW1mdQh/jdmRWR9w3GaSw0eMlQQzBxbonM9JxbmeQC5bO5CM2gi15Y6LDgu8qfTKYGPd217E1eZj1guo1AsiILBny3MKmS6S36vQHgPzxL0oH8TxlyhFOy0WLyosKDjK6126CbBLpldkem2zGtAPiEF5y4WNlUJRgTP5caSnvHOCHNukZkwzoPN4xkSS7S7Qzy6/8AEzo5t7jX0s5ZgHB9Hb7L0jaGgDnFxycwpxM8Vrr0fP/uLn39atN62aP3az8EddjQezgO0TaGBChthhoguMZoYoet0EUDUSiIUS+POWR+//c090yEoYdm86GQLX2yruOr3pD2+HY1vV+MXLd+dQCOA972XP8duPhu3UM1Ri5ZFKh2Xz3o6mcPNmzc1UlA7RhkGf8bUdQSQ1k9O0W3V8ea97+BGNYaPvfgMspUq7BEtmOdwQzGcNAa4t3+GP/2zO3j90RFO+12ko1FUE0FsFhPYKUSxkgxju5JDJDTD+tYuArG0XBP6oyH6owlee3iGRm8sx4MP3Kxip7aG2XyEGf30Fwsk81lt4/gaMho9ZFloNls4PjlVIIYViWmEtCdDdUSbG88o+8/KpjBodxGIhlA/PdXK/NX9Fl560MFpdwx7TLoDtXbRC9qJufmM6JyAMIsOOyF2tsJMvO2hfygIQwwEL8I1IgHz79idaevmGzoulnqNhXXRS96zj/a5eVq8qNiYLMglC3w2hWyKhoBziZ2ZlDSn1MZL5u4Px+j1h3r/SC2jlEd0gCV5YCb5p1LM49pWCbVSHoVcFflSWdtXFiwSVoWN+pF0Xl4Bv9df4vDvAuE9XFVLHvKjQpwMIsZ4Ub7yJvbORN75vZaxUHbH9B9bIBijvCes4OKxPdDnGW0fpV0OeW9ep6ffYTRG87yhg5PE4MGAWk+2aWZ7y9eRVjnK1mTX64+mHJsZAXf1/fjpn/9bT4vW2xWtP/pHn4c7aMtBgW0ubwRGLvECWgTC8kNiBzad07wtiUg8i6PWEL/5tfsYjxmkGTEgOuUynre7f5P43RMvGB+jMhfJE57RZTDeFB7XrM/DISRiIRQyadSKeYlViRWl00lc2bkqbhb9yoslpiqnxOPhiMq2/fjxY4wGHew9vo0rhRA+873vQrqyKib/oD9A2EoqsPXRSQOv3D3FrQcnOGm30OkxPmqMfCKGzfQSV7PAtVoWlUoOpfI6gvGMbHKGkxHuPD5B3aYubirm+/e9sI61Ygn2qIuFw6K1RDiRUMfqyGFgjnkgIiyHyc1U9DPtZ9Dt6mvpTAal0ppSkBPpNKYjukXMcXZeR6vTxmQWwO+8fIJ7DeZQhjHy0pd54xpyrlIlLzAtI4kxnC12UvSz4omuoFgv9IGvMTuuaDTMPbwnLJ4hLGcMj4O3pFYzLtIrMUM9nigSHKPI/TJyHeo5RbVYTFTEs5mkLHx4GE7p6W8l4CwDOjj4hz+bhoOxSAy9Ab2mXFmzUHdIb6mN1SpuXCkiRbwNMUl1AlZGTrDsgEx3Z6LkDbTA5+zRHdRxGdcJFSbPDlxYF91gA+zA2KHyd/RNJzktkJdlCtmCTPfJCEH6x8sfbIrFaCxrbaoiwvE0Yom4aDH6Iexa6cE1Ggv/sgdD0W7OGy0MhxwJ6bZBvzAG4I6Eyfo+Zeq0Akaald95L37yb/+Np0Xr7Tutn8Gkz/GQLGbLMHd5YnDFSzkD/5AXGIwhEmW0eBon3T7+9dfvo90Zq2hdHu98INjnC/n2HZeLlr858QuYj0eoRV4sEGdGYCQofhXJntlkQgEA3BZt7zyDspjrIayuriJsRQSG6iQPBtA6P8X9269iPurh7PQBatkEPvux9yGYqagQsxOLxDMYjR2ct7t4XLdx53ETj46OcdzqCZfg91QjE+zkg1jLJRVGQDIqsZERcYl5AN++f4LxdIFaIYV8Mozve+eu2PoaHdyRkqx5ozLdptdtyQK4N3SRSCX0dwY3NFsn6PfayCazWN1Yly1KOpPT6n/GsWs+1iqd3uZn/RG+eeccL91vwZ4sREWYLUgdMbwsdbP+2koW12GNhnr9vfFD4C/pCJ7bgBKh5XZhnEl58xAMD84ogqF9NYF65js6cBnIEUmZDSpHJ4HZC9EaqGV0OUKFoZQk4qPyjCdrPESDyCXcRQAnfVc0GhbFWiGBnZU8UrR6IeUiGcUzu5vYXK0gHDJ20vxeumWQssDhMcgAD/q+eZQTLgFm3kin8U8joO/3ZjooP4RFBYxkZW7/BNZ7XVeAI6PpuiTkV2ali+lwrGuMhOAgnS1YrEZ9Ea+VU8iMRuK/XtHk9efYBOVNajU/CAUcnzdw0u5g1O9fEIJFs6HLqTz+PfCXRcudIr/7PvzE3/zrT4vWWxetLv74134WzqCr7RUxF5LgaC8ymxs2NK8cfg0hMpeTCEWSqA9t/M4rj3F63jVeWJ71jN9RXd5eiayqWHtDibjYel0CQf3iZdwijFUwMRbyq7KpJNKJGHKFPErVFbz4nvfJSoRAMDELahgnlBUhIGHs4/t3sX//tlKm6/XHWM3/v+y9V7Bl6Xkdtk7O8cbu2zlMwMxgEAaBECSCIggxCjQkEgRBMQikGWSBNCyRlvzgB7tULr34xW9+8ZPLRVtllZxKKhWDbIoQCRIEB8B0T093T99878lx531ca317374zRA9IGKTx0KdqgO7b55x7zt7///1fWKGOz378wyiu7cgReTbsEZgNL1qhN57hHkGcR1MF6uFkjul8hrVKiKvNGN1qUU43nbWWqCK0UZv7K9w/mWCysMzk+Svrouxc2WpJOYLuyHSnpiZ5nYYTtSb2DntCtdPWimYQUvaMMlhM+5TEw3a3K15iqVpFdmUQBiKriRGbjCfiGh4OZrh37OCL98cym1Vfi8+Vo3eiFKusJwVPWqkoJHxCtWEQYynG/SsHG5pTFAvYIEGZ2LQcaThANi7gaNjHLKTaaBmT2VTTMW5eTeQIoSB1exWh3aihUSFqnQCBUE31tNQiB5UZUA7sj8boLZjpxVLWuHahjutbbVzZ2cHOpR1Js9CDUUZ2mrxZk5qZTI7Nb862KXFMC/lsDvMFy8uyHJBSfB9R9Okas+zr8d/TNXbmxEQcoCaLbMyzkW6ZJXuRAeV7SCcjjIJcTceTPHXozBCyb8eysGQS3xKVDPgamzBGxMglunCryMNoPMdJf4iTwVBTRfYAGbQ0+ZX15uP7RPBu+/or+OzP/dTToPWOQeu/+SVE7ly9BWqaM2jRGw+rAiJNESOpRRIhniua0uPA8fBbXz/Co72+ShAGj/P8QdFLktNfpSD7KcmHSIOWUSBsbE8eI0GSDIDkCXLztJhlsVxoNdXMLVZreO7FF/Hhj3xUN9o0sfLSMCJWhhOrybAHbzHB/oPXsJyMcdLbVdD6me//CCobV6SBPx8eYzwYwvNXsnwfOiscjjzM/RDz6Rz5eI5WZoltGqC2m8I+carDiRd7SQdjHw8GlDpZoV0t4+ZmGc9dWcdmtyHsjuvM0R8OcdQbCGHvZ0t4cDSUigM3DInRPOXJ+cuHC1zaaKFTMcJuuVZHXpvQxvCD4QCuGyLwHIFQ3xxEePXIw2C2xJzKB3FO1CHqWanc4GQ2wWxxIzJgqWGfyAPxOSxB0g3NrIGHAw+JrWZVvogXujXRnqg8IVhJoYzhZKz7R3L4bEkpYjKQhFEXPKFEFVQqI5AoL7AmPz8PPcpHrzCgBr2zRJSxafCFbgnvuraGF65fwNUrV9Hd3JKBBHmHVGXg+9LKnv2nVbkgilEhZxLW1ny3wY/6VpmcgJmp5Xy61gW5SR1XUg6i+m+GRxPfUMMDHroF2aMResKAFbq++lUc7KyCCN6ClC0fmVWATLWIDLNLUGiRZq0+QjeQjA2bv5qY87MpsSP9J8Z0usQBA9fpiTJ5z3cfy5FTpppYLbVFQrRvfvBp0HqnkO3PJ/idf/6LcJn2UhfbY++KcrvsAzBoZSU+x7S7Um+qRBIIc+Liyw/7+Nq9Ay2itPkpUmqyUVJOIW8mWfY6AZPUXQ7ESTquUzLpI/DPhXIRtWIO682yGroMZCSmss/xIz/6SVy6diW5wUY2pTIkT0LqGL1x7zWBGIdHu4icJfrDfbQqOfzkx9+LRvcKKq0uZtM+xqcncBfULQ+EgTqdLIU4z0UhWqUYtTx7dGxAU8Qvj/5opAzrdOThaBFj4NmkqV0q4uVr62rctxpVzlZl1Ll7tI9HJyMsAmDoxBiGBeydztWHG9DlyInk4lzOhLi03pBVPdU+4ygjKEe+QDchD/d39xBHBTx3uYtuJYfX9qbYH8cIs1WMnSmmS2pmGWTkrPxJprV0e04nVOn0MG3Cszzka6SuQWuzWgX1fAbtegGb7TLWqgTBUmqGuD0rM9U0J4I8m0eUyWMyJco7xFi6UeYzyM9AYjx7oG4yxOH0eRmw7Aok7Uy1jY1mFi/f3MTzNy+j1e1irbuOVntNCg6kwdD4lbIzzGrorM1Mk8oYaSlGXJhlOWkT3YCwis4JRjBd9+fhNOcDmjLU5MBVL46gX2VZLnLFEnK1ujJLehF6c+qRrZArFVGoWgtFBaDnaJ35rv1+QSpgAVUtk8RajNdkqh5XDwcnx5iMpwkjxHi7fC9JNQce1p/5Lnz2c3/vaab1pCvAoPVb//xXMJsMhFDmQuPJ6HPh53jS0ZwhlN07m/DNThf1RlMg0z99eIJX7x3oBqVUnHQqmG4IAQmF3jbYw5nqAHtmiXqoEMwJ7oibqFDMotuoYKNZTiyaqOxYx3vf/wo+9j3fowVDmADfjycs+WkFBtfFEseHBzjce4jJyQGW8yFOB/vgrOmz3/MCNi/dQqnRhe8vsRgOMBkORVaOc3R9jmUuSoG6WtGoL8oyJS1dwNR1cf94hNORj3mUw+l4ibVOG+VsgPff3EK3DFFNqAQxn47gLed4dX+Erx7MEeYK2J+GOBo5yGeK8GMfc4rT+dRvotFVjFa5pKBAYKyV2L5G4cPpHFvtIl7YacOnDlQQqQAL46KI1FOCFcPHciqcZKWBikGL90VI+GTid36CmGZhBO9SmqaQp8pAFu1KAY1CjFarIRE79qWkM1+rSteLXMWttbZYAcVKUzpfD/aOcHLa0/ViGTh3fcFllk6gHhE3PE+mZrWBi+sN3Nxp4vkrG3JbrrU7us8U7xPmj7ZuFTo4VzQ44SFGdVb2AfkZ2E9aUfGDGmucjoqIbZAH/Z5zGb2Q50lAT4PXYxCp0XcEkWAAC9nPc6WlVmq0FJzjZaDBDFVWtTYrZeQrbMpHIsIH8ykCZmHUDqCiCSWiqbIonGEkWSNpyJM0vQoxm05xeHCIRyd9MSH44D16rA7hoHPrQ/i5X3raiH9i1Kbc8r/+Z7+E8ehUDXAatJKcS5IsTRZy+ZICFhUe6HRD2/ca5WgzWRyMFnj19QPd6LSnYIVBQinhVJEnDknTPNGot0SJXLLgCbqjlRSVKSVeZMoJBGPWq3lsdppoV4saM7NZTF+6H/3U30F3fR3z5QLenKN3Gx/rOaWSysNVGOH0YBeP7t3BeLSPN/cfStH0c9//Mq5cfxZ5WUXlMRv0MRqcIOQIMZMTr82hpRbVKrImy0I+W6/XE67mcDzD7tDD3skMhUoV44mv0nV7rYRnLzTRqWZRq9UROguJwrnLMV7f6+HLBwvM/TzuHk8wD5kZRNpg8g6MTYVAZTRR9SsK4VEOmCYcAZq1AjZbWdzebuI9V3fw2u4xlssQhXxZwNZ7J0u8OeXYnGoNAN+O8jTMdg1tTdkfTspsWktQI6+lGsC0B3O95E4R+sBAsUI1X0CVzeXAQalKpdfQ/k6AKbvsUkOFrvflS1tyuylVW8hmSzjtD3D39dfx2oMD9KcLyS9TOplT6SK5Q4QyVOu41K3g9rUOXn7XTXQp5kctLFG1qC5bUb8nX6vLAbrELJITTpqmJtcqdVUydAIzXitJzVrMeH/CW6nXZ/zBNHAYKTqRSGZvT/JI7ElxwushT4xYu4tspYY4WCGauwhpg8a+bo0Grywjzf4tni/hTScI1RtMBTDZ3CcGzLItlntyD+LfsyZF1D8+xhtHPRyfnJhNWTJAYanOsrF94wP4+7/y808zrSddAXc2xv/2X/0CRoOBpirUO6cMCfWsg1VR42Gh4BOFgVypIn1uJr90Et4/nUn+RQBSaQRZumu6DnbaFCivK+1MqgtEAur5DFCFoilacoNJn2GFSqmgYLC11pXKqBZ6o4bnnn0On/jhvy39JXdOJUpy96xfQ/4hN6PULakDRtXVyRB3/vT/wdfe2EU2CvErP/gynn/pJQXecr0OZzFFOJ+rKVqpNdVA5VSRQUsASepdhaHIsIQ0PDqd4mjqISJIMJvHoL/ApfUW1mos71rCEtG5mXQYZpZ08nl0dIqvPDjGvRMPDwdzDDyWT0T7MzCRGmVqD6RNka1JRDqb4lQLffn2Fi6187i8Xke9UpQzNa3hj/psiMeAN8MkBH7rnouHxz5C0D6NV9gQ8UZXMXFA/pk9LyLXeaDQcYZDEWZyiDmTs5IuWwhQkForUM97AnLy0KnXysq2Qs+V0gMVTFlKcyMyM2x3CLhlVl6EE2Vxb/cId+/dT8pPwiBIDyOOizpiVbSKGdy+2MDVKxfxwosvYHN9S7bzjVoDuRxNJyrIliooCmpQRo6+gwV7HwYDHYnsLSTePkIUKmjFYiFwzUmINYXZJFNQ2qNxArNapfCbSK0EZzqHO56LG9rY2ADXuByk2FT3mPGuUGw0FUjJ++QdjClBsxzDX7qaWqsvm7oWZ811WhNySwDlM0AncRL0adu3t3+M+7u7GMxovEIFCeMi8mDp3Pgg/v4/eBq0nhi1GbR+87/8eWUUFPnnfuBEivInDFY0PiWtZOwSwcx/o+ZWSeNv9sBoP0+QpDKenGUNFIartKugxXmHJVS5KHhB72SAcW+kHhTxLLSjtySLWUckqRROCS+sd0SfYTM+T6XRjQ08++yz+Gvf8zfhLBz0Tk5wsL+HdSLUi0VNnVIqRrBc4nB3V3CJN+5+Bb/3xS9i6Xr4hz/yPty6eV3gxLXti3LK8WeU17EMbzIgpYbAWMtIuJEZuHuUOA4iHA0niHNlTbEIKh0OZ1hvFHBlvYb1uvXeaMAZcqGHoWRXFksPD49m+IO7+5iGK8xCNqSpJU6zzjw61YIyI2LLrmx3kM8GWO/U0KmUsVEvYo0MgEpZ10EgR3ehDIsyWUHI093Dmz0f//LLExzOKDTHviEnezzZmW3ZpDbtY/H/GegzBAlzRKiMwxcItJCNsfQWqORzaFM0sZJRv4pyO2RD1KlBXyroudVqBq7DbJk9McuUmd8M5kuM5uwTUqEzwnJBFyEeVispw2506ther6NRLyAOXay3G3j+5m3sbF9EQFBoJocmIRjNJmobF42zmSc5vawDMZFns6zpzL08iQrJCmfWJddt+3bGrBBoNFRAI2A01SKjwkPsLbA8HUrQkIOefInqHTEifj9K6+TzKNVaqHQ6QIESO6QwrYS7ozKItNISPwMDTpNCRD6u9RnZE06nlqJoxwH85RzjwQB37j/A3mlfjIR0/bKv1bn5IXzuadB6cqbpzMb4H/7p59A77ZkjsiY/zHmo281pUE4SNceLQEEsUhpM2V2J2apxKf89Nle3G7h9+zZeevFFPH/ttrzq2MimoBybzLT2OjjYw8O9XTw6PMB04kj4jqNranfzBGNvZavVEu+MlmHNZh0XLmzjuWefx0vvfZ/E18bDgY6vMzR8lyBNanW7yMUxFtQ4WkzROz7AH3/5D/H1+w/wsx9/F9596xq2L1/D9pUbCAIX7nis7GExn4lbyFSeC51SvOx1BVEWYzfCKX3rFgu02l31WA5OThWIOfHbbtXQLOc06aRCJ9+HKgbETnGP3N/r4Y/u3ceCg4di0fh2WUIVfE2mbu5sYLtdQalA2ZasGtXtRtWULbI5hCGpLwFCjzIuzFqpW0bcFa3o53CWAb60O8HvvOFjt79U70cbNlWVTZrShh43CADLwpRutYp9rLVq2O424LgDdKslbLVqGC8cHA9mEoBkk57cP6ouVEsltFpFlJnxULaHon8Ez9J4w/FxcDLAcZ9AUVLxaCVmhqfMoC9tNPDslRZu3L6KmecjF0ZoFkuaTI+jrBRVb2+vSQK5dvE6cvW2SvQM/QVynNaxf0XKCyVfPOOyKqsyAw+ZrCSilGfBKqGEZfiBIvZWTaOd148ijM6gp/fNthvIeMTwjQQepXBZnMuiSKee7kUUGg1NFxk4icPyyHigwuvKeJvqSQV0+yGBl9pjRbVEYmHMTK1EaRczQd+DM5/i7v37eLh3ICWVFKVCsxROD58GrXeojhfTMf67L/wMBsMhwjhLJlYyiSJth9OQosTnjmZUzCSh08B35nxSwfpWC7du3cK7XnwB73n2Nm7fuiVKDcfwtn0M7pgi4LOU3yD/iiYDS/r6zTGcTtAfDbGczgXG8zjOp7fgYoFVvESr3sG1nevY2bmIP/ryH4tEe+nSZWxtbZt5Z7mkyeFsNEZdjVqbdtUqRcyXc/yPv/mbWK9O8Kn3vRsf+r5PoFptIIqWcMdDTIdjS9/zefHBiOA21ckIc5cSx4G02ilKw4xO2uiTMSpF9mdKaBbzUlRtkxvZruqEpRwzKy+O0Y+Oerj7cA/zVSB+Gg8GurIQrBuFPjrNFp7b2UShmJOGPMtaM4ZgFpZD4M1NyI92VgmdRgwETaNIBQmwP5zg3762xB8dmMwLNyz7JCRSs+xjuU5tfjbJ08ZvOt0q52MUKhVcXW/g9sUiqtk83GiJw94IzdYGKg0KIm7i6q0bqDbqWIxnIq/zc3abLYFefURqKlNueHR6jAdHx9jdO0TkG+xlMqPHYwFrjTxuXGjg5jNXUG+uoZIpoJCNZEzLNXZha1sNfsopV9Z3kKs01PRWuZYvyx6NQTIOHGR8R31R6fVzUCCQpwWMFGRr4Ff24bimTUFUig2+gxyNWIc9BMspqt0tZEs1BPMxJgcPsXAoJZ5DiX019uw4MaeQoQQhY7jjmUpHZlRnSr1pf5Uloj6DcR1ZoksIk4OQxJaNKHg6UB/vPcSd+2/icDA9m/7yflWvfQi/9Pmnjfgnhq3FZIT/9ld/FqPhEAE3EkfI6lUw7SfSuqgN3J+62RE6FwAAIABJREFUWBAKQTvzTktMe3L/XnruOdy+dhPb6+so1SvIybCA2Ku3TnGsv8WT0Ray+hFcgDQ6oEMJKWLRSlIf3FByuhmNcHS8i9l4onTcm/s46fVQrlexvrGJWzdv6b04Iic+ZjmZYjabqpzkZr6wfUkN76/euYP/+7f/BT7zkRfw0U98DNmIwWCK8fERRoM+ms22yUKHvgLWYDyHE6wwXQSIiXUigrpEVUwaM0QYD/toVDhk8FHJQgql7L91uw0Rt3nasle2mNO8c4nRdCJuYbFawsihznosHuJ0OlF5tVkvYqNBpDlLZGKLzMxTU6+ElsL7wVI9xWCxJGHA58l8Opngi/fn+KM9BzNvJTVRDlF4cNjk0BxuUhaCAS5t+paBj2qlhJsbNbx4Yx2dag3HgyP0pi7e9dL7sL6xg876Fi5cuYxas2HBeEXc0kzXnWW+qFoFGrdGODncw6tf/TKG/WNMR32pfDo+4R5DXNxq4dnLHRRIzdrYxo0r13Wt2DeqVSso1WqoNioqBQvVliAP0nqnmm6Birqki1Fcz0XskQZDuzvjM5pzeU6KGrKiY3ajoQplaIh2NzygGvGBC2c8BNc+cXu1elNJkDc8kfoG5aypHsHfX643kalUz5RPPMeFv3SkSUYwqvp6IlLnzUWdmVeWa+XxkS0Qqc0MlJEZN9TH6ORAJeKbx8Ok92j8x9KVD+FXfvXnnjbin3QFFrMJ/vv/+tdFFaGdAfPfRhHo1oooF40Vz+mUG7ootTZR617Ehcs3ce3aNWxtb6Naa0iSI8UIaUMwACjTSO3BDJWsTZM4O/P5ge5iZGhigRMpjZM0OkWlYJ8lUg9gODjBl37v32MwGuPKjWu4fu2GFiulXZzFHIvZVBMggli54AiRYMCVCujRIXrH+/je59dx+7kdhLMQs9GJYA9cxCK88sSOYonSHfQnWHgrNYAZsC7sXMZkMlDvjSqUy/kUdTpeEx6RB5rEDMXENGU0FGBPi6joKMoK/U2XaMcZIVcwPTJCR4itynGaQb5n5KBWLel7SPaF5XaRfREaoLLhbVNXZM11mRtDn2NpxrF08vnD+yf4k10Px/MQ42WIibtSj4j4JgM5Gj9U3DoNTZLfU8iiW8vjfTc2cGmjjmapjMF0hOOZh/e+78PYvnAVtbUNbF/aQblaEcCU0zSWWgSBLqc09wgEhWGp1js+wut3XlMQ7528if7RHjy/gK8+OECrUcEL1zclHpjJF7B94RLKtZYOipu3riMOfBTzRTPUKJRQZo+pWEaeQYs2csx0VrE4piwPGSSEvNdA0Bx0zB1KLGiOUpEXGJWWc2x5mJnGylli1juV3E5GdmMZuJMxvMEBPNfBqmjUK8ocEYG/ytNuLYdg6QoPSGyXFFKp+MAgRbs09t50GAi6eqbHpelmgptThZqwEdh4WY77uHPvPl7fPZIyrQIvTVyufgi//PmnQeuJUZtBpLd7z05eSizP5iKakpRsOllMcS3gsClZqVZQKNKqybKlZIhjJ0kyWk9/2VlGlehva4EJw2JlI23b2aehXAf7IswmWF6dl68hdixwPGVbJwf72Nvbk0QJ0cimu5XB7oO7Qq7r/dlIEmgyj8OjQ+zuPZLXHCdin/nhj+Bip6AydHRyZPQWaYlDKqMU2TsaLHTSBqssCgQ6SgCPSgw22SEsgtIklSInhVnUcpEaypwEchARB4Rd+CiWqIoQYTyeCeODTIhKxdROiXqnWB0/q89Sh4i1wKZHvAbcRMp0qZoam928pnsZk8Fm9kWkOrNR9t8osudEwOs9D3cPRziZx9gfBpjOPIQo6fNSB0r9LGLx3KVKRwZG8g4/+Ow61qsZPHN5A9V6E1+98zqKrTbe+97vFkm8sbmO7uYmslQw5VSMGlAeS1EXC5o7BD6qzZa+r03uYpwePML+g7sirR8d7OGI/UvHxZWtDm5d3pIDt7vKYGvrojLPq1ev6tpxYol8ORE3zIKa8ZLzlqQ31XHNnZzTjFQNhI33VD3EOhfJlLFAlgZ7gAwuprHFz+4O+lK3KNGIAyt4zgLe6SmC+RBRsYhyoyXJJaM7JXQil4MQAkxNWjxH9Hy5hjzlsiXZlAB1ZUFmiHgrR5MpJ39IKRoJcXBYUoS3GOPh/TvquZ5MAxQyvEcZVK99F375808txJ4YtNh4LrNjk8jPCldF1YCiUU5kp8RFEBuIIWWjp0EqwQW/ZUL1djUHZjA63RPXHpUlpKnwv0Sfm1kVSxmVC7G5zMiFt1gQVmcxnWFyeipoBrOZ2WKJ6XSG4WiIfBwoaPHBLIubnG4we48e4tGbb2I4HOLW9hp+4ac/iVy8wKI/lLJCKpdjFIpQZeFw7sk8gsGV2uRU6uT3JndvJmhHhBxhHNkYjXJBANh2vSKXGqKZWXKQME3z0ig0W3iWUFQ1bTTZ8yIgs65/p8TJlHpRpbyySn53QjdUEiWHxSpjxhQM8oFvdmv8HAzyKd+QfxahHVkM3Qj3DsZ4NPDw5tDHLCyiRYOOSkHBnIOP2XiOAq3pcytcu9jF9W4Bz9++jOIqksPO3XsPsXPtGt7/oU9g4+IVVNttVJsNUMOdQYMlWeAudL+84RDL2RjVVstyDNJrggD9o30Mj/fR7x3i9HAPg8kCS2bBhQze9+6XUK6TS0g5ohq2ti6gVOE1JC6QE+VEnYEHATFryfCBG5q/3zBZ6ZI2Hawz5H+iQiEKTyIoKSgOS3zCdMYzZeT1jS5WlGJy5nBGIwSLuQjRpVYT5XpDa5BSyoGa7g4Cf2GeiqDVmQlVigzPQQHBviu7T/w5p63pxJbTRk1tSethaSglFdKGiCuc4XDvPl59/R72ekveQGHhqtc+8jRovXNxvEIxWipTUL2fTF9M0YMmDIxbprF9Jk9LXAwFtmxMdcZoP8u2mDvQIJMnlVCPKzWnmbkRkyJrKlF3bDDNwMcTiKkzyyky3bkAmEnw9dViWfisYDzFmw8eqrn+5j6zrl1sbKyL8kObqkazgStXr6PZbkvCuH90hC/94Zfwxht38blPfRwfeuV5NbaXp30ZdrK5TTkULujjwRS98RyTJc0jjLNWLhYR0QmZQm0yKCD3bCXZldh3NDHs1HJqHldKJU2jJuM+puOhVF+ZYInTFgYolfMSs+uyjAIFFtlamWM46tsEjN+zwpPbeHCppAoydh15vYt0W85kMRiOEITMTg0bxGx54HJjhFgEIdxcE0FxDZvXX8LWrdt414vPodpYV9A67fWw9+YunOkQ7qSPfLhEZjlEv3eAbBBgzGnu3MHzz78bL7zvo1i7ckP0rUKlJP6fZbM0r10af24+x2Rwqj6jqa9S8SOL4cmhyp+T432Me6YHdnh6qn7jzs4O1re3pP/O7LHVbErAkZhAzuKIvpdaAzc41RSkRMqMn4J5DFiGpE3bpoIw0GItUU0wmIXBb8QxJHiXUtDDMXwnQGVjE+VGDdkwwHR4jIiGFLxZ1AaoVoXXQjbCvDfEYjBW031VWAkOQRzcGbm/QLFDk16WfllCCQq5X1KhIKqkJm5IXAfMsnLyYOCQZI7+yQFee+MN3N3rw3dDTR3rNz6Cf/Brn3va03rSFVCmtfI1bVKQ4eJIHkY4TVLtpPRLA5F0gSgWp9G6baqUHsHnyOiC43AaKLBPw+a8T9/CEjLRSgamHENzMemkZCDUhIx6Q5SwTbScotWZPK07HGH3/gP8/h//EV6994amWFd2LkiGmZ9jfa2LixeuotFo6TXjfg//17/5N5gPD/Eb/8ln0G2WhGBmw56QBPPTizGakBPmYK8/QX86P5M3YdbD70BZFgVnn+FmhWYlizLhGOUCrlxYE7Ysz2vgzIwHGUWYzqfKBHldK2okU5OqhEq9hlZ3E5P5TDgfCestl4lqa1mBSQKMtMryXLjeXE3gRIxa2dR8QfPQpbTOprMlXM/BJCqivnUV11/+MJ5/z4dx6cZzMv6w+8WShbw9O4hYlqbONBy8+PMpHr3xNfQP70u87nj/AO95z8vYuf4sGmvbyJXrZwMAKXrGlM2hTb2H0Jlj2j8UjcrutWV0lOKZjQYY9A7ltMzscff4AOtUZ93cQGt9U5Np4tDKJfopGgYux95btDKdqmLCTkiUSYn41xoT0j3l95mUMU8BqqLqgEkMbKUNn6he0Endn83R6F5EqUUoRV5yRl7/FGFEHmYoUwzyI1cZWuPFmPfHcGdzTSnVZyT04pxdG2EYNPBgmc32rErJOEJAf05itfJlZKlIkdB0UhEBBT1mZ6GL0WSAR/fv4s6DffQXZrjbvPVRfP4Lv/A0aD05aAHNvGm2qwZ/bAmXulKdBaNU5iPtOZ31rBJBP25AvgfhBrwxHF0LmU2lSNowme6spkxL15H7C+3q86uM0muPlvAjCuIZz4vvsdZonZkBsJw6fnMP/9P//JvScrp+9TKeuXld0xz2O/j7Ou21RIUyxnw6xFdf/RPx+D79t/8GqhkX7mgMZzZTr0GUItfDYW+M03kggjNRy0aDYf5HqZuFWWNlMug0qsghwqW1FlqVvIYV7XJOeuaZ2JcmGYGCDvWUKE+dkMTt3A1Ra5BPZ87VfL8oNGspBlhxBH3zLWS5J9oHdeKXhDzY3zm6J2aO2vERDVHpXpytoH35OTz/ysdw+33fhUqzZZkJb3hyAPG1DFZphkBQZfpnIvzz3HE8YDRBZVnkIY6WsjeT9hT7QQzvnPQSCOwtdS9lxLAgRGUo0w/qynNTM7s5OdpHJgrx8OFdyfRsddYwXcyktb516bKE9Yii73Q6ZoZSKKLZWRPOjGWyJIzVPoiEXWOfTHZfilAsQ2198G8xMXFeoGyc/2nqmlQOnEg7cxPtq7Q3xCkk8JjKDYTXwF8iojlHpWSHp7uQpLS/4ITQ6D2knaU8R64Nfm9d3lxBJbP6befKQHJLS8UqyqUaxfXPDmBBV0Ty5pCJZa0nme3e0SN85e5DHI4WyGctaP3aP/rFp0HrSVeA1RtpFZxwpBPA88/VIkksu9PsJw1O7EGcfygrSdj+3DUMPNyQw3koL8C1DvlckWyiBtOJrKDKpJhElPeQOpMQ31GeQ0XbFAxa7COxmT6eTzA6PMG/+93fRblSwpWL2wI8Go3RqCo0SZjTzZinIy3ds5Ea6jcvFIHpIaa9U2PxU84kCDEcTnEycfBotMB+byzPPrkzh4YfYgN8MXfkdddpllEvZXGl3cB6s4DtThWNfEayLrlVCM+ZiUvGzzoYznQQsGlLakyjWdFGqtXrKFZJB+FuM0diPlGncLYo52lrlrsqqeYeJ4+uMl42nOduIE2vcn0Nm8+8F+/+7h/C5Vu3NJG0AGOBJbVuSxvUhEhYnycjR+MzlDZ1tjhUYcCSCKDJ2KhxnWh0SQRIwYrOyYQZeMrWCLeA72DaP8IqdM7Ix7x+BPbSEOL+wzuoFoqoSs8rg8PjExRa68hUG3jmmedEgKZuGGVrmt01NJpdg09oQkcIDAMkgaC+rleKEeRk2DBSBjXgsEY0LoJZ2ebgZyeIc2LA4craJrLVBnIZX1PKYLZUjynORSg225LB9h3SecZSAGEvi9NSrvFUhVfXLwlaVoEUkKOufi6HIrXnCfrl8bQiVIgN+xIgYCzXprkZpXjFkKoXRMcHDoanB6KbPTgaiMPYuv3X8YVf/+WnQesdg1b5sXllSvtIn8/TNcUGpRf9zwS15AfC0os+YjIdkqddheiP52hVa9b3IcgunxcYcRXzlIegFQV/gShYwcnmMHYdTezYNF6r15RpcOMe7O3pN7EEc8bTM216llckVKunIH2tuZQy+6cnuHrtuuSYu4UJVqNjDHt9WaeXc1mc9GfYG4xwOllgt+fI7aZaJZiRgFofszk3oiUsDEYk8G82y9hpVXGlTWwV1VXz0vtiJhkEJEu78LwAvgssXboPL1CvNQSCbbWa0osnAZh9F47yGdi52bjIGbjog+hTIcF15KQ8XSwwJz3Q99XMdjJ5XHnhvfi+v/cFXL58xVyLzpTK7EaklJDz9ykFk779Hlrfh73LDCJusrTDzX5Z0jIQBTlRKiDvk9zRwWSMtWYZ1UIFk8M9ZLwZHAYYOiartDrVdGy8mGGrs475oI/I87BwlpgXGuhevY2bN29LWDHD6aczs6BeofFqGSvqaMWh3L/hE/1OXSoGLV9Zn2lgGQpevUmqsVKEj7AEfwlnPsOsPzA/zK0LyFF4MZPX8MNXph0bA6HWRK5dV7COZlPMjo/RH/bO5G2YvdMejmtQmVLusTs0cWE8lPg5GKAIR1G7hAKGqUiAXIAorVRFqVbVLSG+TAKMiUCjP57g/t59fPnBIzh+Bt1nP4b/7B8/DVpPjNrMtDpVjv3fylHjC873qGyBGJP9TNrjnDIkn//2sbPrLjQdYyfF9zlBNPgMby77RJQMpnlBnuYHDHauh2UcYn84kNqDpkmrjHo+/I+EZp564/EY7niKtbU1PYdqkPxcOmkTfXny9caDY4TeHNev7ODlZ3Zw8uAeHRSE31mMRxjSDHXh4+FxD3v9BZbEZmVzcJjpsPHPaWacUe+MfY56McLV9RrWaGFWXGGrXUW33UCNpgcS/1sIisDNM3cCeD4R/Zw0mlIF7eLbzTroRa0pWPJzfn6Wq6ToEFc1m7kKWgt3KabCyXQuz8kLl57D9/7YT+PqSx9AvVTTPVP/RmJ8dr++0T06fy/T+5QuiPP3VcC6pI9pdC37T2Va6o5EiAD1zxcLNMtGqM/HPrLBQioP7A8iXGI1GcKZD1ROa6BTrIhgn82sUGquY/PqsyoJC7Szzxnw1cj2CXREevXEg7nUNkqCFiXAzQaNgeSsIZ6UirLl8jzM+qdyYiJ0R+UyzUPYu/cDuIuFkfnzRdQabU0tKTK48n3Me4eYnZyIHsXhk6bXhQLKReqIGaxCfEUOTpLJOlHvPCgFiE0mnWCflkDTRKRSevSUCapaf4vvk7oiMRAGywUODnfx5dcfanrduvXX8Y9+46mF2BODFtck+zKpTfj5TEubgI7DxFGFAWpVCuK9LWglxgEpHEJlZgIwjWIGmKGl43EWS1eajgnOJY9MnMOlzXVZbFEWJ/YcjOdDqaeyGcs0P0835ywwHk80ISLCmhCGxWiC7c3NM4SxytKksU/1UbBZTJOAVl3ieTtrBcyO96XAMHNd4dFm7gp7IxevPTrEyXSJcEWcTF66YoukL9cpVbHebsL159hqZHD7QgNrpJnkV1byEuvDtIrDg2RKxMDjCkbhCDVeYhnBU52yxutdBcU89bOqDV1XaY5JdYHZ6Ur4Krr9EElPepOX7+D5v/FJfPRv/TA6611dl2xMp+TEzj0RvnuneuJ8pvX2Qyf9u6h7yrpyGoikA5VUrFHvz03KQ4hwAG8msb5iHCAfOph6gVQo2IKi/Zq7mMBdLjDsDzgUxJxg0DDEWncT9e62JH7ELWT6opLKAhF7miSHB74pmILXJvJtQsggpqmENeAtu7YMhy0F9qAGe7vIxZTaqapHxnVABD+DFqErhB0wcNba68gkSiLMZMdHDzE5PhY2juuPtCdeD8rlMNgocImQzaBlIkzGLDDvSWamPERJ90mlcSQNlOVAJIMVwa70lRQEIpn8UhvOXWDcP8VX772JN09HqF3/LvzGP/n80/LwncrDdsUAlm8vHdLTVQ1X300a66QaEJHtCZtkkIgEQEe6CE+Y5Kbx9SzlFu4UcZhBEGbQd6gOEUrepFXI4eWNJvIMWNR3ikM4qxCjyUgcOnIffSfG9oVNccboWDzsD3F8coxCIjvC9J0SN/1eXz0XTtU4set0NlCtFMSdu9zIY7r/x8j6PibjGbzQx2ThYG+wxIOTAXZPhpg6odxuOL3RIicmYcVBQBXNSgHFfAabzSyev9TGla4RuklsJpqNXDaK/wVnAnQZLD16GS60SEv5LAocyrKpXDG6S6VWQ7O7Ia0uGapSLjkmzDSH4WiM6WSK4XiC8tUX8Ld+9gtYX982bbK0L5IY4Nr2TdQF3nagqGV9buqbroGUVsK/pyd/GrjSzIva6ZoOJ9IKDKi8rulDzw/CM+R33psjG9mUlaa2UaEqZPloOhI53YDJDRQLFZGpGWDo5iOAMHFZbENRN11TyQWCaCZaFRtwqb8Ap822JolRC5LYxUyQyPcScjwY+z1Mp2PU2+vKiPzFTJNMGlVwMim+YLONWrMrmRzSb4g89pZTLA53Jdetnl0MqVQwEJVLVZHzLaAmfVt+lnNDK5PpMXA0RSlt+EG4RVXXTb0sLhq1R0j8fiyIGTljSTA/evQIr+73kN/5AP7zf/qfPg1a7xS0KJGSBq3zp3D6Z4mkJQhkcupKparQ0DxlSFC2EW4GeTZwHV9GGKQ5ENPDBbegogK1mAolVDIGrSD+yY8CNKmyVSpgxUZ8InfjuEtMaJnOrGjmoV6vyFqqXCirTDw4OJD+lesslb6Tr0iXZp6A1RpVCFooFWtob3Yss9l/HcHgTZWfk4WL/ZMTmSTsHQ+x1xtg4oTozxy4Pjc/9cZ9BdZyqYy1ZgXdWkXYpKubNdzcquHWhU3JtBSyRoLlNG0VUDKGvLhASGrB2LJZCSQWSznQU5B6WZxEMtCyGGqtrZ85GbFqZbm4IPqfYnCZCrZuvIAXvueTyJWb+l3mLGMNbTXyE26BvL0TPabz9/msCZ8cKt9oDaRA4HSqlQYtitykhw4DG69pikBPp2fpa6RgEK2w8pbC/MWRhzhwEWaKGBFW4LkKysQzrW9safjBHd9sNLXx+fEoVUOcGwNVGHhyY9aUk4NNgpOpzCDddWZYkaanBlI2+AMhBsxoFuOBXk9hQqqKDnvHph0WEWdlAn+0dUPODDKkNe87mA37cCcDuMsZfAFnydSwqWGlXJXAY9rXkjdkYkqRXtPUKk/y1Ry+FApGms7TeMMyWPb60oOC00+TDwpF2iYlq9c7xZffOEC8+V78+n/xq0+D1pOugJWHyYg8OcX53PMLXgTPkHAG/gtR2QTGGUYrT2G25DRn/4kifySq8vbQApy4GZJdKaGczcQoLh2BSQlUxIpboyTpXHIQCReQNbh0umhw6qE/mCFCICHAarGmU4oTInImRwJZBlhM5krUmZrPF2N4jofLV29g89IF5LwRnL07gLuQ0B4dm197uI+FE2A4mmAwJQrewYJDAGZ3voEU+fnpnL3RquLqRkeuPJc3qtjplNFpNEGJYo7OWRpSNoaKDWzeM4NgCsAAyCYtQabkD65CD+1GXd+NwZwZEDE+BNxKBaNQVqZV6l7E+nMfROPCVVS6m2IiUCRQqpwKPna96XB9tmGSfovAwY9//MQe1+ODifeV2UvaTzL7LRmXJvg8ZRauh1q9auVY4tunpjRh+Mp8YoT6N6LIVgpYmfmpBCWnPCjGPWHVWE7V6oSwRKKDkQfIqZpKZBppJcYOllklmuvnDkxCKExa2TCBViVapiViNCeJPocnHE3kMTnah79caE3linWUm02RrxX487TDIz3Lx2I0RLCcy0lIAWw6VpAzHf1YxHMejikW0bBiift2chOsTDUbN7I4LGjxzyVNWQXB0EHOgpV8xaJ6btprrBBcVwT6P31jH077RXzhn/zDp0HrnYJWs8gGtKW+7Jdw37GMWlvvCEZg/YNkoXA6lDgVc4EzUKQNYQIsWatTdsYPqF0eCmdUKJTQqtfRrNaQo/kl1UqzRMH7KMQZOGFB9l0PjqmeusKK8slBiFY5LwmR4/lMtIf+YC47sfV2XU3u0dEpjvunKBfLmiBxc/UGh7h+6Qqa61syel3sfw2ZxVCKk2yG//7XHmC370pZYj6fYb5w1UMjXYfmpwZMpCQPZB222apju9PAtc0WttYq6NSLKFClnZkTy7LEdYgbiGNsncZspi9mWBL+QLG6eIViLivJGSpnGNMfKJRrxiP0WerksfbcB/Hsxz+NSrOu3otAlKmTYZLNplI/50s8Xv+zQJSUkOfv99v7kOlr9ZrYsgZ+RrZbmBmwcS7JYP1O3n5TnMhSi5trgd+DqSS/GyEQXgAnSx9GHhxlFLMZeK5NUmejU0wHPU0OuUeb7Y4cndh3HJyciHRPvF6Gr9fnsP/0GRWEWYIaeNn4homFfKL9zo8ngLKMW7NwxwtUW23BPqb7u+JDZqlsS7UGAaGZDVMlNyuZZI+UK/a6SMHJ8qDKYjojct5T/5M9STqtpx4IMdkSnBYyo0rwiepfJYMqfh4DoiaBSwd8kChB5JR1itwtp20bvvCRgozf3DvAceV5/Oo/ftqIf2LUZllYy3PytRQ62WRhfKvja2beaWWAOUKnGC0y5KVHzn9LWpIKeBGDwRyD8UiAu5wBmMUfbFSrKASe2PWMClGG6GPg9eMhytmilAUIMp05Ia41SlgGS7xnax1uHGEaeVguCcozIOwfvHYfuchHIXSx2V3XYtYkJmCD2MOVK1cQTQ6xPHxdGYAbF/HweIIvPzhRRpPPZsTho2aXnGMCXyd3pUhdelqTEfVeQK2QR62Ywc5GAxc7tNdqYLPbVrlGQbeUPyB5HZ/gRrpx0+aeBGHKp3AU78sCrFWvoFY1mAOxPTQR4aLlxLN97d24+fGfVEbDPo/ckYWpesxQOH8Tz5fxb7m5CaD1mx3TKaGXQcsyaQakWPed/SEGATXleZ8YqqhmsPBV4mQbFQtaLNdyWZXE7OGx3OewRlCJBCLgOz7cxQyLeQ++6+i61qp1U3edz40gngBSZQTBDCrtXREeEpkph4IZG/mJ+of+ngwiDBjNWUiA2WSG9YuXlO1Mj48Qr3IoNptaH7KsD82ObTacaJ3oPpep1cVhlIGACdNZzBZJC8KBH9OE1nTfBWxlUCLd6pwb+vnrnWpsCZ+VgEvJiTWxRF9PPW/0Yr0y3oMAJ6fH2M09g1/6tafg0ieuYSa5BXIPZWlftLtP+1CfNlALvc44g5ShpdIAS0K7YWe/GwdKAAAgAElEQVQntsCHJDl7Iu4W2cyOVpjMpxqNU6KFvQmWj81oIdmYKq25eMhkM3hwPMJ07uBk6aNSr2I0C/DsWgm9+QTX11q42O2K8rBwXCzdAG4Q4/5gioPjI/jDCV68cU0Eb/VcghAlGodSM+ngHvzZKXwU8Cf3+3hwulDJQlkTBk0GGJlhkChMqg6ATp0jeMtnslGMPAcGjTI22iW8cHULl9fbAqCWCllkefJr+kcYwBIrqp1yU/CUZ2k7GsElSyBmMMyqIS8fRUosZwCPqgjMALvbeOkHfwb51gbKRSLCbYPYrfj2By0DONoBw6CVnvQM+FVavRcr7NAnBxLLNJoyZJAjVYaBg4ao7BEpzWFQI/mbJqQeyhUrA/mfzHkTpHhutYKznEj1IadGFXFPFnhSF2jrr1HnPQlISdDSz5VhMeNK9OCTTMugCJHkkefTmfT/WwSSFvNwJlOBbiPCDJLWwyLhSlLbnVNQys+I7yltMTpGQRxRPo/P4aHmRyaHnDSn9Nw0MJ2vOtJNlgZ7s9ajnFARJYJXw8eIfV26xKQ1qTb1vrPZCA8zN/Czv/yUe/iOQauai0TUtBPXROPs5LWMQxkMm49pT2G10hSMFBjqp/P/O1XSG3xM3Axa1apEAeU3HBIY6mkKNJ5QQ3yGEn328lns7HRRLOTUgL27O8Jw5aFdrmJ3NMelrQ4iZ4q1egmXKFeixr8JvbFBOo9XGIwnOO2RQhJirdPCgsqnzly8sjo8jB7eES2j76zwB3dPMHNNQZKBJc+MSo4pieQMJV4yLH3NWcjKBSuZyC3crhbw4rUOtpslVMsVNKp107haUYAwkHxu4IfwwpUC0dFkhtf39lHOF2VO2qkV5MLcaLeQpeV7QiZv3Hg/bnz4B9BYaxvdQx5453BXT8i03npDE7K7HeGP/+kblIqq9pKTXbDURLZYcsGu0Yk4KCjkaliVMurx5Fc5RKU8QvoAkOhNyWBJP1ckbYOAKPMlBvOpDCmIdWNbYTgcKSuuN0gtKqr1QCAppXH85RShOxOZ/mwiyHJb/hRJuUvSfeLEzKDFzE5N+QSUaWawETxmzMMJqtUaqutryu75Xfj9KmtbiPM8xEK5kPdPTqVbZvAzs65L+5A0JhGDoUgTCtJ8ZnDm1uqwYGmskcdBKQGTUrYpAemmAxFjj1gZyRaKXNYTP9B0qpv+PzmkbClwrwWhg934Ej7zi0+VS98haAFNAaGNM6hUmTs1waTIhMKjiUKEZZiRMiYliGu5EBuNEnoTD3MvwlaHFuHcBLEa1e0WJY1TpYc0eLFhbR6JXByNSkmbhgJ6sbvEKIwxmbNcycl9huJ6dUnVBFiRH0ndooTaz/1ISMT+aR+nw771H1xf00PKIs+PH+LkwWvC9uwOPHx9dyRqjhaO3FEM2pBOwJgRCudDPXYGNYEAib1aoV6toFXIYqdbxKX1OtbqZVzotkX4JgCSjWc2AklspkIEp57D6VKKoqfDkTTQ12olNOsl1Ot1ZSjlxhq2XvwwLn3gB9BpENtjhwYf50vC87i5J/cl057j20LZE4KWxTYLFuppJZuJJGj+mWugVGgiyGUwH4/QbTArzqqEZgbNTagMJ4pQ5OYnYt1zMXCXCChrpKkZwb7sl9HNh2vDaCysp1OhBtJmYmeMwOFwhnGcAoWkESVBS3ZrJlqYaqzz/dTqkvKGj/l4jOXcQaVRR6laRh45zCdT+WLy8OrsXEeeMBNSx056Kvn4fqZPRmZQqAGQaFR5whAowFhAsVLU56KEkeOyWkjxWZYhKUglbtf8Qgpm54yK08Y8y8O0KX8WtJLn83cyC0OWOmuJ/3omwnHuKj71cz/1zSr8v5J/zxwcHJw7Bv9Kfuc3/SU80+sFLkBbHLzYQqJns5hMx2qqR5T2dU0fnmN9etDVczGaZY70Izn18CZ6IRHjDTRrTVUF0ltiMzpkg5plmK/SgGTRQqGCdqMi/FLEaRM3P/sSQk/nQVMt2s7IBTjL7CVCJrLMSERtYsXkvTjG/tERpqOhXtPttKxUHR/j4OHXEcdZ3Nmd4u5uXwHG9z1pWZFDxweVT+lWzA3GYQAnWWqsCsNEYCJR3ECtSNfrGDvrddzcquJiq45yFnINJnCx1aih2aia5ZoXSDFzOJniq7uP4CxDrNXKaDZoYFFAvbWGFz72KVx84f2okvemnrtRadT0TvEn56a573QjrdHOkuqtz6IH4Dd6pAHLvqfRU9Tjih7TS+hHWajXsZw4uk8spdwowFRN67zWSCETwZmOUSQImPSqiP6YDhr1qjY6g58KbU6VYahxySBLXcaURmlNRodmZsSe52iiKNCsnpQErWQIZIq4bNKvNKWe9g5FwK621iT3wnu1JCF+vjDd/0oVnYtXJOM8753AXxJSwT4cDWzt/rM9wMzd7ruZtBCqwIBH/B8Vcaezvh3AiS6csig9j1I6yUO+nhxYJEMDkPnBfp3ZiVlWb4d4muGLm8opI92tEtloHvzDyjP4oZ/8sW+6d/8qnvAdGrRWkldODSW5WKS7HgYYEmin3kOkDKJYqAkkut5poBw6iEgejUNlFQFPR2Sx3q4i8GIUSlk4S0elY38eJlIuWcQkQ7MvEsVoV4rolMsmC5KzHohOKC5MCuFFhE4w6zEbKnZRWKLypCVkwqe21DLA7psHKkeiyBf9ZzkaYPjmXSxHp9K8/4O7h7jz5pFOa2aNhCZw0ZqbdTHxq3uMFNSpybqBEiNUqZQaBLW0QlzdqOH5K02ss/8XuGq256MQ2xtrsiDjySqCt+9j6jo4HY3RH7koFrntmc1G+MSP/zxe/tgPIctyhLZr1FwS/oqQdOK1vnEf68+TdZ1fyIIkJI8EIKC/GcTBPCn5nfiQcseKk9+lDhoGHJKZiY4XYZo9uCiUsgQdifhv9VIBA+Kg3AWajQ5vioYKkjtmc0A0CWs5SBSHY3/7BGZ6okY/G+BUoCUCfWkE6dCyv1h+htam0POp5sByke85m4moXWi0RQVa+R5GvVM191cRJ3M5NLc2UCo3dCjNCDCloYgfIF8qwnNt0s15igjypJU5ROBbVNX0WC0QB9PJibIxfg5Kj6eln9x/vsHBcv7w54mXCg1wiJQaXpgfZQIxYYaWQFq4D6fNd+H7fuxH/ypi0jf9Hd+hQQtoFNjLsSmSyf0aGpq6VqkMc05UhbLkUUpckO4UGdIn2Hfgs3jK8OeZLE6HLlY5S32p8kAnm8D1JXmcySaBicz4XAYXmm3EWU6JUhG1nN6T2VDoxXB8TuA4Ts+hTWeWxDAA+QrCOCMvxqPToaRuPG+hU31wsItgcCQJZaoHfG23j9//yl1pWJWpNZ7LJyRlQ3ibxA4buiklg9M7ThhNKZTwAxq2Uo5lu1nAzloR3XoZoTPThtxZX8PWesfwN8mAQlgzj+oFDhYe6UcBwlUe3Wu38Nn/+POodDYTf8Jk4SZzSOF5ntB8/6Yr7G1PeEvQOp+GZcxRiVO/zMo06LX5qL9OcGxivpCO7aUQQWcg3pcVTSN4hEjeHs6S9BhXTuHaiGwuJwme6C4WuQz7xiCZamKlAUu9Q+v/CGIhsrG5RGdlF5Y06xN5bj90lVFN9/cMzNpd1+8bHzxS1kcmA6lBtWYTOcJxsiVN+pbLicjUbCNIM25FSAfXmmmXEfZB+pZh6AxzJpgDgNHoxLwwWU4m2ZKV8o/5j2+/N2lAon68HRDMsBIV1tRHgZNY7ptkUqvDkuqq7ZfwvX/3k3/R2/2X8vzv0KC1QnHFFJmYFR91OqLUaLxg7HmdyrzgStFZvCXyGsEc+Zgys8yCIvt3O7MRxUUsE3MB6lE5XoxKrWglI7WaNNombzmPRrGkRieVI3myyQQgH6G0ymNKQ0xSMWJgMGNfzcbw7Gt1Ox00ajUs6AojAwmOk5eYzZZYLed444//g+AZzN4mboR/9du/j73jY33CyzsX5e6jzCX5L+XmWSovqTxUywQAGvCWJR+zkp1uHRfXmIGEmI5OsEEhwgtbEjU05kCI+WKJAl1eCF4MYkQUhFu7jOvvfgXPvPs9aHfXDAfF7MOU+SxgCruTxSohQL99FT4R5vCE5frkoGUljCZfkfWxZM1OKemkXyPWApvthGck6rIS4csQ6JoQtSkB7TkmU6OGvklAk6ojgGrai0qClqaVCR40LRFTdVGDrVoJaWaz7BFReoYBLY195mLD9UOddw4JspT5cWbo3f86ovkUHnKodbu6vlyQBJ2S7zifjyUUKL0tEa75fTPgYSwoBMtjHoiU92HWLxcjHlo5EeHH41HS5w1MaJDqJ2l2fO76p0BrBkH7DuaJwM/MloGupybDBugl/IfKJwIMs9LgJHrjffj406D15CDMtLxRiEzilheZgYrTJXFBs8gFDrLsOWnlUC89lGSskMkhyz2TmmVvoEKzBOJcstZYZhAcj6bCI+UaJayvdbDiNNE1jShmKR75iLMF5n6AFpUdeOqsQlzY3hRehmk7Fy97UIIIiCEfyP352qVLaoIPBhOEuRzWOm1ZiQXzCf71v/xfVep0G201kP+Pf/dFPHh0oFH2rRvXzACVi4RYmziDk/5Qp22tWkS31UIxn9NEtajGcSTib7WYR7dZQ7OeldchAZRXt9py5lm4vhr2lH4W3qY/QaVcx63b78JzH/gYtp65hVyjgUrBSOdWgpp7i3KRcxpXiazoO56cTwpg539OJ+T0kfa9VJwJUmCBK46cM311EuPrcjEyrlzKemBGzWujgMbroQlejDw5hMzMJEnNRjbVOA3xn2aczHz5meiIzSxFkt0JTMF8AVMRb9KcUiyUHSYs8WjIQf9HZUWys+eBF8kdnEoUhUYVsb/E+ME9+RgW6xTeKwiawdVK+3p/OBZGimU+1w57WgQCM1MiyJRrjGUta0JWB0L7JxNK0o9W7DP1TgTpYCTkYZgyE9SLJJ6OpWZqApP05CxzShQy2NxIAKcqKxn08jkUK2QG2H3SIcI9sfF+fOLH/6O/lMzpL/qm36GZFtAt2kVjVqFTlW4iknbPIhfSCZilHSGGROSwHFwhE2cxIf/PNUv708VEjclLnS5a5SoHIsgFQLAMEFOSZLMDn6lw4GE2pwOx4W38KJawHSk+1KbK891lmZWTOzUzL/bAWL4WS2XhvozIWxT7nvbupO3s9Y6xtbGBTrOJ0/09/J//y7/QJiEKn4Hpd//wT3BwdKrXbm6sCw2vKVK8wpC2YceU3eXpucKFzTWsdzoihJeyBDZa+UqJGgr+VTm48B2h28nbLOVtgEDUO4m1zO7qrQ08/13fjWfe8wrq7bY+ixQAWJboRCfezRq5UlFIfvbn7Vv9+YLW40Z8iorX61IclECbpp6aBigpxiab0MpmrgMrJ3mw5XhoaS1AmbbOLva72CZIaERsKj/+HpZVKENiC4B2uAkeKy0VzbvQDGm1zc8s03JclFoLLGFNNpqZdoTleCJ6WI64ujjA/OgAzniAUq0Cjz1Rn1lkgGn/FMFimbyepH2GMgaSPPJZOgsZYJpBi1dLag4M0OnBwkBUyEg6ejYdmUZ+khnxexjh2wxfFIzVcE0kfaSqateK149TSa0BBjOKLBJeQRPYZJprQSuEt/FefOLHP/UXjS9/Kc//jgxaPOvXioY4FuqXN5RBi+FJOBZOamLkk01KXSkjyGbwxqCH4cRFq1LHwF9qcsYewcVGEZe32siu2DPIymcuJio5X0Lou3LKEfZLvQRTylQqr7KIfuos0XLG3Kf2uIIJUK9VTNGUeKEYWHgBZgvXPAPZf2MGEESYDXr4t//qf1emtbN1QeP6P7lzDw8evIm1tXVlNlOe1BJ1K2A4neNkyEkpZU9WqFdKWO+2UaRFWIm8tqxUHgqcIlZKaNc5OSM3zSZr1JXy2BvxPYznDi5cvYZPfvonsXP9tjiFDH5nD+pUKcGwXo7VS2Ys+ucNWAp0bx8VJr/grZnWW6eH6dSQ9+gM8gBSVejUTCColX1GUzE2BB8ah6gnZdr/bCbr5ywTWTpLVie2+5LI8zymtZiTEA1E1NNKSiUFLmZC8oikkqzxJtMsTb+DJWuilsAsiBkSf8416c4WqNZaWBH4HEdYUDvNmWuw4hIiQ9nr8QiL0x7CVeL1mLjlcJAAFBS0SOGx/q1BYSwAmYU9S0NhFxWoA0zHo8Sl2xYs/5eskLSUTu+xkcBtsEPITRq0iPzXZJ6ZLOlAZAKIDmQig1LxoGjAxvueBq13CsFcUt18qHQ4R89BAvsyGQEAC1RwsIaLJmTUvWLWodQ5Bk6nEzw6HUmVkQu3VCsJAb5WLuL2VgsZOvvGZo6BHD3rWE7EOJ1N5WLiRo4Qx5LMjWLUalU5tJCgyg3NySM3w+k81Hj98lZXkjChu6R8FWY+Sc8zLa7pcgF36aBeK8GbTPF7v/07Oi2pTsmUf/+khy9/5dUziRGWqK5P4m4VS3cpgvN4thTQtVTKoVwsoF4toklFBlFSQtQIjxANJauGriZ/LJfYdHcpfZLHsy+/Gz/6Ez+BnWu3jFdmnGIdBNJWSvsgaXYlMTmbYH2zx/mAdD7Anf/5+T8Thf4WnmHyCxi0LMVL8mYpKJBjZ/Zc6usRQkA0v0c5aDuoeH25RkrMpAnYJDF+RYPbiUkzh76yJOPTGQgzfVhWSwgD0e0MkPadRTanVyTxWIlwnkE/kv6e/mhwEJapPMgYRkmar7c7WBVKiL0Q7qgvoUDOCXiiZTwfo8MDmbAGKwZGy3h4gEhZl6XmyrBkuhSJfw7LWysPrQ8liAU1QWicSy6lDju+xhRBHgf/x80665WaZpYwXKlVHreBKFqmdmpYL05PKRqYkMGzgL/xfnz/p59mWk/cD2mmJamf5NQngPRkMMGlCx1lGUYzEBIPmZA4nRggyTfOYK/flytMyHY8vfQKK2xXijIyNSssUlYsXSbwdOWG6AeeBOCEjvasT8AgVa1UdX5xWshpDV/DrGwZ59VPWq8VZRXGqSDhDz0Snuee5HEo9avGKTlngzHeePXr2Hv4wHBnxaLMIO7cuStrMU1HV8B45khNlCoMJE07rpUUtPtiH6Vdr6sc4kJmWUEd8DLZ/py4ZbLY3NzElatX0Wq30Gw0cO3mDTz37hdQa1B+mUpbzDCsfyQemria1i/SBD8RkEt7XH9ZQevtWdlZ0EoKfqon6ECyj2XBJiFyMwvT/J+NeUJFQk9KoDki3wuWKdKdnBg4GdZK7JCwDwuAAqokap3MmOXwLDcgo/rEgaNgx4zLykbDDKbZpIIC+5xSNc1K238xXag0rK2tSWZm5fqIqRFPja5qSSJ+zO4nB/sI5jM4lMlhucjD94y2wwOayzidapqYILNzsT+SDIklHVsG6XeYjAZYcGJKqAhLvAQhz88rgOq5QYamsOc0zSi9pC2WIU7RGvJpm0BTxMQNy9t8P77/aU/ryduBi7SRsY1JLJKjsbY9f2djzdyX6WfHPpKaoIQmUO3PwIGSEMnyZC7BD6k/tEKJkxiWeSQXsoGaT3o3vGnsT7HsjNjM5wAgq74FJVzO0OlSmMxITG3pxdoU7GvVyjl0200BEVmXOFKciMVrTF/rxSHGozEGB0d47StfgbtY2rTJdeWqcnJ8gv5wBI9AyJkjhDonl2zsE0TL52Zzxp6jYimlS9ioJZKfzkFXL1/Bs88/i1deeQU3bt1Co9s08TdSNZJJILPTlJCcZkRpYEo1sXTtkjLi/7+gRcln3gsrf2ggoSYxD6lcRmqyupPMFIkgp+6ftzC/QWY9iSY6P/9yOVd5wwBdosa7Sj3Tv0o3qgxlibui1yRLQ70vTTKsZ6gARVcg8gRTDqLek3acWbEnXMrGhCu0ti8hV2HGVxDFK5cpIs4VUGrUERH0OuxjdrCLledi6S0Q+udKRPXq7FD19HOuaQYQc9qhfwGDFgMVMyxiCHngMAAv5zQI7olnSx2vFNpgwwUrrXVAJ/Z5/DPLwrO2yzk6UBpAWVmk5bJI2Fvvxw98+u98szPsr+TfvyN7WtycpZUnsbrecMLqHd0WUe1VVMtlIaHZSC9NplgVqAmUR4ZgyAL7sYF6SMTDyD2F6b8yMhKkWZ8DUYXGlHwyN0WoTcDeJPdJWSl4gEKjYs3hxIWa5NysGyEoZuCuDLBIQjXlS9bWukqlmSFSScJ1XNQrdQUflpOIbbJ5cLiH+3dex52vfRXz8VA9FaqFckOMplOc9Ec4ODkVYpn5BcGmDFU8eYslnusRWnXi0lYo5ovY3tzGK698AN/7vX8Tl29ekfu0YCFJL0rNWfIOk++gHOOsCksglQxSyWROgUrV03nPtm/POkxLFpaH6cP+aL0sQ8Hbqc9NYo1gU1Hg3xic2GgULkuZbyhIDD+rti7hGcwYi+QTPgYjp7/Lqj9TGLX8/bG3QNqEVzYVk2xuGVAqn8yMi36EIkFTh0waW1IJxKx3Kv5hda2LUrOrz65pJbPyVQGFagPtnUuSU6ayxHjvIeL5GC5NU0LTDuOkj1k9J6Uc7PC+SwiA3weG3+OQxnI7Sz2LiZsOX0sJ8V7vWNZf7EulmZZljnY30x6XALtJVqXgzde/jQ6kwJi3iSUfDHDh9gfw/T/xNGg9eTdw9L0cwqH+umsYlO31NVlzqW9D/8JSGRU1k6STKwApe0/EE5EnRwR7TipwbNxkEGVj6WRp4xa0DbQJGGx6UxpUztVPuthpwvEWaLVq6JSLCWk0Zzc/iBFmYow8R4qTUGlVRFGKE7bROUmUk02W6pIVo0d4MSLfh0teW7zC1752B//hi/8ep71j9SSI9GaiOBxPcdofYemSIG1gWjZJWS5SaZS0nHa7jgvbF3Hz9g1cuU4T2AbKlSrqrfZZb+wsMLEUCojsN3zb+Udanql9m4gmnu/3fHtC1eN3+UZBi/+qDcP7F5uiRTodTDeerjvBlfxPQogrTYZ5H8hBJVCWvFKRmvl6OjEnvZvUqIFZJxHpDDo0QU3LzXR6mf6/sjJqsStwURgv0XPTUIBlOqEtrig+FPKb9XsSRKyttZAlUp/siKWPaEnqD+EDRVRaXVS2NkGp6FyB2lpDuEdHCCiFnWRy/P3sTzLzNjfsVIuMNnpkPhhekf1HPZdrXqnlyp6foXPQHKNRXwMMHQLMroQffKw5l5a6vM7qEdJLM5m66qgSSDrJQokKTIK/1vDFD+IHPvN3v93L4lt6v+/ITEsN1smxlELJK+SZt95uqXdELBWNVFuNOiqVIrJ+jGjpIlspiAzssVyIfLTKFU0QeYLlwBvJxZohjEsbQKdpNo+5G+GQrr1UhghoDhpLrpiQgZcurouCYz0MO+352RarlYjO2UIZ5VorwQI9Biky7TeqjS0KGWy6DmL2JkJPrx3Pl/j61+/gS3/4JTx6tKtA53gB5g65kMDmWhdXr17FrWefwc1nbqBWq4jwWyzQyr4MopqZITKotRSw7LuqhEn4cFzYnHRK+eFtjzMKTYJ/+8sMWMqnEpzQ+UzrcYZDbNbjoMVyiJuTDkm6qlJTiMGjg0HLJSdPWQ8xcz5qtZq+HWV90mmemuzUERMBmFm19EuVicssI0G7G70lnayZEQUzF64BviLVu6KRBQMsKVfLUR/z3hH4XUrtNWR5CIYxvLkryg4PVYIVqp0umlQDydMhyDLgcOEg60dqC0TLhdGI+FkjSnU7BkNI/AiZhRG7ZdZeJmbIB7+zymIeSEl/l4PN2WyM+YzGwul3ssCTZldnB1Vyqgm3RpR/Qt1Jy0jr4T2GUeh5Fz+EH/zsU+7hE6OsYV6ObIBL/XawIV62BeMEaFfq2OxUkV+RjMNeQB6rXB6HgwFGS0c4pnqtrkZ0meJoAX3pQkTZUEhflhycTLGge+NkJD2rfLaIqesre+Lvr2cjvHBxTZM8MwPgTeQyJk6HJqQJH4+9iEQtkpuKQYKZgRYDsz7222iGwAYoT3IuxNDMS6nDNRpN8epXv4rDk1P4YYzFwmE7DX/tox/G7WfNOLRcMXjCfGGehVzMlUoVxWJF2ZUZ1KYqBKaBnwolirJhBi1WYiWPVM9dAeWcgciTpoHf0pGYvIi/1wKUUVHOPsM58jTLw1TDiUMPQhpIXOehxe8jh2atB+KayAQwtL6yq4SmxM1tiHMzeyWOzlysCQFgNm5ijQzm7HMK3pCoOPA1KpPPMFuEQlh/i0h0U88IsFxM1UxniVhtNxAx6PuBPC+XdFxSeZtFoV5Fc2vbsnHmYJyCE+80pY9lVSa2gecKskL9eH4Olo8MSIWSGVbIXdo3ay+DXSSKopwuJr1O3WsWkZRTCgOZYBjVzTTH+JD8zrlyOCVJK6s9k7Wx6aHxZR9nZ2nGG174AH7osz/+/2UZfNte+x2bac1HRwYADEmEbSjjobcgq2zCPRvlLEo5oFIoi2NGlTxSa1yeEAnSWJI2gY+Cpk1s4PLESuSb6aa7ivBoMMXUj1DIFLFQvW8LfrOaw62LRMDHZ5CAFcfJGeoalc13T354j0fMFKQzrfAMwjJNX1fI8nfTiVh0Gjr8GLpfjXFOFJJeBtUX+N2ov1Sr0549j5VniGluNm5I0cNWDHrc4BlT9GRTVmUAk5FEmC49PYl9SByGVRKdg0hF3xzN8BfCaP2ZTC45zdPfezaGP6cj/5YAuTJbdwuiJmZIihKrFypdUDZZTtOicVlplHIDzwYe1E9PMiwr1/kcbnQebJyMGFSBAZ39K6KdeD0ZEJgZ0y37rCxlhsKSkBI/gj4Y/GHa72E5HqFBk9tcRgas494APn0GpNaQRa3VQL3VxCrPdZlX6GBpKWkaZb55lCrMlosKuxQAoKWdghbvM3+u6XZWfVZKdgsdnxxMuv+cehOvxe8h6Ip5HM4mA/l6xryeK+pwmY78WQmcUKHU70yyNGVaYhaYkGAKSbFrQcmbLILtV56Wh+8UdnkqTk6PtEl5I5rNujYm7ZMWzLYWtHqC9Na3O/0cFhQAACAASURBVG0UedrlmNqzfssJVDkYDtTvaVZKKIjDZdND2zzkJzDFDoSgP5lTMG4ljJUB7fK4vN7AeqtuJ7zoLSy9qPvN0XvJ1DtzWS3CdENmGLPU3LR/o8SJje4tWmiRcbyeuNckXW8LpImml07T1IhUhgMr2aEn21kTIn4eZlu0YU95cBltTHukfaEUIMqffVuDlqVM3+CR/FA4sDStWyGTKDuI23budWkfUMGF1yp9OQmhLOPUW8rAYaahZjWpKSwLzccyLevSQHPWbGZZqE1O2ArR/uz7sGfDe2lTM9Jf6FdovT5zZTYplgSkqVZAJC6hGahEyDAzPjhGiYh3whgWCwwP97GczfQdiRcrNqoo1qp22LECEAncgzuZa6BAuRpqnBFwSnv6Sr0pH0RSe6gmMZ+OzxRIFZSRV6bFtojJH5vJyYqHs8pKC1rcH+VSCdQDGwxP4flLcRy5FtKGetoCSJVNrVFvjft0zfA62H1JTDGkoJqBv/l+/MBPPu1pPTFu8SIPjvfRFqeulth5s5YPcP9wIsPRa+sddFsl0VQK0rfiiSz/XPirLI4OD1Q6bW+uqUfErIqOyzpZORVhjyRDCscKrAr7k5ngCutNisNlBWNIidg2ZeHvyBnCnkErAWcyezHAH/W1iCjOq8wgENBSdBHrjJ5D/A2zwIRlz3IxXTAsKc6qt7T00YBKspxqkpqCq5FezYUlSZcIENSJaAuO/3+W2ZzXwTpXHp73xzuf8ZC68/aHlrC5oz6WcUkMJs695VtedvaeCmAGaNSlOGfNQ5qUAmrC9Us3lbxhGLCiQOYTc1rLMxsqlVCm9hm9GLWhrWRSgDg31ufvph4VJV9Y3mVLDTEQVDZm8sp0yRTwPUdULfJICUyVnpW4rDY1EyqccsQ+M7gAIRv/gzGaF7c0wVz2ehgd7CXZUUEZFtcACzYdduEK3tLBYjK1gKVmPCELBZGS5ebdbKFUadj9Ip1s1NcatXtIyiL7WDnZefH+M2DJtVyS2SZ6yNdK+UPg0Cym0yFmJGMnh4c4uVojllHxPRTUE1WItKelIK+Skd89cfERJSiDYOuVp0HrnTItniDzyUDjfd9dwllG6gNQ6mW0DFAr56XSWcwGIMlHnKxcVpIwBAvyZF4sF6hVq6hJCsQIpFxOlFnmydmslkSCJqiQTi1sxEdcRBUzQUgflqaT+8jurQFWifWyksx4Xan5qFF9/iz1RT26ZKpIxHoK4ks3rKkKWABKg43+zl6QMrUk9iWmCcnuf8slTD9nWiq90/V9p39jxvqNHnRHPssok2uSlhzf6PnnAyEPjD/7YBlvyO/0OkjHigGZdzUJWp4/R384xszxZPm11arK4DRMOJLKrkiUTjYX30sHBDem74moLrllOjLz/mTMwISMAbpF8/7zvuWL5URTjVmVue2cTVzFG3Q0LWRML3e76k9OD4+woDeh76HRaSmLlkyMyI8x5uOJ5LaFKSR/kpkN4QokvZeKyFGnvVJDqdZAPk8OaKye2WI6EkKdfU9isQoFYsyMVsNgxe9GwCkPSsJlxA5JpJN1HUimHvbguc5bDi/+/vR5qRkMe3hnuC52j5MDj7U0P4MUgzkLYU/rpz79rS6rb+vrviN7WqJy+HMRlZlaE3BHRDMDEW94OZtHxEnaKtAJxmkNFy59aPwgwnzpngm/EbVOnAlT8tFijsU0Qr2RxYVOQ6Ub0eUkRehkyRaxSkCnab2fliA0UtUkM8M+QVE3k6cV1RqkmMnRc4KRUb8grXXE9fKTCRAnQ+awkmZFaaBKtU5s8mMobvXAEmspjrXZx3pcX5m3X7rhv9VVkQa79PXfMGjxoNbENcFUJYH5Wwla50tC8vvOTv1EVVMTsgw3sAE+Y3+G0XiKwXiKVSbCTrclY94gR/kg2pxZdiDqybkpqSZ9zEwWY1FyCtW2EOt5auGrJIwReY4FrkwWpWpN15dIeGbyPCy4Juw7xsgFPsbHRyg1a8jQIWrhYnF0Ct93kKuWkaHfJN+PCg6Oi1l/BH9B6AOxZbFgLdKRj6PE9dk06ykWmCuWUKdwYLlqrkkUilRWlZareVHMWNpKN98PkqBF/0fK8Ng6kJxPoYByJY/pZITxaHgWtFLuYVoupkHLvqNlaCkqRk1/HSCp52QG8cUP4kd++jPf6jL7tr7uOzJocZH4i4GsswiiI4dQIDw2n4uUGY3w/7Z3HeBVFc/3pCeE3pHeRVTEhgVRERULRZCiFPWnoFhAUQFR/xbsFQQFadIERIoUQRCwoAgqKKDSe08IJKT3/3d2301eQpJ338u99wWY9ctHTHZn950792R2dnYmm74BnUUEwXxmQdmqKnN8XAoylAOfpn4WykWyCGaocnoeOBaFcqXKoGa1cggJ1KEI/DuSTrNdFXFR2aTUqYtyljO/EWNUaCnRZxEcrIL/DH+K+qvuus+mlNtV8FSnNnFdQVJO2HT1l1n5VVyJmIyXN8/WLMd5HaDvzbmcpiqk0MjflOMUyqk+mFchXEdwit5cvoncDmdu5gyHb06fAraHapvB7ahra1eQNZlfK5VV5gocNcpwqZfAFfukM4nqbYqOQ9LFO2hRh4aXV+EN3CKmJ8WqF5OFH1iBpmzp0upeaXZgKOJYK4DhLaXLakuGz89FXJq0WGw1Rfl5mOwuJLw0QkNL65sTSkfSVLl7+q3CIsoiIDhMWV4qEy1dCcYVnqwMhGRnIpFZHErpC/KpJ2ORlZCkqgBFVKyItPQ0pNORnhCP6OPHVRYHnvCpWwj8o6qqRrFIhK43qKyYUKaIjlB/BPmHL6JCNYSVLovk+FikJsYhM5UhMlr3w8MjERJMi0tnN6V2cctIi4txW/pEMFPJDg3TdzRPxkSr+7rqsxjbcP4xVFWqXNH+2Tols9IVl36qP7ouveYzUYVkLmiFTg/cbyn5+CqsRJIWwT9ydD8iw0upoMHTTGAXAFQuWxZlI4LBrQpCddYFAhzCFyogA6kBwUhN4vEwrTMdc6OSyIWGq1iZ41ExqFS+jLoKE8gSLsqvFYgMFcvFwAqGCvDom3E1JEdmc0hXwYx0BBt5temXyA2C1Pmn8ls87laIIi23ID59d9KVc7yAJ6fykbtOh9xJTVllLj+ZchcXkm+d/QyrQx/56/UZY92nVASUUymxcDUyTpTcZReldOras8rcQAtAvyBqTeoYn5HfYQgM0idg/Kufqort6tNBFmeNCAtRmRbSSTj08XCLSVeXytdPP08wEpKScTo5QW0bIyNK6S2iK8Oq2iK6csynMUwkPQWhEaURFlHOlRXVlV4oIwWZSXEqJ3pQWGn1nDTmujCrTsaXriyt5IQk5WRnAr7E6BMI4vatbBmUUuXkMtRF6JgD+1UOd1rIRmZUyiM5k1h1kKjO0cW18rSYFpfKzhseiVLlKqrrVykJscpyI2Gr+DNl9YS4rhXRhxWiyIuET8uLldONrZwOUOX1Jpa1P6ZCIAzr39BL9UddKYXL/eHSpRy9cVn72uoPQHata9D5QSlsUajOU8mPHD2oLgLzpCg+KRkXVCyrCjGohHy6kKHyManLn6lUtHRkhQZBFU5ggKArNiUzhCEKwUoGj44ZXc76hiqzKS0junN5LM3TIZ4WBYaqSGbmomKBguTUFHUfLzJMn/gYL4Yn0lL64CImZgswQh6UEhjXK4w7FvmQUFaNK+eR+69UXiTDFe4KGswPorHd085tvZ3M8Ze5xUgZU+t86LnxDwUVo8g/h/s2LM/63EiUfizj8xtxQWrbry4DZ7kKLOhQDhX86PI56T/4zI2WgVSWhU9PVymUQ4O0Jcy6AAgKVSeCrJadkMwsGBm67iOJMNiV34qndtzSZmUgPZk55uPVfdPwiPLKf2RcH1IpcJIZbpKBUFpbtPGUlauv+ygfFbepiUlIOh2PyIrlVYhC3OGjyi8Wzus75cqqrSTvFkbt2Y1UfqbUNF35R2WvdZ3+KnPZdSeVf3fDuQ4dNMpTOwYNh4SFo1T5ijoQmpWGUhIUqdPiUhWtVX4sppUOU5Y/5zAuz6utKPFyhS0w1i0u7iQSEuNy0nYbf8DykxY/s2EN6jXptek8XNnIvqAVOj/Ux1fjyNJxJdLSUiZwaixSUzMQG5uo9td1qpZHSHaq2gqqzZwClUqZjYD0TJWlNLR0mNqiBbFYAPEODUJ2WKhyzvMvOeOswiMjEcoXlU9elS1XIaGKVGhVMVyC20P+taPFo65aMCtDTsJ/V2ZLt0u3uQ9Xn+pxXbmOddf20Egyp2+95SqEq3yVQTG6BLs+ztZyFftp566bI16/WAVXtnHfvuljc236G1W3NaHqwiG64o6r1L0iWTeZ6q+wXoS7j879e7ebhNpCca0x98oI08Po0vEMrmTIBn2M2irIdqWmzlKOcO2gZgI6phZORWpygrr6FBoYiEjG3KlQkhB1gksndXxigrrbSeuI6biZOUMXI9VpaBRnMe1yKk/edKxTWERphIdGqqBlHdOVioy0BGWV0ynO+4vEX11vMU48s9KRFnVCWTThlcrpdcecUtWgwyuWU2TIOTMSknBy/x4kJcQhNSnVlciQV4C4HdNxaK7rlgpP1ulUB0Su5xAeRtIKVemaIyNLq0efmZaot4gMiUjT6YiU1ZQdpC5mpzNdM//gkuqZQTeVNz8C1daXGPL5nTx5AhnqQrh2GagbE657hUoPeJPCZWHqIFbqv67BqS9cBwBCWp6Il5WUk3DwSJSq4FyvSnmUCQtCKLdwAczuGIpMpq9VJ0yZSEpIRGJyMipWraxO8yK4ReQ1msgIda2DD1PfTQtGFh3hPD7nH1IqTGiIimpO4U365CTl7FfxXWX519N4WXW0uXGuZmxBDCXIeUFd2SKNT5fzcqurNS6nuZsrXTn7XaddKnooJ3JcR49rS8XlS1Lrdw8YKHx7mJe08p4GGpaYTmbpIiVXF+Nz5K7b9UK5pTrJ/+TOOCVU69QltXKaq8wVrYBs5L483HZpx3IqozqUs7oMiz8EhiEzIxXpKQkqbolWZ4Uy+v4lt+4sKMKA0/j4eCQmJihUWCGcBM2LviQ//cIxqpwpfFJ06fl01owMQniEPq3TYSjJyplOa48WD/9A5fxBcFlFrIEZf/y4epFZIJaFV5NPnVYVdbLDdcI9JSsuARkJp1XBijg64lWoRG7ue53HXVugxjMi1sofF6zXzj+WCA1T4ToREeFIS2fdgEDtbHfl0Df8UYzhYmwiwy/UYQRDNFKJaSZSXHnyecUpJiYG8fExOluGsh41KRt/zIzQCCMLiKrOo9wvLtLi37xa16Lrww94enEd+X2JtLSYCC06pQySGGeTnY1wxti4nNuKSOgodzmMVdQ8syEw8wFjX6ho6mqDLo+uLQ1tWuiwFP3/KjDbldiNdEKyU0rl2rrkEpa2jIwSGQVtx3JCAVzmtA6Qydez4EgC11UU/uXU/XNJwMjIkFdQYXFR7rMVHPeZY9+5urr3crOX8p18FuSvy0OdeRbkFouVf6EGCRtlvFRmBh1sql56lSWWmWF1XJDC1HW/kEf6PPrX6et5SKKNIO1v4naTuc71OMOBrE8uXJkiXDUKDWx1aIURy+Yqe+8iEm0JaexzDjNcAaLq9oMKv9PbXOUiYHyd648Lr/OoAxQeJKkCrK5QD7UhcF2NMchcGb/6Ar/anqtaCK6tvOswgWSmrGmXtW2QS64/VJOQ4WTX2Uy0BW6MI/HQSmNuMW1uF6xX/Nj6qpSxJczVD/VdeHm0bFzKEVLyNEmJJC0V3FmJ5axM3DXx9Anl94KAIGAJAtHHj1gip7hCSixpMQNnYQ7f4n5oGS8ICALeI3DkiJBWoaiRrIS0vFcqGSEI2ImAkFYR6App2al6IlsQ8A0BIS0hLd80R0YJAn5CQEhLSMtPqifTCgK+ISCkJaTlm+bIKEHATwgIaQlp+Un1ZFpBwDcEhLSEtHzTHBklCPgJASEtIS0/qZ5MKwj4hoCQlpCWb5ojowQBPyEgpCWk5SfVk2kFAd8QENIS0vJNc2SUIOAnBIS0hLT8pHoyrSDgGwJCWkJavmmOjBIE/ISAkJaQlp9UT6YVBHxDQEhLSMs3zZFRgoCfEBDSEtLyk+rJtIKAbwgIaQlp+aY5MkoQ8BMCQlpCWn5SPZlWEPANASEtIS3fNEdGCQJ+QkBIS0jLT6on0woCviEgpCWk5ZvmyChBwE8ICGkJaflJ9WRaQcA3BIS0hLR80xwZJQj4CQEhLSEtP6meTCsI+IaAkJaQlm+aI6MEAT8hIKQlpOUn1ZNpBQHfEBDSEtLyTXNklCDgJwSEtIS0/KR6Mq0g4BsCQlrFIK3kdCA72zfgZZQgIAhoBEKC9JfZJqRVDNJatQ1IzzILtfQTBASBghBoWg2oX8k8NkJaxSCt7/4FMrOAyFAgIMA86NJTEBAEgNQM/dWsBtCoinlEhLSKSVrBgUCrekBQoHnQpacgIAgA+08Bu6KEtCzVhcDAQFStWhX8t6BGS4t78RubACQvaYKAIGAegd3RwH9HhbTMI2aip5CWCZCkiyDgIwJCWj4CV9QwIS0bQBWRgoALASEtG1RBSMsGUEWkICCkZZ8OCGnZh61IFgTE0rJBB4S0bADVzyLT09Nx8NAhBAYEonbtWggK8iKq0c9rP9emF9Ky4YkKadkAqp9FLlq8GCPefAthYWGYMG4smjVr5ucVnb/TC2nZ8OyFtGwA1SKRW7b8g7T0NLS87LJCQ1LyT5WdnY37evVGTEyMGntNq2vw7ttvWbQiEeMtAkJa3iJmor+QlgmQ/NDlwIEDeKT/o0hKTsbYT8fgkosvNrWK06dP4867O6Bt27a4rEULvPfBBxj36ae47LIWpsZLJ2sRENKyFk8lTUjLBlAtEDlz9my89/4HCA4OxuUtW+K9d95W272iWlpaGj4b9znmfP01Ro/8GFdddRU6dOqMK6+8Em+9McKCVYkIbxEQ0vIWMRP9hbRMgOSHLq+89hqWfbccPbp3w8xZs3HZpZci0INDnVbZtm3b0KB+fcyYNhWhoaF4evBg7Ni5C4u/WaAIUJqzCAhp2YC3kJYNoFogcsATT2Lf/v2YM2sWBjzxBHbs3IkyZcp4lFypUiUMGzIEl7e8TPVduWoVhr4wHKNHjcR1117rcbx0sBYBIS1r8ZTtoQ14WiWya7fuiChVCtO+mIzde/bg9z/+QKMGDYtMtREQEIAGDeqjcqXcHCjx8fG46ZZ2aHPDDfj4ww+sWp7IMYmAkJZJoLzpJpaWN2g517f1jTeh7c034fVXXy32pH0eeBB79+3Dzz+sNn0KWexJRYBCQEjLBkUQ0rIB1GKKTExMRJub22LIc88pn1Zx2/NDh+Gnn3/Gd98uQcWKFYsrTsZ7gYCQlhdgme0qpGUWKef60Zl+X68+mD93DurXr29q4qysrEKtqM/HT8CESZMwd85XqFe3ril50skaBIS0rMExjxQhLRtALabIadOnY8rUaVj1/QrQT5W/RUVFITMzE9WqVTO13VuxciWGvTAckydOULFb0pxDQEjLBqyFtGwAtZgieXJYKiICH37w/hmSkpOT8fHIUUhITFD+LjNhDJu3bEHfBx/Cyy8OR9cuXYq5OhnuDQJCWt6gZbKvkJZJoBzqlpqaio73dMGTjz+ODnffVeCs3yxchGuvaaUsLTPt+PHjuP3Ou9D+9tvx+quv5AxhMCovU/OL86akpCAkJERZd9QLMyEWZuY/n/sIadnw9IW0bADVhEjeETx8+AiioqMREhKMShUrKrJgiAKtosmTJqkMDWVKlz5D2rr163HpJZegVKlSJmYC9u3bh569equI+jdffx2ly2iZmzZtVsRXvXo1nI6Lw8lTsWjatAnCw8IUkdWpU8eUfOlUOAJCWjZoh5CWDaB6EEl/VFxcHI4eO4b0tHQEhwSjQvnyCA4JwaFDh/D8kKH4bMxoRJ04gSqVK6PZhRfmSNy//wBWrlqJ0NAwRTBXX3WVxw9AYnznvfewevUPmD51Ss49xoyMDJA8jcbvuS5aW2y0tCStjUd4i+wgpFU8/AocLaRlA6geRNKRvm3HDqSlpqF+vXoAskEyosVz4OAhTJk6Vfmzal5wwRmS1qz5BZdcegmCAoPw7dJv0bNHD48fgOWoFnyzEBMnT8bDDz2Eu+68U43hz+kjowV2wQUXICsrE7t370aDhg1B9z8tLU/3HT1Ofp53ENKyQQGEtGwA1YNIhifQquG/9Cux0erhs1i1+gf1804dOxRo5XCccaLo/n1RU9KyS0hMxF0dOqpsDyM//FB1J2FxLsozLCquISIiwnlQztEZhbRseLBCWjaA6kEkg0cXLl6CTX//jePR0Xl6nzp5Ep+P/QzVq1e3dGEkrh733Y+YkyfR9uabFWkeP3YMicnJeeahP4tWF1t4eDjq1zMX18Wt5M033SSWWb6nJqRlqRprYUJaNoBahMhTsbEYP2EiZs2ejbCwUISFhSMoKBDp6RlgmmSSxvJlSxVhWN0YGf/9ypW4tV07XHhhU2RlZiL6xAkkJyUrEuN/R48dR3JSkjog4HpoARpfXA8ts4IaQy++nj3LdDCs1Z+tpMoT0rLhyQhp2QBqISLpLxo1egx++fUXhIdHoH+/R9Dq6qtRvnx5MOnf73/8iSXffotFC+bbYrHMm78AI958Ez263YsXhg1TqzS2qsaSaZFl0SEfG6uI6+DBQ2DIxNFjRxWx8f8NEouKjlKkx8OEKlWqKNLiZ5GWi4CQlg3aIKRlA6huIvminzp1CouXfIuv583FoUOHUbdOHTz4QF906tgxT0T7ypWrMPvrORg/dqypSHdvV85sEd173ofKlSvj3bfewviJE3Hdtdeg1/33Fxh5X5B8bm1JdOkZGVi7dq3KjJqUlIz7enTHM08/bcu6vf2cJam/kJYNT0NIywZQXSL5gm/YuBFfzZmDdet/V6EE1193HR7t1w9NmjTOmXjXrl345ddfsXXrNuXLGjTwKUtefjr5STC0nkgyaamp6NazJxITk1QYxZZ//kHt2rUxb85XKmGg2cZt489r1uDDjz5WYRs33tgGb44YgUiTcWNm5zkX+glp2fAUhbRsABVQ8VbTZ3yJufPnK9KoU7s27u3aBff17JkTB2XMzAvN48aPV/97+eUtcdcdd+DCCy9E9Wp5nfGJiQlgVFXpyEhABSXoE8CTp06qf0+dPJXzYdhvx44dSEpKxIkTMaqkWNzp0zh27FieD9yze3cMGzrENAjcGn45c6ZK60xSvOrKK/HmGyNUPJm0MxEQ0rJBK4S0rAU1ISEBv65dq5ztzGFFguGpWt8+vdGwYcMCJ6Nf6O133sG27TtU7BQbfUT5/UO8ZsMWHh6G4KBgZY3R6lGhE+lpiI9PyJFPQuHv2Iwg0lo1a6Ju3bqoX78ealSvgQsuqKEuUJv1Q9HHRcKaNWu2kksLa8jzzwthFaFCQlrWvl9KmpCWNaCSGPbs2YNpM2bgu+UrlNCLml2IB/s+gDZtbjB1sfm/rVuxfMX32LtvL9Jd8Vv5V8ftHLeZzE5arlw5BAQGokqlSmdsJ+MTEsDtKVtUVDQSkxLRsUMHNG7UyOsPTL8c/WHcDv62bp2KlO91/30qUNWInvda6HkyQEjLhgctpFV8UBnGsHTZMnz22VgkJiWpO4GdOnTAE48PQOkC7g4WNaMKPXC7WpO/rxFYWlDKmsLkGvK8GeMui/npn3hqIKKjo9XnefutN9H6uutMO++Lj/DZK0FIy4ZnJ6TlO6hJSUnYsPEvTJw0Cf/8+6/aptGSoe+q3S3tEBqq7/AV1Rh9zmh0buX4L59HSWq8nD3ijTdx5OhRtb19euBTqkBGSVtnScLMfS1CWjY8GSEt70GlZfXDDz9i/R+/q3+NqzjEknFXkaUjeZ3QVONF6dCwMCQlJqoTPF6azt8CAwMQER6h/FxmLjCXK1tWhTUU1k7Hn8aGDRtV6uUWl15aYLeAwABs27Yd4ydMUFH0l1xyCYYPHaqCUqWZR0BIyzxWpnsKaZmGSnWkNfX4UwOxbt067wY62NvMNtDMlpFy+HkbNWqEkR9+gFq1ajn4Kc6NqYS0bHiOQlregzpt2nRM+uIL5XsqFRmpfDt0TjMvVgACVLaGUhF5c13xWg77xMbFqghy93bo8GHs3LULderU9n4xrhGMvWIiv/yNDv1UOvUL8JPR/8bPQItLxWllZyM5JQWZGRlKDHXjiiuvwLPPPFNgxgmfF3seDRTSsuFhC2l5DypjoliHMDsrGxUrVVQvd/Vq1XKyI5CgzGzjjJm3bt2KSV9MwWuv/J/3i3GNOBETg/jT8XnGc4eanJykThG51vyNxLtt+3YMHzYUTZs0VTtaJgM0yI95vpo3b64SFErzDQEhLd9wK3KUkJYNoHopkqEOjIbv2uUeL0cWr/uixYvxf6++pkIXnnryieIJk9EFIiCkZYNiCGnZAKqXIletWq2c3d273evlyOJ155zMscVEf6yJKHm0iodnQaOFtKzHVIJLbcDUW5G0eLKystG5U0dvhxa7P0uLfbdiBT764H2VZ8ubxutJGRmZeYYwzY6ZCkHezHM29xXSsuHpiaVlA6heimSmhF733YeaNWt6ObL43Tdt2oT/9euPW9q2xXvvvK0Euge38vTQuD7Ea0KxsadUhD2vDfH6UdTxqDyLqFqlCnr27CGBpy5UhLSKr6NnSBDSsgFUACdOnFBpaJhdgRhXrFghZyLeRzSS/PF3I958SznDy5Yta89iipDKANnOXe9VzvoP3n1HrXfP3r3qkvfOnbtUDNr+/fuVBJ5CpiQnq74ZzLvlyiDhLr5y5UpYvnSpVwcRjn9oBycU0rIBbCEta0FlNZuf1qzBokWLVeoXnsTxJNE9xomncSQo/rxx40ZYtXo1Jk+Y4Jc6gySe54YOVZV6eI+watWqykoKVtu8EOXvCo8IV8GysbGxTq9bMQAAIABJREFUKkFgxQoV8lhSMSdjsHfvPgXkHe1vx9tvvmktqGexNCEtGx6ekJY1oPLlZ16sT8Z8qnJj8cXny122bJmcCXi5+YIaNRAYEIjSZcqo2KebbmyDF158EV/NmuU3RzivIj3Sv7/yRY377FM0adxYWYdcb0hwcI6PiqEebHTYuxfXeP2NN1S1H8Z7TZow3lVhyBpcz3YpQlo2PEEhreKDypQt8+bNw4KFi8DyYHypb77pRvTt00fVMzQaX3ReODaq3zCgk2mWH+7/KBZ/s8CWvPBmPh23gr36PoBt27apNDrvvv2W6aSAS5cuw2tvvKHS37zx+mu4o317M1OeN32EtGx41EJavoNKf9DqH37EgoULQYe2iiC/vCU6deykck1FmChOQavso5Gj8NXML/2a5mXq9On4eOQoBcbQ559D/Xr1sWffXhw9elSlwHmwb98zTgVj4+LwwEP/Uz6vSy+9FJ+N/sTrrBa+o392jBTSsuE5CWl5DypP144cOYrpX87A13PnKYd0tWpVcW/XrujTq5fpohSUM/urOVi0ZDFmTJ1qmfPaOP3LfwpofFJmlIiNjcORo0eQlJiE49FRKt87CZhWoPFFH1eN6tXRpGkTvP7KK2d8rslTpmD0mE9VKh6WPbu4eXPvwTzHRwhp2fCAhbS8A5UEReto5CejsXfvXmVZsGJzzx7dVcEKM5eVjRn/3LABX0yZivj4eAwd8nyRY+kHq1Sp8Os0LJ7BEz2e9jEkgdWiGWWfna1Lfh06fASnYnU6ZlU6LPoE0tLTERlZCuGqjFmQmr9W7Vq46MJmqHFBDUVY1apWVf63UvkKuB49egxdu3VDUnKyiuR/afhwrz67d6ifvb2FtGx4dkJa5kHlySAtq+lffqlOBS9v2RI9unfDDa1b+5Rfimltvl22VAWWUja/eGE5fyNh0EnOIqr5SZH+qOSUZBw7ekyFK5CQSEbspwpNBLhSN5crl8e31qRxE9SrV1eluyE5UT7HVMh3MlgQOiTuT8eOw6TJk9Up6Pixn6mc9tLOREBIywatENIyB+r+AwfwyZgx4JUbnpL17tULve+/z7TD2swsv/22Dnv27jmja+PGjQt10icmJCqLj4VW2Ug8zS++GMGBgWjWrJlPZFoYURk///e//9D/sQGqmAZLhw0dYr4whhkczqU+Qlo2PE0hraJBpUXFMmDvf/ChqmjD0l9Dn39e+W+8yeRgw6OzVST9YSzSwewR0VHR2Lp9m87+kJ2NZcuXq7is+vXqYeRHH6piGdIKRkBIywbNENIqHNRdu3Zj2ozpWLX6B5UOmb6rB/r2AavaGGELNjySHJEkDm7/+K9RpKKw+dzjprh948kmG8MxUlJy82wdjzqO03GnERIagnp166laiPsPHsDp06fzzEEZhw8fweEjR1SFICM7qzE/00qz1qF7/UY7sThbZQtp2fDkhLQKB/WB/z2sQhnYWES1UcOGaNq0KUJDQlR4Qu18Sfv4c9YqDNAlCXMa6w0yPIA/ZukuJgs02sFDh9XJI8cyKR8tG6MxBfOxY8eRnpGO7du2F1nwgmmaFcllZCAlNRU7d+1UYpgckDFU7lVzCspaStKjLkRGRiqHP/scOHBQWVeMJ2t9/fUIcstf37VLF1xzTSsbNPLcEimkZcPzFNIqHNSv583DzJmz1KkcLS2e0LHxe77U+asy86UOz3fKZvSnpUJicI8m5+9oETGei9HnBuEYK6K1Y4Qf8GeBAQGoVLlygad0JBvD8Z7/E/Ge4+233oqgYE2WyUlJCAjgWsNzupYpXRr16tVTEfC8usPrOqM//RQLFy5ShDfq449wxeWX5/Tnz6S4hecXUkjLM0Ze9xDSKhwyksaBgwcVSTFFMkto0eFN53dichJSU1LV73PjobKVr4eWkafGl54nbzxBbN78Il2JJyAAderUQWhomAo1KFe+HFikgiSiSSsQ1WvQkstnygGqH0MTzvyNTptsyPC0Lvffx8TEqAwQDB5lQYuP3n9fnWBKM4+AkJZ5rEz3FNIyDZXlHXlR+tnnh2DV9ytKbErjRYuX4LURI5Rv7Z7OnfB/L70k8VheaIKQlhdgme0qpGUWKev7fbd8OYYNf7FEkxa3te+8/z4WLPhGhV2MHjUKV16Ru020HpVzS6KQlg3PU0jLBlBNily4aBHeee99rFi21Pa0NHTG+3riyUOEpwYNwpYt/6hyYl9M9E8aHZOwlqhuQlo2PA4hLRtANSnytRFvYMOGDVi4YL7tW66Vq1apYFOmw/Gl/f33Jjw6YICKuh/9yShcf+21vog578YIadnwyIW0bADVpMinBz+LXbt3YdGCBZafxPFwwHDYM3K9zwMP4rMxY1C1ahWTq8vbjfKGv/QSln23HFdccQXGjhlt6W0AnxZ1FgwS0rLhIQlp2QCqSZEkrXXr16vtoS+plnm6WVDYAePCJk6ajA533YkmTZqo2oZPPDUQ33+3rFjkuPGvv9T1HW41mXPr9ttuM/lJz99uQlo2PHshLRtANSmSpPXjTz/57IhXV2nq1ztjtnHjx2Pc5+PxxIAB6PfIw/h+5Ur8vGYNRrz2msmVFdyNJ4iDnhmsslww2HTMJzr/lrTCERDSskE7hLRsANWkyOKS1pYtW3DJJZecMdvAp59RJPXaK6+gU8cO+HzCRERFHcfLL75ocmWFd2Pe+4cefkR1WLZkscoSIU1Iy1EdENJyFG41GbdXTAVTXNJitoXmF12U5wPQ98RsoqxavWTRQlSvVk0l6ouNi7WEtBjBf2+Pnuo+YpfOnfHySy/afojg/BOybkaxtKzDMkeSkJYNoHoQyW0WI+CLS1qbt2zBpfksLZJWx873qOtBDFplI2lt+WcLxo8bZ8mHfX7oMLXlZLmwhfPnq/uK0gpGQEjLBs0Q0rIBVJMii0tav65di+uvuy7PbHTO33l3B5VRde6cr3JIa9bs2Vj7yxqTKyu623fLV2DY8OEqm+nXc77yOYzCksWUcCFCWjY8ICEtG0A1KbIg0qKlxJgqpqLp3KlTkZJmzp6N+3v2PIO02tzcVpUBmzxxQg5pzZg5Ez+tXmVJxZ+YmJO44+671TZ32pQvJDd8EU9JSMvky+BNNyEtb9Cytm9BpEWyurNDR1x37TUei55Omz5dlSlzbxkZmWh9441oc8MNOWXumYf+07FjMe/rOSqPvRXtxra3qPTQn4waiTatW1sh8pyUIaRlw2MV0rIBVJMiCyItFnzt2as3nhk0CL3uv69ISQWRFnNgdenWTVV6NkIcGKLw1KCnVdK+O++wpi5h9573YcfOnUJaHp61kJbJl8GbbkJa3qBlXV/6nvoPGIA//9yQJ07r55/XYNDgwfh09Ce4zsNVmYJI6/ff/1Bynx40UNUqZGOKmc5duqrwhPHjxqJy5crF/iCPDngc63//HZ+M/FhZddIKRkBIywbNENKyAVQTIpmjq1OXrip0wD01DUuTTZk6Fd/Mm6uS8hXVJkyciH6P6Jgpo/3661o8MXAgXnn5JdzTuXPOz8dPnIRxn3+Ozh07YtjQIcW+gtOtZ0/s3LlLLC2xtExou8VdhLQsBtSkOKZ8ua39HSoNsztp9X3wIfzz77/45acfVRHUotrgZ5/DRx9+kKfLhx99rEqcTZ08CS1atMj5HVMw97jvfhw6dEjlue/buzfKly9vcrV5u/EuY7v27VUyRPFpFQ2hWFo+qVjRg4S0bADVhEjmXr+1/R2qoMSqFctRqVIllY+9Q6fOyMzKxPfffefxniDTxTC/lXt76f9ewdJlyzB/7teol69KztLvvsPbb7+DhMREXNOqFQY89ugZcV4mlo6Nf/2Nh/v1U7Fm06dOQTOpeVgobEJaZjTKyz5CWl4CZlF3bg8ZBHr02DFMnTwZLVpcqnLQ39zuVpV++ctp0zzO1OfBhzB9yhd5+nXp1h3R0VFYunhxgTm6vpozB6NGj0ZSUrJKnTzwySdxS9ub8xS+8DQxy6l9OWuWkj9vzhyfM0d4mudc+L2Qlg1PUUjLBlBNinzyqYH4Ze1adcrX4e67sH37dvS4v5dyoNOR7qnd271HTgAp+zLS/oqrW6FGjRrqXmBBjQcAy1esAHN5paSkqNzx773zNm5s08bTdOr3nKN33wewdds2NGzYALNmzCi2f8zUxGdpJyEtGx6ckJYNoJoUaYQ8jHjtVXS4+26s+H4lhgwbhn4PP6y2bp6q3eQnrSNHj6poeG79XnpxuFrF8WPHVdXqqKjonIIbJK7VP/yAQ4cOqz7169fHgrlfm1o1QzJY7ILb2ucGD0bvXvebGne+dhLSsuHJC2nZAKpJkc8+9zxW/fADHnu0Px7r3x+fjR2LCZMm460RryM1PR0NGzRA7Vq1FHmxXBmT+qWmpamodtZJzE9av//xh8p3xdqMvGLD+oq7du9Rvqfy5cqhZs2aeVZGhzq3p2yLFswvctUkuj83bMAno0fjn3//Q53atR3JuGoSyhLbTUjLhkcjpGUDqCZFMucVc1/dcUd7vP3GGypR36bNm/Hdt0uw5tdfMXfuPKSlpyEzI1P5uZgZ4t//tqqTv3a3tFWk9cWkiTm+q1Gjx6hwiT69euHKK69QPituASuUL69is0he7s2oYM2fkQgLa+zHANWhLwxXF7G5jv97+SV0vPtuk5/0/O0mpGXDsxfSsgFUkyJ/WrMGg55+Bs2aXagS9g1/8SXUrlMHU7+YjOCgIBUUypqD/27dimNHj+HkyZOIPnFCbR1ZOJWkNeS553D11Vep6PQBTzyJjMwMfD17Nv7480/s37cf3e7tqrIwHDx0SJGXe4uMLI3Q0BD1Ix4CkJzi4+OV34otPiEBe/ftw/btO9R2kvNTX3r26IFnBg30ynlvEpJzrpuQlg2PVEjLBlBNiiQJ8DoM0yPTeuEF5GcHP4Oe3bsXKiE5JUVVpGZj3NXFzZur7SVLkf29aRMGPfUUut17L+7t0V35sUa8+iq279iBeQsWoEH9+nnk0hJTVakB7N6zB1mZmTh4+BBSU9PUz3jCyTAMNq6PmSPoLxs+bKhP6aFNwnJOdRPSsuFxCmnZAKoXIj8bOw5fTJ2qrJzu3brhucHPeHTAG+I/+PAjMNMDCYUEc0Pr6zHyo4/UeJ5E0rF/2WUtMOqT0cp3Rb8UrSgGthbV6DtjBWxuJ2md0RfGZIPt29+Oxo0anbHN9OLjnnddhbRseORCWjaA6oXIhIQE5eAOCQlFy8taeIyCdxcdGxuLyVOmgFd3GOc14NFH86Q/JhHS2R4bG6cyl5K0GFgadfx4jhieOMbFxqJ+vfoIjwhXhEfSqlqlKiJKRaB0ZGlUqlRRWVlGdR8vPt5531VIywYVENKyAVQHRZKIoqOjFVl5CpFwcFkylQsBIS0bVEFIywZQRaQgIKRlnw4IadmHrUgWBMTSskEHhLRsAFVECgJiadmnA0Ja9mErkgUBsbRs0AEhLRtAFZGCgFha9umAkJZ92IpkQUAsLRt0QEjLBlBFpCAglpZ9OiCkZR+2IlkQEEvLBh0Q0rIBVBEpCIilZZ8OCGnZh61IFgTE0rJBB4S0bABVRAoCYmnZpwNCWt5jm5EJZGUDgYFAcKD342XE+YOAWFo2PGshLXOgZmcD0fHAliPA0TggOQ0oFQbUrwQ0vwAoF2FOTmG9KN9oAQHFkyWjSw4CQlo2PAshLc+g0rJauAlYvBk4dhrIzModExYM1KwAPHYDcFltwBfCobxv/gbSM4GwEKDjpUCQWHCeH8xZ0ENIy4aHJKRVNKhZWcD8v4EvfgXSMjWZVCgFhAQBqRnAqSSAVlKFCOCVDtrq8ralZQDdJwCJqUCZcGDmw0C4zoIs7SxHQEjLhgcopFU0qP8eAZ6eo/uEBgMdLtWWUKXSwMFTwIQ1wF8HAO7uqpcDJvfVhGY0WlGnU/RXYABQKRKICMm1yGjFxSUD/5sGJKUBpcOACX0AWnAksIIat6YZLmuPfThHdAKQngGUL6VlFGTxcUxMApCSAYQGARUj9TzujcRJfx13qJFhep4jcUAw1146l0xpFUad1iPdf+4ui2ROoo+K1zK5rvIR55cVKaQlpGUDAkWLfH8FsOI/3adrS6DfDXlfuvgUYNBXmsDYRvUALqqhv98XAyz4C/j7kLbKSAQkrDsuBm5vDpQNBzYdAj5aCRyLczn3AzT5se+UBwte22c/Ab/v1b97rQMw+VeAL0dmtiaVrpcD7ZvnHhKQMDbuB+ZuBA7FaiIKCtCk1eNK4Op6mpBJfq8tAQ6cBCJCgWfbAdPWATuiAO5W61XWPzuRAExfD+yJ1mvg9rhPK+CSWnrdbCS1Vdv0tpekTFIPDwYurA7cfzVQp6Ljj9IvEwpp2QC7WFpFg/rQVOCQi5A+ux9oXPXM/n/sy+1zdX2gZnntrH99CbArWhMCt5R8kU8l6hf41os0Afx9EHhzGZCQon9OC0lZSgDmPVbw2t5cCvy4Q/+udSOA83NcSrr+Gecb3A645UL9//z969/q31M2vxJS9Retv2faaZIjmT05SxMgLbCGVYA9JzSZcgvLdlVd4Hi8PpQgSRo/52ce3VNbhyS/Kb8B8//S1l/ZCG3ZxafqNZDUh7UHapSzQaFLmEghLRseiJBW0aDe8Yl+mUkiSweaD3GY+It23HOLRGuGlhUtlJcWassjMhT48mFNZP8eBd75Tr/QtMSG3K63mK3yFs/JWag7aRnWEkMvSGRbdNFoXFUPeKuz/v6tZcCvu3LJrEUtbf3x5ySYyqWBWY/kJS2Oq1cJ6NQCoDU5849cUqxfWW+R+fPZf+ptLcnv8956zP4Y4MnZuv8F5YFBbYFqZYHf9uT6Bq9toK1EXw4ubHgNbBMppGUDtEJaRYN660j9e27lCrN8CpIQmwQkpgF05PPFpbVCsnp+nrbK+LLO7a+tEG8d8e6k9fhNwD2X6RVsOwY8NVt/36AK8Hkv/T2tIvqxuIY6FbSf6WSi3tbyIIHtmwH65NKwtHjg8G4XgATHcUPm6a0syem9rvrnJOSXFwHrXVtV9r+8DjBlLfDl71ruiI65hxMk/+ELtPVZpTQwoa8m73O5CWnZ8HSFtIoG9c7R2hqiJbPwcW2tmGm0YKiwfNFJUtwa0QlOYiEJsM19VMd3FYe03LesMYlAzwlaNq2h8b3197R4GF+2/RhwNFaTKX1ou0/kfhIScqnQvNtDWk7c9rHR1/ULrbUgYGyvXJ/UxyuBpf/oPrTsaOENnA1sPaZ/dkXdvGjtPaEJk07+Lx7Q2+ZzuQlp2fB0hbSKBrXPZB2bxTaul/bz5G87jgPHXX3oaK5SRjvvx/6k/Ubc6tFHVLWstnq4rbKKtCb2AepW0vJo3XUbr783SIvW0PR12nHOLS7XQsKg9Ud/FU8i2awkrf5fAntdTvrC/FbcBr/bVZ8mnstNSMuGpyukVTSoH68Clm7RfbgN43bMvSWnA09/BRyO1T99/16gVnmg/wztw6Jj+ulbtAOfJ3svLgR2usoOWmFpeSItvjQDv9LWHNfw2I1AtTL6dJAWkbFuK0nrlcXA2t0aj4mFbAG5PaaVxe3mudyEtGx4ukJaRYP65wHglUX6pSfpdGwBtLtQ+394ErhoM7B6W651M7oHEJcC9JuuHdS0zD69T4dJ0Kc1YKa2tthySCsT6D5eB5fSAqFFx20jLaKCmrtPyxNpcUvHrR1bv9ZA9yv19wxroP+La2SzkrS++1eHcdDK63kVcN9V2tLkXDxVJJYVIoHeV5vfbtug+o6IFNKyAWYhLc+gTl4LzN2gfVtsxhaL2zGjcZvzUXegdgUdSErSou+GfiLGMJUrpWOr1u3NPYUzSIs+rsdnah8YGy0ihgU8eXPxSWv/SeDRGfqUkPcku1yuv2f8FK0s4zNZSVr8/CTEI7Eaq7ZNdewZY9l+3K5DO1o3BF6889wPNBXS8vx+ed1DSMszZDxtW7JZB4oa/i1jFC2optWA/jdoouG2hxbGgr+Bqb9p64I/Yz+emDWuBvzsirEySIuyGHlPi8g4zWMgJn9Piy5/88bS4lrG/Ags2qSlcB3ckV18AcCg+s2HrLe0KHFXFDBqtT54cG+cv2VtHdZxrjvh+bmFtDy/X173ENIyDxmP6v87oi0GWiu0omgVXVqr4BeQcUnbjwOnk/X1GsYmcYtoRJJ3uizvNRoSF+OnaKFVLaNjpAq6g0i5B0/qdbe/WIdjsDHqfuHf+ntuLxkbxsbDgJ92AAdO6RAMxkzd3BTYelRbQ2z3tNSEtnKrdujze45nICrbmp06YJbpeG67KHfOP/fnfp6bmup1G40E/9dB/Xt3vHixvLhZMcw/Nf/2FNKyAX8hLRtAFZGCgAsBIS0bVEFIywZQRaQgIKRlnw4IadmHrUgWBMTSskEHhLRsAFVECgJiadmnA0Ja9mErkgUBsbRs0AEhLRtAFZGCgFha9umAkJZ92IpkQUAsLRt0QEjLBlBFpCAglpZ9OiCkZR+2IlkQEEvLBh0Q0rIBVBEpCIilZZ8OCGnZh61IFgTE0rJBB4S0bABVRAoCYmnZpwNCWvZhK5IFAbG0bNABIS0bQBWRgoBYWvbpgJCWfdiKZEFALC0bdEBIywZQRaQgIJaWfTogpGUftiJZEBBLywYdENKyAVQRKQiIpWWfDpghreAg4PoG534RAvtQFsnnKwL7YnTK7WY1gEYF1MwsDJcjR46UCMgCDh8+7KotXCLWoxZhhrRYzrygXOUl51PISgSBkokAqx1lZAppWfp0PJHWzzs16NIEAUHAdwQaVgXqVjQ/XiytIrDyRFoJKbokljRBQBDwHQGWggsNNj9eSKsYpGUeZukpCAgCViEgpCWkZZUuiRxBwBEEhLSEtBxRNJlEELAKASEtIS2rdEnkCAKOICCkJaTliKLJJIKAVQgIaQlpWaVLIkcQcAQBIS0hLUcUTSYRBKxCQEhLSMsqXRI5goAjCAhpCWk5omgyiSBgFQJCWkJaVumSyBEEHEFASEtIyxFFk0kEAasQENIS0rJKl0SOIOAIAkJaQlqOKJpMIghYhYCQlpCWVbokcgQBRxAQ0hLSckTRZBJBwCoEhLSEtKzSJZEjCDiCgJCWkJYjiiaTCAJWISCkJaRllS6JHEHAEQSEtIS0HFE0mUQQsAoBIS0hLat0SeQIAo4gIKQlpOWIoskkgoBVCAhpCWlZpUsiRxBwBAEhLSEtRxRNJhEErEJASEtIyypdEjmCgCMICGkJaTmiaDKJIGAVAkJaQlpW6ZLIEQQcQUBIS0jLEUWTSQQBqxAQ0hLSskqXRI4g4AgCQlpCWo4omkwiCFiFgJCWkJZVuiRyBAFHEBDSEtJyRNFkEkHAKgSEtIS0rNIlkSMIOIKAkJaQliOKJpMIAlYhIKQlpGWVLokcQcARBIS0hLQcUTSZRBCwCgEhLSEtq3RJ5AgCjiAgpCWk5YiiySSCgFUICGkJaVmlSyJHEHAEASEtIS1HFE0mEQSsQkBIS0jLKl0SOYKAIwgIaQlpOaJoMokgYBUCQlpCWlbpksgRBBxBQEhLSMsRRZNJBAGrEBDSEtKySpdEjiDgCAJCWkJajiiaTCIIWIWAkJaQllW6JHIEAUcQENIS0nJE0WQSQcAqBIS0hLSs0iWRIwg4goCQlpCWI4omkwgCViEgpCWkZZUuiRxBwBEEhLSEtBxRNJlEELAKASEtIS2rdEnkCAKOICCkJaTliKLJJIKAVQgIaQlpWaVLIkcQcAQBIS0hLUcUTSYRBKxCQEhLSMsqXRI5goAjCAhpCWk5omgyiSBgFQJCWkJaVumSyBEEHEFASEtIyxFFk0kEAasQENIS0rJKl0SOIOAIAkJaQlqOKJpMIghYhYCQlpCWVbokcgQBRxAQ0hLSckTRZBJBwCoEhLSEtKzSJZEjCDiCgJCWkJYjiiaTCAJWISCkJaRllS6JHEHAEQSEtIS0HFE0mUQQsAoBIS0hLat0SeQIAo4gIKQlpOWIoskkgoBVCAhpCWlZpUsiRxBwBAEhLSEtRxTNqUmysgF+pWUAJxOBhFQgLRPIzAIiQoCgQKBMOFAuHAgNBgICgMAAp1Yn81iBgJCWkJYVeuRXGSSpqNPA0Thg0yFg2zHgRAKQlKYJi7/PztaERYIKDQLCQoA6FYEmVYFLawHVygKVS/v1Y8jkJhEQ0hLSMqkqJa9bfAqw9Siw8aAmqwMntYXlbYsIBepXAi6rDbRuCNSsAJQK9VaK9HcKASEtIS2ndM2yeUhMmw8DizYB6/dqS8qqRkvs1ouAzi2A+pW1dSatZCEgpCWkVbI0sojVkJz2RANz/gR+3wckptm39AqlgGsaAN2uAGpXsG8ekew9AkJaQlrea40fRtA/9cN2YMZ67a9yotE/T2urzzXAtQ3E6nICczNzCGkJaZnRE7/2IWFN+gVYtNk/y6Djvl8boP1FQHiIf9Ygs+YiIKQlpFWi3wdaVW8tA/47qsMW/NVCgoDbLwIevA4oF+GvVci8REBIS0irxL4Jx04Dn6wG/twHWOhrL9bnbdcMeOpmOV0sFojFHCykJaRVTBWyZ3hGFvDSN8CGA/bIL47UTi2A/jfo4FRpziMgpCWk5bzWeZgxPROYshaYu9HacAarPii3igNuBDpcapVEkeMNAkJaQlre6IsjfX/eCby9DKC1VVJb6TDg1Q5Ai1oldYXn7rqEtIS0SpR2R8UDA78CYhwKayjOh7+wGvBxDyBYAlCLA6PXY4W0hLS8Vho7B4xcBXy7xZoZaA0Vdhk6JcO3Kz/uK6PsB68Fel6lL15LcwYBIS0hLWc0zcQsB08BT87SF52taNy+MaNDQW32H8Af+4o/C7NFjOstl62Lj6R5CUJaQlrmtcXGnozBGv4NsNHC08K5jxYeU/XucmDl1uJ/IBpYj7UBulxefFkiwRwCQlpCWuY0xeZeTCvTbzqQ6kOWhsKW5gRpce4yYcDNKAckAAAOJElEQVTMRyRa3mYVyREvpCWk5ZSuFTnP4s3A6NXWBpE6RVr8YMPaA7dcWCKgPOcXIaQlpOV3JWf2hkdnAPtirF2Kk6R1c1Ng+B3Wrl+kFYyAkJaQlt/fDZJV/+nWWln8UE6SVo1ywLSH/A7lebEAIS0hLb8rOkMcGOpgdXOStBj+MP1/QNUyVn8KkZcfASEtIS2/vxWjVgFLLIrNcv8wTpIW5+VF6o4t/A7nOb8AIS0hLb8rOUMdvI2ZqlUBKO8hRcwbnYHIQnK9T18PbNxf9Ef/54h30LRtCrwgfi3vQPOht5CWkJYPamPtkAEzgV1R3skcdAvQpnHRY8oWEljKUQxg9XS3ses479ZEIp3cV6LjvUPN+95CWkJa3muNxSN6TwKOx3sn1IkQg1tHercmliCjM55ZIKTZh4CQlpCWfdplUvJ9E73P+14SSatiJDD1QQkyNfnYfe4mpCWk5bPyWDXwXCEtVvAhabGOojT7EBDSEtKyT7tMSu49GTh+2mRnV7eSaGlVcm0PWQhDmn0ICGkJadmnXSYl886ht9HwJZG0GKPFWK3C0uGYhEO6eUBASEtIy+8vyeCvgS2HvVvGoLbADR5OD5mWpjAC4ekh0zoX1e793Ls1tagNfNDVuzHS23sEhLSEtLzXGotHsEQYC7F60xpV8ZzDamh7gIkAC2pfbwA2Hyp6xnV7vVkRcO/lwKNtvBsjvb1HQEhLSMt7rbF4xJfrgSm/WSzU4buHXP2oHsBFNaz/HCIxLwJCWkJafn8n/joIDJln/TKcvMZDi25Of4nRsv4pnilRSEtIywk9K3KOhFSg1yTr0iwbkzlJWi3rAO918TuU58UChLSEtEqEoo9aDSzZbO1SnCStfq2B7ldau36RVjACQlpCWiXi3fj3CPDcXM/3Ab1ZrFOkxRJi43sDtSt6szrp6ysCQlpCWr7qjqXjElOBJ2YDh09ZJ9Yp0rqpKfCiZHew7sF5kCSkJaTlmLJ5mmjNLuCNbwGmX7aiOUFajH4f2wuoI1aWFY/MlAwhLSEtU4riRKfMbICBpv95mceqsLW926XwOK1p64D1XsZhFTTPVfWA1ztKlWkn9MOYQ0hLSMtJffM4FwM6X1/iOVrdoyAApYq4uMxoeE8R8Z7m4LUdEiPzaElzDgEhLSEt57TN5EyfuE4SLdolmpzV+26PtAZ6yImh98AVc4SQlpBWMVXI+uGnkoCh84G9J6yXbZXEG5sAg9sVbc1ZNZfIyYuAkJaQVol8J5j14bUlwCELTxOt+KABABpWBV7rIJV3rMDTFxlCWkJavuiNI2Po33p7mfWR8sVZPGOxGPnO1MrS/IOAkJaQln80z8Ss2dnAL7uBMT8AJxNNDLC5S/3KwLDbgQZVbJ5IxBeJgJCWkFaJfkVIXLxQ/fka7ePi/zvdggKBhlWAIbcBdSs5PbvMlx8BIS0hrbPirdh/Evj8Z+DP/c4SV3AQcFMT4JlbgNDgswKqc36RQlpCWmeNkjMbxLJ/gIWbvM8p7+2HDAgAalcA+lwDtKoPRIR4K0H624WAkJaQll26ZZvcHceB+X8BGw8AccnWXfvhgpmeuWpZ4IZGwO3NgbpyPce25+irYCEtIS1fdcfv47YeBZZsATYdAqLj9bbRF5cXwxhoWdUsDzAvVs+rgCpyOuj351vYAoS0hLRKrHKaWRiv4sQkAv8dBTbuB3af0ATGrWRmVuES6J9i4QuSE/PNt2oANKwMsAyYVNMxg7z/+ghpCWn5T/tsmJkEtj9Gh0jw+5R0IDEtd6LwYIBFVVkNmrFWzM5A8pJ29iAgpCWkdfZoq6xUEAAgpCWkJS+CIHBWISCkJaR1VimsLFYQENIS0pK3QBA4qxAQ0hLSOqsUVhYrCAhpCWnJWyAInFUICGkJaZ1VCiuLFQSEtIS05C0QBM4qBIS0hLTOKoWVxQoCQlpCWvIWCAJnFQJCWkJaZ5XCymIFASEtIS15CwSBswoBIS0hrbNKYWWxgoCQlpCWvAWCwFmFgJCWkNZZpbCyWEFASEtIy7G3IDs7G0lJSWq+yMhIr+fNyspCcnIyQkJCEBoa6nF8ZmYmUlJSEB4ejqCgoCL7c11cX/5mdi6Pi5EOliEgpCWkZZkyeRK0a9cu9O/fX3X79ttvERER4WlInt/v27dPjX/ggQfQq1cvj2M3bdqEZ555Bm+99RauueaaQvtnZGTgoYcewuHDh/P0CQwMxNVXX42uXbviiiuu8DhfYR1IhiTbsLAwj+Tp8yTn0UAhLSEtx9T93XffxQsvvKAsmh9//BE33nijV3P/888/uPzyy/Hmm2/i+eef9zj2p59+wk033YSlS5fijjvuKLR/eno6mjdvjri4OFx77bU5/RITE7Ft2zbQwiPx9enTByQyb9vmzZvVel955RVcd9113g6X/vkQENIS0nLkpeCLT5IiCXAr1q9fP4wcObLIuUlu/AoICFBfnkgrf39vSatRo0aK4IxGeX/88QceeeQR7N27V629Zs2aZ6yZn42tMEIjQd98882YP38+7rnnHkfwPpcnEdIS0nJEv//77z+0aNECw4cPB8lkz5496is4uOAKqCdPnsTatWtx7Ngx5f+ihRIfH1+opcV+v//+O6KiolC6dGllYW3fvt0rSys/aRnATJ06VW0fv//+e9xyyy05eHHLR1IjodF/1qBBA2WpcRtotJUrV2L9+vV46aWXMGzYMLVNbdmyJerUqeMI7ufiJEJaQlq26zUtlgEDBmDWrFnYsWMH/v77b7Vdmzt3Lrp06XLG/LSonnrqKWVZlS1bVlkwFStWVNbZ448/fsb2kOQ2ePBg7N+/H6VKlVLWWZMmTdCtWzdlJZndHhZGWqtWrUK7du1A8urbt69ab3R0NF588UUsWrQox9FPUm3Tpg3ef/991K9fX/Vr27Ytdu7ciUOHDqF69eqKUN955x3lJ5PmGwJCWkJavmmOF6NOnTqFZs2aKStkwYIFamS9evWUH2nhwoV5rK3Tp0/jrrvuUoRFPxJfep4UTp48GV988QWOHj2qXnrDp0UFpvWTkJAA+syuvPJKZfV8+umniqxoBRWXtL766iv07NkTS5YsUWujD+zBBx/EsmXL8Nxzz+Huu+9Wa+Thwttvv60IjgTNLe3Bgwexbt06dO/eXa2JZF2lShVFXtJ8Q0BIS0jLN83xYtQvv/yifDrjx49X2yy2//3vf1i8eLHawtGKMhpfdjq8P//8c9XX8BPxhI9ERT/Ye++9l0NadG6TxDZu3IiLLrpIEQVbamqqIhhaScUhrZiYGLWeH374AXSoN27cWG1rORfn5pbPmJMW3quvvqrW9++//6rtIpv4tLxQFhNdhbSEtEyoSfG63H///WorSIIytk0krE6dOimLpEePHjkTPPnkk5g9e7YiBm4N3Ru3gdx+0ZoxLK0777xT9SVJ5I/FmjlzpgqNMEtaHM/tpNFIWCRchk4MGjQIL7/8sooR++ijj/Dss8/i559/PsM3xS0qDxw++OAD1UdIq3i6U9BoIS0hLeu1yk0it0fcBlaqVEmRjdHo/3niiSeU5UIryXBe08e1ZcsWZdXkj+Pi6R2d+W+88UYOaTGOis58kkv+0ztaR9xemiUtEo47UfJ7kizXRF+a0RgnNm3aNLRq1apA7Ehy9LExNENIy3r1EtIS0rJeq9wk0o9DpzpPAPOfFDJandu4X3/9NSc+ir6fDRs2KJ9WftLiCSRP3txJyyCO33777QzSMrZlZkmrbt26mDNnTs7qSYK0rLgOYwvIX3K7OGPGDEXC/H1BjWR6ww03CGnZoF1CWkJaNqhVrkhu32h50InO6zTujVbYww8/rAJO6R9i47Zv4sSJ6pSRDmv3xpCD9u3b53HEd+zYUVlmtMLcQw04bty4cerU0ixpFXZ6mB+gMWPGKCLmvBdffHGeX/MQgL4td4IWn5a1KiakJaRlrUa5SWPsFIng1ltvxbx5886whHhSyO0erTCGQfBF54kciYhExpACg4gYkMoTPPrC3B3xo0ePVld1SHS9e/fOIYvjx4+rkIc1a9ZYTlp8aZo2bar8XzzhNCxCEhbX9+eff4K+OYY4sNH3RT8X/Xf8DNKKh4CQlpBW8TSoiNF8cbk9JHG0bt26wJ48fSMJMQiT/ie++HSek+SGDBmCDh06IC0tTb3wq1evxu7du/M44nnVhoRAq4cni9w+csvJ8Ac66On8t9rS4hofe+wxfPnll+ouJGOuGPLAwwCSbdWqVRUJGwcD9JUx5IMBsrTQGJZRUGS9bQ/iHBMspCWkZYtK01/FkAP6gpYvX17oRWFaRIxev/322/Hxxx+r/lRKOr4NBz1/Rn8TCY7Oezq5jYvXXDx9XTypox+MW1D25x1Fkh9P/bg1LeqeI8MpbrvtNjUH+5ppJ06cUEGkvJrDazy0EhkhT3IaMWKEumhtNMZ1kZgZa0aS5a2AgQMHmplG+hSAgJCWkJYtLwaJgFZOmTJlPF5ZYT86vbmVdHd480TQONG7/vrrVUAm+1arVk1ZM/nbihUrVKR6uXLllNXGxswSjJcqKpiTPij60OhUN2KrzIKydetWZeVRBtdFa6qwtDnsx8/DaH1+SfMNASEtIS3fNEdGCQJ+QkBIS0jLT6on0woCviEgpCWk5ZvmyChBwE8ICGkJaflJ9WRaQcA3BIS0hLR80xwZJQj4CQEhLSEtP6meTCsI+IaAkJaQlm+aI6MEAT8hIKQlpOUn1ZNpBQHfEBDSEtLyTXNklCDgJwSEtDyQVoUKFXwqG+Wn5ynTCgLnPAK89VASWsDhw4fPLO9bAlbG6yXuV0tKwJJkCYLAeY0AL6yXhPb/F3/uBCkJSiYAAAAASUVORK5CYII=;" parent="1" vertex="1">
                    <mxGeometry x="460" y="60" width="301" height="520" as="geometry"/>
                </mxCell>
                <mxCell id="11" style="edgeStyle=orthogonalEdgeStyle;html=1;exitX=0.5;exitY=1;exitDx=0;exitDy=0;entryX=0.5;entryY=0;entryDx=0;entryDy=0;" parent="1" source="29" target="7" edge="1">
                    <mxGeometry relative="1" as="geometry"/>
                </mxCell>
                <mxCell id="12" style="edgeStyle=orthogonalEdgeStyle;html=1;exitX=0.5;exitY=1;exitDx=0;exitDy=0;entryX=0.5;entryY=0;entryDx=0;entryDy=0;" parent="1" source="29" target="8" edge="1">
                    <mxGeometry relative="1" as="geometry"/>
                </mxCell>
                <mxCell id="13" style="edgeStyle=orthogonalEdgeStyle;html=1;exitX=0.5;exitY=1;exitDx=0;exitDy=0;entryX=0.5;entryY=0;entryDx=0;entryDy=0;" parent="1" source="29" target="9" edge="1">
                    <mxGeometry relative="1" as="geometry"/>
                </mxCell>
                <mxCell id="14" style="edgeStyle=orthogonalEdgeStyle;html=1;exitX=0.5;exitY=1;exitDx=0;exitDy=0;entryX=0.5;entryY=0;entryDx=0;entryDy=0;" parent="1" source="29" target="10" edge="1">
                    <mxGeometry relative="1" as="geometry"/>
                </mxCell>
                <mxCell id="17" style="edgeStyle=orthogonalEdgeStyle;html=1;exitX=0.5;exitY=1;exitDx=0;exitDy=0;entryX=0.5;entryY=0;entryDx=0;entryDy=0;" parent="1" source="7" target="15" edge="1">
                    <mxGeometry relative="1" as="geometry"/>
                </mxCell>
                <mxCell id="18" style="edgeStyle=orthogonalEdgeStyle;html=1;exitX=0.5;exitY=1;exitDx=0;exitDy=0;entryX=0.5;entryY=0;entryDx=0;entryDy=0;" parent="1" source="7" target="16" edge="1">
                    <mxGeometry relative="1" as="geometry"/>
                </mxCell>
                <mxCell id="7" value="Nav Bar" style="whiteSpace=wrap;html=1;fillColor=#000036;" parent="1" vertex="1">
                    <mxGeometry x="-520" y="190" width="120" height="60" as="geometry"/>
                </mxCell>
                <mxCell id="8" value="Image" style="whiteSpace=wrap;html=1;" parent="1" vertex="1">
                    <mxGeometry x="-290" y="190" width="120" height="60" as="geometry"/>
                </mxCell>
                <mxCell id="20" style="edgeStyle=orthogonalEdgeStyle;html=1;exitX=0.5;exitY=1;exitDx=0;exitDy=0;" parent="1" source="9" target="19" edge="1">
                    <mxGeometry relative="1" as="geometry"/>
                </mxCell>
                <mxCell id="9" value="Card Area" style="whiteSpace=wrap;html=1;" parent="1" vertex="1">
                    <mxGeometry x="-80" y="180" width="120" height="60" as="geometry"/>
                </mxCell>
                <mxCell id="31" style="edgeStyle=orthogonalEdgeStyle;html=1;exitX=0.5;exitY=1;exitDx=0;exitDy=0;entryX=0.5;entryY=0;entryDx=0;entryDy=0;" parent="1" source="10" target="30" edge="1">
                    <mxGeometry relative="1" as="geometry"/>
                </mxCell>
                <mxCell id="10" value="Add Button" style="whiteSpace=wrap;html=1;fillColor=#06002A;" parent="1" vertex="1">
                    <mxGeometry x="120" y="180" width="120" height="60" as="geometry"/>
                </mxCell>
                <mxCell id="15" value="Logo" style="whiteSpace=wrap;html=1;fillColor=#0B002A;" parent="1" vertex="1">
                    <mxGeometry x="-610" y="310" width="120" height="60" as="geometry"/>
                </mxCell>
                <mxCell id="39" style="edgeStyle=orthogonalEdgeStyle;html=1;exitX=0.5;exitY=1;exitDx=0;exitDy=0;entryX=0.5;entryY=0;entryDx=0;entryDy=0;" parent="1" source="16" target="40" edge="1">
                    <mxGeometry relative="1" as="geometry">
                        <mxPoint x="-379.6842105263156" y="540" as="targetPoint"/>
                    </mxGeometry>
                </mxCell>
                <mxCell id="16" value="Burger Menu" style="whiteSpace=wrap;html=1;fillColor=#020038;" parent="1" vertex="1">
                    <mxGeometry x="-440" y="300" width="120" height="60" as="geometry"/>
                </mxCell>
                <mxCell id="23" style="edgeStyle=orthogonalEdgeStyle;html=1;exitX=0.5;exitY=1;exitDx=0;exitDy=0;entryX=0.5;entryY=0;entryDx=0;entryDy=0;" parent="1" source="19" target="21" edge="1">
                    <mxGeometry relative="1" as="geometry"/>
                </mxCell>
                <mxCell id="24" style="edgeStyle=orthogonalEdgeStyle;html=1;exitX=0.5;exitY=1;exitDx=0;exitDy=0;entryX=0.5;entryY=0;entryDx=0;entryDy=0;" parent="1" source="19" target="22" edge="1">
                    <mxGeometry relative="1" as="geometry"/>
                </mxCell>
                <mxCell id="37" style="edgeStyle=orthogonalEdgeStyle;html=1;exitX=0.5;exitY=1;exitDx=0;exitDy=0;entryX=0.5;entryY=0;entryDx=0;entryDy=0;" parent="1" source="19" target="36" edge="1">
                    <mxGeometry relative="1" as="geometry"/>
                </mxCell>
                <mxCell id="19" value="Pet Cards" style="whiteSpace=wrap;html=1;" parent="1" vertex="1">
                    <mxGeometry x="-80" y="290" width="120" height="60" as="geometry"/>
                </mxCell>
                <mxCell id="21" value="Name" style="whiteSpace=wrap;html=1;" parent="1" vertex="1">
                    <mxGeometry x="-160" y="390" width="120" height="60" as="geometry"/>
                </mxCell>
                <mxCell id="22" value="Image" style="whiteSpace=wrap;html=1;" parent="1" vertex="1">
                    <mxGeometry y="390" width="120" height="60" as="geometry"/>
                </mxCell>
                <mxCell id="25" value="Opens up naivgation menu&lt;br&gt;Modal?&lt;br&gt;" style="text;html=1;resizable=0;autosize=1;align=center;verticalAlign=middle;points=[];fillColor=none;strokeColor=none;rounded=0;" parent="1" vertex="1">
                    <mxGeometry x="-380" y="290" width="160" height="30" as="geometry"/>
                </mxCell>
                <mxCell id="26" value="Takes us to pet details page" style="text;html=1;resizable=0;autosize=1;align=center;verticalAlign=middle;points=[];fillColor=none;strokeColor=none;rounded=0;" parent="1" vertex="1">
                    <mxGeometry x="170" y="250" width="160" height="20" as="geometry"/>
                </mxCell>
                <mxCell id="27" value="State - Array of Pets&lt;br&gt;Objects: {name, picture, id}" style="text;html=1;resizable=0;autosize=1;align=center;verticalAlign=middle;points=[];fillColor=none;strokeColor=none;rounded=0;" parent="1" vertex="1">
                    <mxGeometry x="-120" y="65" width="160" height="30" as="geometry"/>
                </mxCell>
                <mxCell id="29" value="Home Page" style="ellipse;whiteSpace=wrap;html=1;fillColor=#2A2A2A;" parent="1" vertex="1">
                    <mxGeometry x="-180" y="30" width="80" height="80" as="geometry"/>
                </mxCell>
                <mxCell id="32" style="edgeStyle=orthogonalEdgeStyle;html=1;exitX=0.5;exitY=1;exitDx=0;exitDy=0;" parent="1" source="30" target="27" edge="1">
                    <mxGeometry relative="1" as="geometry"/>
                </mxCell>
                <mxCell id="30" value="Pet Details" style="ellipse;whiteSpace=wrap;html=1;fillColor=#2A2A2A;" parent="1" vertex="1">
                    <mxGeometry x="345" y="40" width="80" height="80" as="geometry"/>
                </mxCell>
                <mxCell id="33" value="Affects this state" style="text;html=1;resizable=0;autosize=1;align=center;verticalAlign=middle;points=[];fillColor=none;strokeColor=none;rounded=0;" parent="1" vertex="1">
                    <mxGeometry x="170" y="110" width="100" height="20" as="geometry"/>
                </mxCell>
                <mxCell id="34" value="Takes the whole array state" style="text;html=1;resizable=0;autosize=1;align=center;verticalAlign=middle;points=[];fillColor=none;strokeColor=none;rounded=0;" parent="1" vertex="1">
                    <mxGeometry x="-115" y="240" width="160" height="20" as="geometry"/>
                </mxCell>
                <mxCell id="35" value="Through a map function, &lt;br&gt;takes the object parameters &lt;br&gt;to create each card" style="text;html=1;resizable=0;autosize=1;align=center;verticalAlign=middle;points=[];fillColor=none;strokeColor=none;rounded=0;" parent="1" vertex="1">
                    <mxGeometry x="40" y="300" width="160" height="50" as="geometry"/>
                </mxCell>
                <mxCell id="36" value="Pet Page" style="ellipse;whiteSpace=wrap;html=1;fillColor=#2A2A2A;" parent="1" vertex="1">
                    <mxGeometry x="-60" y="540" width="80" height="80" as="geometry"/>
                </mxCell>
                <mxCell id="38" value="Pass id as a prop" style="text;html=1;resizable=0;autosize=1;align=center;verticalAlign=middle;points=[];fillColor=none;strokeColor=none;rounded=0;" parent="1" vertex="1">
                    <mxGeometry x="35" y="515" width="110" height="20" as="geometry"/>
                </mxCell>
                <mxCell id="40" value="Static links to othe pages" style="ellipse;whiteSpace=wrap;html=1;fillColor=#2A2A2A;" parent="1" vertex="1">
                    <mxGeometry x="-420" y="550" width="80" height="80" as="geometry"/>
                </mxCell>
            </root>
        </mxGraphModel>
    </diagram>
</mxfile>